STARTFONT 2.1
FONT -gnu-DOSIyagi-Medium-R-Normal-Sans-16-160-75-75-c-80-ISO10646-1
SIZE 16 75 75
FONTBOUNDINGBOX 16 16 0 -2
COMMENT "Generated by fontforge, http://fontforge.sourceforge.net"
STARTPROPERTIES 24
COPYRIGHT "Copyright (c) 2022 Damheo Lee"
FONT_VERSION "1.00"
FONT_TYPE "Bitmap"
FOUNDRY "GNU"
FAMILY_NAME "DOSIyagi"
WEIGHT_NAME "Medium"
SLANT "R"
SETWIDTH_NAME "Normal"
ADD_STYLE_NAME "Sans Serif"
PIXEL_SIZE 16
POINT_SIZE 160
RESOLUTION_X 75
RESOLUTION_Y 75
SPACING "C"
AVERAGE_WIDTH 80
CHARSET_REGISTRY "ISO10646"
CHARSET_ENCODING "1"
UNDERLINE_POSITION -2
UNDERLINE_THICKNESS 1
CAP_HEIGHT 10
X_HEIGHT 8
FONT_ASCENT 14
FONT_DESCENT 2
DEFAULT_CHAR 65533
ENDPROPERTIES
CHARS 17207
STARTCHAR U+0000
ENCODING 0
SWIDTH 1000 0
DWIDTH 16 0
BBX 1 1 15 -2
BITMAP
00
ENDCHAR
STARTCHAR U+0020
ENCODING 32
SWIDTH 500 0
DWIDTH 8 0
BBX 1 1 7 -2
BITMAP
00
ENDCHAR
STARTCHAR U+0021
ENCODING 33
SWIDTH 500 0
DWIDTH 8 0
BBX 4 11 2 0
BITMAP
60
F0
F0
F0
F0
60
60
00
60
60
60
ENDCHAR
STARTCHAR U+0022
ENCODING 34
SWIDTH 500 0
DWIDTH 8 0
BBX 7 5 1 7
BITMAP
EE
EE
EE
CC
88
ENDCHAR
STARTCHAR U+0023
ENCODING 35
SWIDTH 500 0
DWIDTH 8 0
BBX 7 10 1 2
BITMAP
0C
6E
7E
FC
EC
6E
7E
FC
EC
60
ENDCHAR
STARTCHAR U+0024
ENCODING 36
SWIDTH 500 0
DWIDTH 8 0
BBX 7 14 1 -1
BITMAP
10
10
7C
FE
D6
D2
FC
7E
96
D6
FE
7C
10
10
ENDCHAR
STARTCHAR U+0025
ENCODING 37
SWIDTH 500 0
DWIDTH 8 0
BBX 7 9 1 2
BITMAP
E2
E6
EE
1C
38
70
EE
CE
8E
ENDCHAR
STARTCHAR U+0026
ENCODING 38
SWIDTH 500 0
DWIDTH 8 0
BBX 7 10 1 1
BITMAP
70
F8
D8
F8
76
FE
DC
CC
FE
76
ENDCHAR
STARTCHAR U+0027
ENCODING 39
SWIDTH 500 0
DWIDTH 8 0
BBX 5 5 1 6
BITMAP
38
38
38
70
E0
ENDCHAR
STARTCHAR U+0028
ENCODING 40
SWIDTH 500 0
DWIDTH 8 0
BBX 5 10 1 1
BITMAP
38
70
E0
E0
E0
E0
E0
E0
70
38
ENDCHAR
STARTCHAR U+0029
ENCODING 41
SWIDTH 500 0
DWIDTH 8 0
BBX 5 10 2 1
BITMAP
E0
70
38
38
38
38
38
38
70
E0
ENDCHAR
STARTCHAR U+002a
ENCODING 42
SWIDTH 500 0
DWIDTH 8 0
BBX 8 9 0 1
BITMAP
18
DB
FF
7E
18
7E
FF
DB
18
ENDCHAR
STARTCHAR U+002b
ENCODING 43
SWIDTH 500 0
DWIDTH 8 0
BBX 6 7 1 2
BITMAP
30
30
FC
FC
30
30
30
ENDCHAR
STARTCHAR U+002c
ENCODING 44
SWIDTH 500 0
DWIDTH 8 0
BBX 4 4 2 0
BITMAP
70
70
70
E0
ENDCHAR
STARTCHAR U+002d
ENCODING 45
SWIDTH 500 0
DWIDTH 8 0
BBX 8 2 0 5
BITMAP
FF
FF
ENDCHAR
STARTCHAR U+002e
ENCODING 46
SWIDTH 500 0
DWIDTH 8 0
BBX 3 3 2 1
BITMAP
E0
E0
E0
ENDCHAR
STARTCHAR U+002f
ENCODING 47
SWIDTH 500 0
DWIDTH 8 0
BBX 8 10 0 1
BITMAP
01
03
07
0E
1C
38
70
E0
C0
80
ENDCHAR
STARTCHAR U+0030
ENCODING 48
SWIDTH 500 0
DWIDTH 8 0
BBX 7 10 1 1
BITMAP
7C
FE
C6
CE
DE
F6
E6
C6
FE
7C
ENDCHAR
STARTCHAR U+0031
ENCODING 49
SWIDTH 500 0
DWIDTH 8 0
BBX 6 10 2 1
BITMAP
70
F0
F0
30
30
30
30
30
FC
FC
ENDCHAR
STARTCHAR U+0032
ENCODING 50
SWIDTH 500 0
DWIDTH 8 0
BBX 7 10 1 1
BITMAP
7C
FE
C6
CE
1C
38
70
E0
FE
FE
ENDCHAR
STARTCHAR U+0033
ENCODING 51
SWIDTH 500 0
DWIDTH 8 0
BBX 7 10 1 1
BITMAP
7C
FE
C6
06
3C
3E
06
C6
FE
7C
ENDCHAR
STARTCHAR U+0034
ENCODING 52
SWIDTH 500 0
DWIDTH 8 0
BBX 7 10 1 1
BITMAP
1C
3C
7C
EC
CC
CC
FE
FE
0C
0C
ENDCHAR
STARTCHAR U+0035
ENCODING 53
SWIDTH 500 0
DWIDTH 8 0
BBX 7 10 1 1
BITMAP
FE
FE
C0
FC
FE
06
06
C6
FE
7C
ENDCHAR
STARTCHAR U+0036
ENCODING 54
SWIDTH 500 0
DWIDTH 8 0
BBX 7 10 1 1
BITMAP
7C
FE
C6
C0
FC
FE
C6
C6
FE
7C
ENDCHAR
STARTCHAR U+0037
ENCODING 55
SWIDTH 500 0
DWIDTH 8 0
BBX 7 10 1 1
BITMAP
FE
FE
0E
1C
38
30
30
30
30
30
ENDCHAR
STARTCHAR U+0038
ENCODING 56
SWIDTH 500 0
DWIDTH 8 0
BBX 7 10 1 1
BITMAP
7C
FE
C6
C6
7C
FE
C6
C6
FE
7C
ENDCHAR
STARTCHAR U+0039
ENCODING 57
SWIDTH 500 0
DWIDTH 8 0
BBX 7 10 1 1
BITMAP
7C
FE
C6
C6
FE
7E
06
C6
FE
7C
ENDCHAR
STARTCHAR U+003a
ENCODING 58
SWIDTH 500 0
DWIDTH 8 0
BBX 3 8 2 2
BITMAP
E0
E0
E0
00
00
E0
E0
E0
ENDCHAR
STARTCHAR U+003b
ENCODING 59
SWIDTH 500 0
DWIDTH 8 0
BBX 4 9 1 1
BITMAP
70
70
70
00
00
70
70
70
E0
ENDCHAR
STARTCHAR U+003c
ENCODING 60
SWIDTH 500 0
DWIDTH 8 0
BBX 7 9 0 1
BITMAP
0E
1C
38
70
E0
70
38
1C
0E
ENDCHAR
STARTCHAR U+003d
ENCODING 61
SWIDTH 500 0
DWIDTH 8 0
BBX 7 5 1 3
BITMAP
FE
FE
00
FE
FE
ENDCHAR
STARTCHAR U+003e
ENCODING 62
SWIDTH 500 0
DWIDTH 8 0
BBX 7 9 1 1
BITMAP
E0
70
38
1C
0E
1C
38
70
E0
ENDCHAR
STARTCHAR U+003f
ENCODING 63
SWIDTH 500 0
DWIDTH 8 0
BBX 7 10 1 1
BITMAP
7C
FE
C6
C6
0E
1C
38
00
38
38
ENDCHAR
STARTCHAR U+0040
ENCODING 64
SWIDTH 500 0
DWIDTH 8 0
BBX 7 11 1 1
BITMAP
7C
FE
82
BA
BA
AA
BE
BE
86
FE
7C
ENDCHAR
STARTCHAR U+0041
ENCODING 65
SWIDTH 500 0
DWIDTH 8 0
BBX 7 10 1 1
BITMAP
10
38
7C
EE
C6
C6
FE
FE
C6
C6
ENDCHAR
STARTCHAR U+0042
ENCODING 66
SWIDTH 500 0
DWIDTH 8 0
BBX 7 10 1 1
BITMAP
FC
FE
C6
C6
FC
FE
C6
C6
FE
FC
ENDCHAR
STARTCHAR U+0043
ENCODING 67
SWIDTH 500 0
DWIDTH 8 0
BBX 7 10 1 1
BITMAP
3C
7E
E6
C0
C0
C0
C0
E6
7E
3C
ENDCHAR
STARTCHAR U+0044
ENCODING 68
SWIDTH 500 0
DWIDTH 8 0
BBX 7 10 1 1
BITMAP
F8
FC
CE
C6
C6
C6
C6
CE
FC
F8
ENDCHAR
STARTCHAR U+0045
ENCODING 69
SWIDTH 500 0
DWIDTH 8 0
BBX 7 10 1 1
BITMAP
FE
FE
C0
C0
FC
FC
C0
C0
FE
FE
ENDCHAR
STARTCHAR U+0046
ENCODING 70
SWIDTH 500 0
DWIDTH 8 0
BBX 7 10 1 1
BITMAP
FE
FE
C0
C0
FC
FC
C0
C0
C0
C0
ENDCHAR
STARTCHAR U+0047
ENCODING 71
SWIDTH 500 0
DWIDTH 8 0
BBX 7 10 1 1
BITMAP
3C
7E
E6
C0
C0
CE
CE
E6
7E
3C
ENDCHAR
STARTCHAR U+0048
ENCODING 72
SWIDTH 500 0
DWIDTH 8 0
BBX 7 10 1 1
BITMAP
C6
C6
C6
C6
FE
FE
C6
C6
C6
C6
ENDCHAR
STARTCHAR U+0049
ENCODING 73
SWIDTH 500 0
DWIDTH 8 0
BBX 4 10 2 1
BITMAP
F0
F0
60
60
60
60
60
60
F0
F0
ENDCHAR
STARTCHAR U+004a
ENCODING 74
SWIDTH 500 0
DWIDTH 8 0
BBX 6 10 1 1
BITMAP
0C
0C
0C
0C
0C
0C
CC
CC
FC
78
ENDCHAR
STARTCHAR U+004b
ENCODING 75
SWIDTH 500 0
DWIDTH 8 0
BBX 7 10 1 1
BITMAP
C6
CE
DC
F8
F0
F0
F8
DC
CE
C6
ENDCHAR
STARTCHAR U+004c
ENCODING 76
SWIDTH 500 0
DWIDTH 8 0
BBX 7 10 1 1
BITMAP
C0
C0
C0
C0
C0
C0
C0
C0
FE
FE
ENDCHAR
STARTCHAR U+004d
ENCODING 77
SWIDTH 500 0
DWIDTH 8 0
BBX 7 10 1 1
BITMAP
C6
EE
FE
FE
D6
C6
C6
C6
C6
C6
ENDCHAR
STARTCHAR U+004e
ENCODING 78
SWIDTH 500 0
DWIDTH 8 0
BBX 7 10 1 1
BITMAP
C6
C6
E6
F6
FE
DE
CE
C6
C6
C6
ENDCHAR
STARTCHAR U+004f
ENCODING 79
SWIDTH 500 0
DWIDTH 8 0
BBX 7 10 1 1
BITMAP
38
7C
EE
C6
C6
C6
C6
EE
7C
38
ENDCHAR
STARTCHAR U+0050
ENCODING 80
SWIDTH 500 0
DWIDTH 8 0
BBX 7 10 1 1
BITMAP
FC
FE
C6
C6
FE
FC
C0
C0
C0
C0
ENDCHAR
STARTCHAR U+0051
ENCODING 81
SWIDTH 500 0
DWIDTH 8 0
BBX 7 11 1 0
BITMAP
7C
FE
C6
C6
C6
C6
CE
FE
7C
0E
06
ENDCHAR
STARTCHAR U+0052
ENCODING 82
SWIDTH 500 0
DWIDTH 8 0
BBX 7 10 1 1
BITMAP
FC
FE
C6
C6
FE
FC
C6
C6
C6
C6
ENDCHAR
STARTCHAR U+0053
ENCODING 83
SWIDTH 500 0
DWIDTH 8 0
BBX 7 10 1 1
BITMAP
7C
FE
C6
C0
FC
7E
06
C6
FE
7C
ENDCHAR
STARTCHAR U+0054
ENCODING 84
SWIDTH 500 0
DWIDTH 8 0
BBX 6 10 1 1
BITMAP
FC
FC
30
30
30
30
30
30
30
30
ENDCHAR
STARTCHAR U+0055
ENCODING 85
SWIDTH 500 0
DWIDTH 8 0
BBX 7 10 1 1
BITMAP
C6
C6
C6
C6
C6
C6
C6
C6
FE
7C
ENDCHAR
STARTCHAR U+0056
ENCODING 86
SWIDTH 500 0
DWIDTH 8 0
BBX 7 10 1 1
BITMAP
C6
C6
C6
C6
C6
C6
EE
7C
38
10
ENDCHAR
STARTCHAR U+0057
ENCODING 87
SWIDTH 500 0
DWIDTH 8 0
BBX 7 10 1 1
BITMAP
C6
C6
C6
D6
D6
D6
FE
FE
6C
6C
ENDCHAR
STARTCHAR U+0058
ENCODING 88
SWIDTH 500 0
DWIDTH 8 0
BBX 7 10 1 1
BITMAP
82
C6
EE
7C
38
38
7C
EE
C6
82
ENDCHAR
STARTCHAR U+0059
ENCODING 89
SWIDTH 500 0
DWIDTH 8 0
BBX 8 10 0 1
BITMAP
81
C3
E7
7E
3C
18
18
18
18
18
ENDCHAR
STARTCHAR U+005a
ENCODING 90
SWIDTH 500 0
DWIDTH 8 0
BBX 7 10 1 1
BITMAP
FE
FE
0E
1C
38
70
E0
C0
FE
FE
ENDCHAR
STARTCHAR U+005b
ENCODING 91
SWIDTH 500 0
DWIDTH 8 0
BBX 4 10 2 1
BITMAP
F0
F0
C0
C0
C0
C0
C0
C0
F0
F0
ENDCHAR
STARTCHAR U+005c
ENCODING 92
SWIDTH 500 0
DWIDTH 8 0
BBX 8 10 0 1
BITMAP
80
C0
E0
70
38
1C
0E
07
03
01
ENDCHAR
STARTCHAR U+005d
ENCODING 93
SWIDTH 500 0
DWIDTH 8 0
BBX 4 10 2 1
BITMAP
F0
F0
30
30
30
30
30
30
F0
F0
ENDCHAR
STARTCHAR U+005e
ENCODING 94
SWIDTH 500 0
DWIDTH 8 0
BBX 7 5 1 8
BITMAP
10
38
7C
EE
C6
ENDCHAR
STARTCHAR U+005f
ENCODING 95
SWIDTH 500 0
DWIDTH 8 0
BBX 8 2 0 1
BITMAP
FF
FF
ENDCHAR
STARTCHAR U+0060
ENCODING 96
SWIDTH 500 0
DWIDTH 8 0
BBX 7 5 1 7
BITMAP
F0
78
3C
1E
06
ENDCHAR
STARTCHAR U+0061
ENCODING 97
SWIDTH 500 0
DWIDTH 8 0
BBX 6 8 1 1
BITMAP
78
7C
0C
7C
FC
CC
FC
7C
ENDCHAR
STARTCHAR U+0062
ENCODING 98
SWIDTH 500 0
DWIDTH 8 0
BBX 6 10 2 1
BITMAP
C0
C0
C0
F8
FC
CC
CC
CC
FC
F8
ENDCHAR
STARTCHAR U+0063
ENCODING 99
SWIDTH 500 0
DWIDTH 8 0
BBX 7 8 1 1
BITMAP
7C
FE
C6
C0
C0
C6
FE
7C
ENDCHAR
STARTCHAR U+0064
ENCODING 100
SWIDTH 500 0
DWIDTH 8 0
BBX 6 10 1 1
BITMAP
0C
0C
0C
7C
FC
CC
CC
CC
FC
7C
ENDCHAR
STARTCHAR U+0065
ENCODING 101
SWIDTH 500 0
DWIDTH 8 0
BBX 7 8 1 1
BITMAP
7C
FE
C6
FE
FE
C0
FE
7E
ENDCHAR
STARTCHAR U+0066
ENCODING 102
SWIDTH 500 0
DWIDTH 8 0
BBX 6 10 1 1
BITMAP
38
7C
6C
60
F8
F8
60
60
60
60
ENDCHAR
STARTCHAR U+0067
ENCODING 103
SWIDTH 500 0
DWIDTH 8 0
BBX 6 10 1 -1
BITMAP
7C
FC
CC
CC
FC
7C
0C
CC
FC
78
ENDCHAR
STARTCHAR U+0068
ENCODING 104
SWIDTH 500 0
DWIDTH 8 0
BBX 6 10 2 1
BITMAP
C0
C0
C0
C0
F8
FC
CC
CC
CC
CC
ENDCHAR
STARTCHAR U+0069
ENCODING 105
SWIDTH 500 0
DWIDTH 8 0
BBX 2 10 3 1
BITMAP
C0
C0
00
00
C0
C0
C0
C0
C0
C0
ENDCHAR
STARTCHAR U+006a
ENCODING 106
SWIDTH 500 0
DWIDTH 8 0
BBX 6 12 1 -1
BITMAP
0C
0C
00
00
0C
0C
0C
0C
CC
CC
FC
78
ENDCHAR
STARTCHAR U+006b
ENCODING 107
SWIDTH 500 0
DWIDTH 8 0
BBX 6 10 2 1
BITMAP
C0
C0
C0
CC
DC
F8
F0
F8
DC
CC
ENDCHAR
STARTCHAR U+006c
ENCODING 108
SWIDTH 500 0
DWIDTH 8 0
BBX 3 10 2 1
BITMAP
E0
E0
60
60
60
60
60
60
60
60
ENDCHAR
STARTCHAR U+006d
ENCODING 109
SWIDTH 500 0
DWIDTH 8 0
BBX 7 8 1 1
BITMAP
EC
FE
FE
D6
D6
D6
C6
C6
ENDCHAR
STARTCHAR U+006e
ENCODING 110
SWIDTH 500 0
DWIDTH 8 0
BBX 6 8 2 1
BITMAP
F8
FC
CC
CC
CC
CC
CC
CC
ENDCHAR
STARTCHAR U+006f
ENCODING 111
SWIDTH 500 0
DWIDTH 8 0
BBX 7 8 1 1
BITMAP
7C
FE
C6
C6
C6
C6
FE
7C
ENDCHAR
STARTCHAR U+0070
ENCODING 112
SWIDTH 500 0
DWIDTH 8 0
BBX 6 10 2 -1
BITMAP
F8
FC
CC
CC
FC
F8
C0
C0
C0
C0
ENDCHAR
STARTCHAR U+0071
ENCODING 113
SWIDTH 500 0
DWIDTH 8 0
BBX 6 10 1 -1
BITMAP
7C
FC
CC
CC
FC
7C
0C
0C
0C
0C
ENDCHAR
STARTCHAR U+0072
ENCODING 114
SWIDTH 500 0
DWIDTH 8 0
BBX 6 8 2 1
BITMAP
F8
FC
CC
C0
C0
C0
C0
C0
ENDCHAR
STARTCHAR U+0073
ENCODING 115
SWIDTH 500 0
DWIDTH 8 0
BBX 7 8 1 1
BITMAP
7E
FE
C0
FC
7E
06
FE
FC
ENDCHAR
STARTCHAR U+0074
ENCODING 116
SWIDTH 500 0
DWIDTH 8 0
BBX 7 10 1 1
BITMAP
30
30
FC
FC
30
30
36
36
3E
1C
ENDCHAR
STARTCHAR U+0075
ENCODING 117
SWIDTH 500 0
DWIDTH 8 0
BBX 7 8 1 1
BITMAP
C6
C6
C6
C6
C6
C6
FE
7C
ENDCHAR
STARTCHAR U+0076
ENCODING 118
SWIDTH 500 0
DWIDTH 8 0
BBX 7 8 1 1
BITMAP
C6
C6
C6
C6
EE
7C
38
10
ENDCHAR
STARTCHAR U+0077
ENCODING 119
SWIDTH 500 0
DWIDTH 8 0
BBX 7 8 1 1
BITMAP
C6
C6
D6
D6
D6
FE
FE
6C
ENDCHAR
STARTCHAR U+0078
ENCODING 120
SWIDTH 500 0
DWIDTH 8 0
BBX 7 9 1 0
BITMAP
82
C6
EE
7C
38
7C
EE
C6
82
ENDCHAR
STARTCHAR U+0079
ENCODING 121
SWIDTH 500 0
DWIDTH 8 0
BBX 7 9 1 0
BITMAP
C6
C6
E6
76
3E
1C
38
70
E0
ENDCHAR
STARTCHAR U+007a
ENCODING 122
SWIDTH 500 0
DWIDTH 8 0
BBX 7 8 1 1
BITMAP
FE
FE
1C
38
70
E0
FE
FE
ENDCHAR
STARTCHAR U+007b
ENCODING 123
SWIDTH 500 0
DWIDTH 8 0
BBX 6 11 1 1
BITMAP
1C
30
30
30
30
E0
30
30
30
30
1C
ENDCHAR
STARTCHAR U+007c
ENCODING 124
SWIDTH 500 0
DWIDTH 8 0
BBX 2 16 3 -2
BITMAP
C0
C0
C0
C0
C0
C0
C0
C0
C0
C0
C0
C0
C0
C0
C0
C0
ENDCHAR
STARTCHAR U+007d
ENCODING 125
SWIDTH 500 0
DWIDTH 8 0
BBX 6 11 1 1
BITMAP
E0
30
30
30
30
1C
30
30
30
30
E0
ENDCHAR
STARTCHAR U+007e
ENCODING 126
SWIDTH 500 0
DWIDTH 8 0
BBX 8 4 0 7
BITMAP
70
FB
DF
0E
ENDCHAR
STARTCHAR U+00A1
ENCODING 161
SWIDTH 500 0
DWIDTH 8 0
BBX 4 9 2 1
BITMAP
60
60
00
60
60
F0
F0
F0
60
ENDCHAR
STARTCHAR U+00A4
ENCODING 164
SWIDTH 1000 0
DWIDTH 16 0
BBX 11 9 2 2
BITMAP
8020
5F40
2080
4040
4040
4040
2080
5F40
8020
ENDCHAR
STARTCHAR U+00A7
ENCODING 167
SWIDTH 500 0
DWIDTH 8 0
BBX 7 11 1 0
BITMAP
7C
C6
60
38
6C
C6
6C
38
0C
C6
7C
ENDCHAR
STARTCHAR U+00A8
ENCODING 168
SWIDTH 1000 0
DWIDTH 16 0
BBX 6 2 5 10
BITMAP
CC
CC
ENDCHAR
STARTCHAR U+00AA
ENCODING 170
SWIDTH 500 0
DWIDTH 8 0
BBX 8 8 0 5
BITMAP
3C
06
3E
66
66
3B
00
FF
ENDCHAR
STARTCHAR U+00AB
ENCODING 171
SWIDTH 500 0
DWIDTH 8 0
BBX 8 7 0 2
BITMAP
1B
36
6C
D8
6C
36
1B
ENDCHAR
STARTCHAR U+00AD
ENCODING 173
SWIDTH 1000 0
DWIDTH 16 0
BBX 8 1 4 6
BITMAP
FF
ENDCHAR
STARTCHAR U+00B0
ENCODING 176
SWIDTH 500 0
DWIDTH 8 0
BBX 6 4 1 7
BITMAP
78
CC
CC
78
ENDCHAR
STARTCHAR U+00B1
ENCODING 177
SWIDTH 500 0
DWIDTH 8 0
BBX 6 9 1 1
BITMAP
30
30
30
FC
30
30
30
00
FC
ENDCHAR
STARTCHAR U+00B2
ENCODING 178
SWIDTH 500 0
DWIDTH 8 0
BBX 5 6 0 6
BITMAP
70
D8
18
30
68
F8
ENDCHAR
STARTCHAR U+00B3
ENCODING 179
SWIDTH 1000 0
DWIDTH 16 0
BBX 5 6 1 7
BITMAP
70
88
30
08
88
70
ENDCHAR
STARTCHAR U+00B4
ENCODING 180
SWIDTH 1000 0
DWIDTH 16 0
BBX 4 3 2 8
BITMAP
30
60
C0
ENDCHAR
STARTCHAR U+00B5
ENCODING 181
SWIDTH 500 0
DWIDTH 8 0
BBX 8 9 0 0
BITMAP
33
33
33
33
33
3E
30
E0
60
ENDCHAR
STARTCHAR U+00B6
ENCODING 182
SWIDTH 500 0
DWIDTH 8 0
BBX 7 9 1 1
BITMAP
7E
F6
F6
F6
76
36
36
36
36
ENDCHAR
STARTCHAR U+00B7
ENCODING 183
SWIDTH 500 0
DWIDTH 8 0
BBX 4 3 2 2
BITMAP
60
F0
60
ENDCHAR
STARTCHAR U+00B8
ENCODING 184
SWIDTH 1000 0
DWIDTH 16 0
BBX 2 3 7 1
BITMAP
80
40
80
ENDCHAR
STARTCHAR U+00B9
ENCODING 185
SWIDTH 1000 0
DWIDTH 16 0
BBX 3 6 2 7
BITMAP
40
C0
40
40
40
E0
ENDCHAR
STARTCHAR U+00BA
ENCODING 186
SWIDTH 500 0
DWIDTH 8 0
BBX 8 8 0 5
BITMAP
3C
66
66
66
3C
00
00
FF
ENDCHAR
STARTCHAR U+00BB
ENCODING 187
SWIDTH 500 0
DWIDTH 8 0
BBX 8 7 0 2
BITMAP
D8
6C
36
1B
36
6C
D8
ENDCHAR
STARTCHAR U+00BC
ENCODING 188
SWIDTH 500 0
DWIDTH 8 0
BBX 8 9 0 4
BITMAP
21
62
24
78
12
26
4A
9F
02
ENDCHAR
STARTCHAR U+00BD
ENCODING 189
SWIDTH 500 0
DWIDTH 8 0
BBX 8 9 0 4
BITMAP
21
62
24
78
16
29
42
84
0F
ENDCHAR
STARTCHAR U+00BE
ENCODING 190
SWIDTH 1000 0
DWIDTH 16 0
BBX 15 14 1 -1
BITMAP
7800
8404
0408
3810
0420
0440
8488
7918
0228
0448
0888
11FE
2008
4008
ENDCHAR
STARTCHAR U+00BF
ENCODING 191
SWIDTH 500 0
DWIDTH 8 0
BBX 7 9 1 1
BITMAP
30
30
00
30
30
60
C6
C6
7C
ENDCHAR
STARTCHAR U+00C6
ENCODING 198
SWIDTH 1000 0
DWIDTH 16 0
BBX 16 11 0 1
BITMAP
0060
007F
00E1
0160
0262
047E
0FE2
1060
2060
4061
E0FF
ENDCHAR
STARTCHAR U+00D0
ENCODING 208
SWIDTH 1000 0
DWIDTH 16 0
BBX 12 11 1 1
BITMAP
7F00
31C0
3060
3030
FE30
3030
3030
3030
3060
31C0
7F00
ENDCHAR
STARTCHAR U+00D1
ENCODING 209
SWIDTH 500 0
DWIDTH 8 0
BBX 7 12 1 1
BITMAP
76
DC
00
C6
E6
F6
FE
DE
CE
C6
C6
C6
ENDCHAR
STARTCHAR U+00D7
ENCODING 215
SWIDTH 1000 0
DWIDTH 16 0
BBX 10 9 3 2
BITMAP
C0C0
6180
3300
1E00
0C00
1E00
3300
6180
C0C0
ENDCHAR
STARTCHAR U+00D8
ENCODING 216
SWIDTH 1000 0
DWIDTH 16 0
BBX 10 13 3 0
BITMAP
0180
0180
0300
3F00
6380
C6C0
CCC0
CCC0
D8C0
7180
3F00
3000
6000
ENDCHAR
STARTCHAR U+00DE
ENCODING 222
SWIDTH 1000 0
DWIDTH 16 0
BBX 11 11 3 1
BITMAP
F000
6000
7F80
60C0
6060
6060
6060
60C0
7F80
6000
F000
ENDCHAR
STARTCHAR U+00DF
ENCODING 223
SWIDTH 500 0
DWIDTH 8 0
BBX 7 11 1 -1
BITMAP
3C
66
66
64
7C
66
66
C6
FC
C0
C0
ENDCHAR
STARTCHAR U+00E1
ENCODING 225
SWIDTH 500 0
DWIDTH 8 0
BBX 7 10 1 1
BITMAP
18
30
60
00
78
0C
7C
CC
CC
76
ENDCHAR
STARTCHAR U+00E6
ENCODING 230
SWIDTH 1000 0
DWIDTH 16 0
BBX 16 7 0 1
BITMAP
7E7C
C3C6
0183
FFFF
C180
C3C3
7E7E
ENDCHAR
STARTCHAR U+00ED
ENCODING 237
SWIDTH 500 0
DWIDTH 8 0
BBX 4 10 2 1
BITMAP
30
60
C0
00
E0
60
60
60
60
F0
ENDCHAR
STARTCHAR U+00F0
ENCODING 240
SWIDTH 1000 0
DWIDTH 16 0
BBX 10 10 3 1
BITMAP
0300
0600
3F00
6D80
D8C0
00C0
FFC0
C0C0
6180
3F00
ENDCHAR
STARTCHAR U+00F1
ENCODING 241
SWIDTH 500 0
DWIDTH 8 0
BBX 7 9 1 1
BITMAP
76
DC
00
DC
66
66
66
66
66
ENDCHAR
STARTCHAR U+00F3
ENCODING 243
SWIDTH 500 0
DWIDTH 8 0
BBX 7 10 1 1
BITMAP
18
30
60
00
7C
C6
C6
C6
C6
7C
ENDCHAR
STARTCHAR U+00F7
ENCODING 247
SWIDTH 500 0
DWIDTH 8 0
BBX 8 9 0 1
BITMAP
18
3C
18
00
FF
00
18
3C
18
ENDCHAR
STARTCHAR U+00F8
ENCODING 248
SWIDTH 1000 0
DWIDTH 16 0
BBX 10 12 3 -1
BITMAP
0300
0300
0300
3F00
6780
C6C0
CCC0
CCC0
7F80
1800
1800
3000
ENDCHAR
STARTCHAR U+00FA
ENCODING 250
SWIDTH 500 0
DWIDTH 8 0
BBX 7 10 1 1
BITMAP
0C
18
30
00
C6
C6
C6
C6
C6
7C
ENDCHAR
STARTCHAR U+00FE
ENCODING 254
SWIDTH 1000 0
DWIDTH 16 0
BBX 10 9 3 0
BITMAP
E000
6F00
7180
60C0
60C0
60C0
7180
7F00
E000
ENDCHAR
STARTCHAR U+0111
ENCODING 273
SWIDTH 1000 0
DWIDTH 16 0
BBX 12 11 3 1
BITMAP
01C0
00C0
0FF0
00C0
3EC0
61C0
C0C0
C0C0
C0C0
61C0
3EC0
ENDCHAR
STARTCHAR U+0126
ENCODING 294
SWIDTH 1000 0
DWIDTH 16 0
BBX 14 11 1 1
BITMAP
7878
3030
FFFC
3030
3030
3FF0
3030
3030
3030
3030
7878
ENDCHAR
STARTCHAR U+0127
ENCODING 295
SWIDTH 1000 0
DWIDTH 16 0
BBX 12 11 2 1
BITMAP
7000
3000
FF00
3000
3780
3CC0
3860
3060
3060
3060
78F0
ENDCHAR
STARTCHAR U+0131
ENCODING 305
SWIDTH 1000 0
DWIDTH 16 0
BBX 4 11 6 1
BITMAP
E0
60
60
60
60
60
60
60
60
60
F0
ENDCHAR
STARTCHAR U+0132
ENCODING 306
SWIDTH 1000 0
DWIDTH 16 0
BBX 12 11 2 1
BITMAP
F0F0
6060
6060
6060
6060
6060
6060
6060
6660
6660
F3C0
ENDCHAR
STARTCHAR U+0133
ENCODING 307
SWIDTH 1000 0
DWIDTH 16 0
BBX 11 13 2 -1
BITMAP
6060
6060
0000
6060
6060
6060
6060
6060
6060
6060
F660
0660
03C0
ENDCHAR
STARTCHAR U+0138
ENCODING 312
SWIDTH 1000 0
DWIDTH 16 0
BBX 10 8 2 1
BITMAP
F3C0
6300
6600
6C00
7C00
7600
6300
F3C0
ENDCHAR
STARTCHAR U+013F
ENCODING 319
SWIDTH 1000 0
DWIDTH 16 0
BBX 10 11 3 1
BITMAP
F000
6000
6000
60C0
60C0
6000
6000
6000
6040
60C0
FFC0
ENDCHAR
STARTCHAR U+0140
ENCODING 320
SWIDTH 1000 0
DWIDTH 16 0
BBX 7 11 6 1
BITMAP
E0
60
60
66
66
60
60
60
60
60
F0
ENDCHAR
STARTCHAR U+0141
ENCODING 321
SWIDTH 1000 0
DWIDTH 16 0
BBX 11 11 2 1
BITMAP
7800
3000
3000
3000
3C00
F000
3000
3000
3020
3060
7FE0
ENDCHAR
STARTCHAR U+0142
ENCODING 322
SWIDTH 1000 0
DWIDTH 16 0
BBX 6 11 5 1
BITMAP
70
30
30
30
3C
F0
30
30
30
30
78
ENDCHAR
STARTCHAR U+0149
ENCODING 329
SWIDTH 1000 0
DWIDTH 16 0
BBX 13 10 1 1
BITMAP
3000
6000
C000
37C0
1C60
1830
1830
1830
1830
3C78
ENDCHAR
STARTCHAR U+014A
ENCODING 330
SWIDTH 1000 0
DWIDTH 16 0
BBX 12 11 2 1
BITMAP
FFC0
6060
6030
6030
6030
6060
61C0
6000
6000
6000
F000
ENDCHAR
STARTCHAR U+014B
ENCODING 331
SWIDTH 1000 0
DWIDTH 16 0
BBX 11 9 1 0
BITMAP
EF80
38C0
3060
3060
7C60
0060
0060
30C0
1F80
ENDCHAR
STARTCHAR U+0152
ENCODING 338
SWIDTH 1000 0
DWIDTH 16 0
BBX 12 11 2 1
BITMAP
3FF0
6300
C300
C300
C300
C3E0
C300
C300
C300
6700
3BF0
ENDCHAR
STARTCHAR U+0153
ENCODING 339
SWIDTH 1000 0
DWIDTH 16 0
BBX 16 7 0 1
BITMAP
3E7C
63C6
C183
C1FF
C180
63C3
3E7E
ENDCHAR
STARTCHAR U+0166
ENCODING 358
SWIDTH 1000 0
DWIDTH 16 0
BBX 12 11 2 1
BITMAP
FFF0
C630
8610
0600
3FC0
0600
0600
0600
0600
0600
0F00
ENDCHAR
STARTCHAR U+0167
ENCODING 359
SWIDTH 1000 0
DWIDTH 16 0
BBX 8 10 4 1
BITMAP
30
3C
F0
30
FE
30
30
31
33
1E
ENDCHAR
STARTCHAR U+02C7
ENCODING 711
SWIDTH 1000 0
DWIDTH 16 0
BBX 5 3 4 8
BITMAP
88
50
20
ENDCHAR
STARTCHAR U+02D0
ENCODING 720
SWIDTH 1000 0
DWIDTH 16 0
BBX 5 8 5 2
BITMAP
F8
70
20
00
00
20
70
F8
ENDCHAR
STARTCHAR U+02D8
ENCODING 728
SWIDTH 1000 0
DWIDTH 16 0
BBX 5 2 4 9
BITMAP
88
70
ENDCHAR
STARTCHAR U+02D9
ENCODING 729
SWIDTH 1000 0
DWIDTH 16 0
BBX 4 3 6 9
BITMAP
60
F0
60
ENDCHAR
STARTCHAR U+02DA
ENCODING 730
SWIDTH 1000 0
DWIDTH 16 0
BBX 4 3 6 9
BITMAP
60
90
60
ENDCHAR
STARTCHAR U+02DB
ENCODING 731
SWIDTH 1000 0
DWIDTH 16 0
BBX 2 3 6 1
BITMAP
40
80
40
ENDCHAR
STARTCHAR U+02DD
ENCODING 733
SWIDTH 1000 0
DWIDTH 16 0
BBX 8 3 2 8
BITMAP
33
66
CC
ENDCHAR
STARTCHAR U+0391
ENCODING 913
SWIDTH 1000 0
DWIDTH 16 0
BBX 13 11 1 1
BITMAP
0010
0030
0070
00B0
0130
0230
07F0
0830
1030
2030
F078
ENDCHAR
STARTCHAR U+0392
ENCODING 914
SWIDTH 1000 0
DWIDTH 16 0
BBX 11 11 2 1
BITMAP
FF80
60C0
6060
6060
60C0
7F80
60C0
6060
6060
60C0
FF80
ENDCHAR
STARTCHAR U+0393
ENCODING 915
SWIDTH 1000 0
DWIDTH 16 0
BBX 12 11 2 1
BITMAP
FFF0
6030
6010
6000
6000
6000
6000
6000
6000
6000
F000
ENDCHAR
STARTCHAR U+0394
ENCODING 916
SWIDTH 1000 0
DWIDTH 16 0
BBX 12 11 2 1
BITMAP
0020
0060
00E0
0160
0260
0460
0860
1060
2060
4060
FFF0
ENDCHAR
STARTCHAR U+0395
ENCODING 917
SWIDTH 1000 0
DWIDTH 16 0
BBX 11 11 2 1
BITMAP
FFE0
6060
6060
6000
6200
7E00
6200
6000
6060
6060
FFE0
ENDCHAR
STARTCHAR U+0396
ENCODING 918
SWIDTH 1000 0
DWIDTH 16 0
BBX 12 11 2 1
BITMAP
7FF0
6060
60C0
0180
0300
0600
0C00
1800
3060
6060
FFE0
ENDCHAR
STARTCHAR U+0397
ENCODING 919
SWIDTH 1000 0
DWIDTH 16 0
BBX 12 11 2 1
BITMAP
F0F0
6060
6060
6060
6060
7FE0
6060
6060
6060
6060
F0F0
ENDCHAR
STARTCHAR U+0398
ENCODING 920
SWIDTH 1000 0
DWIDTH 16 0
BBX 11 11 2 1
BITMAP
3B80
60C0
C060
D160
DF60
DF60
D160
C060
C060
60C0
3B80
ENDCHAR
STARTCHAR U+0399
ENCODING 921
SWIDTH 1000 0
DWIDTH 16 0
BBX 6 11 5 1
BITMAP
FC
78
30
30
30
30
30
30
30
78
FC
ENDCHAR
STARTCHAR U+039A
ENCODING 922
SWIDTH 1000 0
DWIDTH 16 0
BBX 12 11 2 1
BITMAP
F070
6040
6080
6100
6200
7C00
6600
6300
6180
60C0
F0F0
ENDCHAR
STARTCHAR U+039B
ENCODING 923
SWIDTH 1000 0
DWIDTH 16 0
BBX 13 11 1 1
BITMAP
0010
0030
0070
00B0
0130
0230
0430
0830
1030
2030
E078
ENDCHAR
STARTCHAR U+039C
ENCODING 924
SWIDTH 1000 0
DWIDTH 16 0
BBX 13 11 1 1
BITMAP
E038
6070
70B0
5930
4E30
4430
4030
4030
4030
4030
E078
ENDCHAR
STARTCHAR U+039D
ENCODING 925
SWIDTH 1000 0
DWIDTH 16 0
BBX 13 11 1 1
BITMAP
E038
6010
7010
5810
4C10
4610
4310
4190
40D0
4070
E078
ENDCHAR
STARTCHAR U+039E
ENCODING 926
SWIDTH 1000 0
DWIDTH 16 0
BBX 12 11 2 1
BITMAP
FFF0
FFF0
8010
0000
2040
3FC0
2040
0000
8010
FFF0
FFF0
ENDCHAR
STARTCHAR U+039F
ENCODING 927
SWIDTH 1000 0
DWIDTH 16 0
BBX 11 11 2 1
BITMAP
3B80
60C0
C060
C060
C060
C060
C060
C060
C060
60C0
3B80
ENDCHAR
STARTCHAR U+03A0
ENCODING 928
SWIDTH 1000 0
DWIDTH 16 0
BBX 12 11 2 1
BITMAP
FFF0
30C0
30C0
30C0
30C0
30C0
30C0
30C0
30C0
30C0
79E0
ENDCHAR
STARTCHAR U+03A1
ENCODING 929
SWIDTH 1000 0
DWIDTH 16 0
BBX 12 11 2 1
BITMAP
FFC0
6060
6030
6060
7FC0
6000
6000
6000
6000
6000
F000
ENDCHAR
STARTCHAR U+03A3
ENCODING 931
SWIDTH 500 0
DWIDTH 8 0
BBX 8 9 0 1
BITMAP
FF
63
30
18
0C
18
30
63
FF
ENDCHAR
STARTCHAR U+03A4
ENCODING 932
SWIDTH 1000 0
DWIDTH 16 0
BBX 12 11 2 1
BITMAP
FFF0
C630
8610
0600
0600
0600
0600
0600
0600
0600
0F00
ENDCHAR
STARTCHAR U+03A5
ENCODING 933
SWIDTH 1000 0
DWIDTH 16 0
BBX 11 11 2 1
BITMAP
73C0
9E60
0C60
0C00
0C00
0C00
0C00
0C00
0C00
0C00
1E00
ENDCHAR
STARTCHAR U+03A6
ENCODING 934
SWIDTH 500 0
DWIDTH 8 0
BBX 6 11 1 0
BITMAP
FC
30
30
78
CC
CC
CC
78
30
30
FC
ENDCHAR
STARTCHAR U+03A7
ENCODING 935
SWIDTH 1000 0
DWIDTH 16 0
BBX 14 11 1 1
BITMAP
F038
3020
1840
0C80
0700
0300
0580
08C0
1060
2030
E03C
ENDCHAR
STARTCHAR U+03A8
ENCODING 936
SWIDTH 1000 0
DWIDTH 16 0
BBX 14 11 1 1
BITMAP
E79C
6318
6318
6318
6318
6318
3330
1FE0
0300
0300
0780
ENDCHAR
STARTCHAR U+03A9
ENCODING 937
SWIDTH 1000 0
DWIDTH 16 0
BBX 11 11 2 1
BITMAP
3F80
60C0
C060
C060
C060
C060
60C0
3180
8A20
FBE0
FBE0
ENDCHAR
STARTCHAR U+03B1
ENCODING 945
SWIDTH 500 0
DWIDTH 8 0
BBX 7 7 1 1
BITMAP
06
0E
7C
CC
CC
DE
76
ENDCHAR
STARTCHAR U+03B2
ENCODING 946
SWIDTH 1000 0
DWIDTH 16 0
BBX 9 11 3 -1
BITMAP
1F00
6180
C180
CE00
C300
C180
C180
C300
DC00
C000
C000
ENDCHAR
STARTCHAR U+03B3
ENCODING 947
SWIDTH 1000 0
DWIDTH 16 0
BBX 11 9 3 0
BITMAP
C1C0
6220
3400
3800
3000
3000
3000
3000
3000
ENDCHAR
STARTCHAR U+03B4
ENCODING 948
SWIDTH 500 0
DWIDTH 8 0
BBX 7 8 1 2
BITMAP
7C
CE
62
78
CC
CC
CC
78
ENDCHAR
STARTCHAR U+03B5
ENCODING 949
SWIDTH 500 0
DWIDTH 8 0
BBX 7 9 1 1
BITMAP
3E
60
C0
C0
FE
C0
C0
60
3E
ENDCHAR
STARTCHAR U+03B6
ENCODING 950
SWIDTH 1000 0
DWIDTH 16 0
BBX 8 13 4 0
BITMAP
40
3E
0C
18
30
60
C0
C0
C0
3C
03
03
0C
ENDCHAR
STARTCHAR U+03B7
ENCODING 951
SWIDTH 1000 0
DWIDTH 16 0
BBX 11 10 2 -1
BITMAP
E780
3860
3060
3060
3060
3060
3060
3060
0060
0060
ENDCHAR
STARTCHAR U+03B8
ENCODING 952
SWIDTH 1000 0
DWIDTH 16 0
BBX 9 9 3 1
BITMAP
1C00
6300
C180
C180
FF80
C180
C180
6300
1C00
ENDCHAR
STARTCHAR U+03B9
ENCODING 953
SWIDTH 1000 0
DWIDTH 16 0
BBX 6 8 5 1
BITMAP
20
60
E0
60
60
60
64
38
ENDCHAR
STARTCHAR U+03BA
ENCODING 954
SWIDTH 1000 0
DWIDTH 16 0
BBX 10 9 4 1
BITMAP
01C0
C600
C800
D000
F000
CC00
C300
C300
C1C0
ENDCHAR
STARTCHAR U+03BB
ENCODING 955
SWIDTH 1000 0
DWIDTH 16 0
BBX 13 9 2 1
BITMAP
1E00
0300
0180
0180
0380
0580
08C0
3060
C018
ENDCHAR
STARTCHAR U+03BC
ENCODING 956
SWIDTH 1000 0
DWIDTH 16 0
BBX 11 10 2 -1
BITMAP
E0C0
60C0
60C0
60C0
60C0
60C0
60C0
5F60
4000
4000
ENDCHAR
STARTCHAR U+03BD
ENCODING 957
SWIDTH 1000 0
DWIDTH 16 0
BBX 11 8 2 1
BITMAP
E0E0
6060
6060
6040
6080
6300
6C00
6000
ENDCHAR
STARTCHAR U+03BE
ENCODING 958
SWIDTH 1000 0
DWIDTH 16 0
BBX 9 14 4 -1
BITMAP
1000
0F80
3000
3000
0F00
3000
6000
C000
C000
6000
3C00
0300
0300
0C00
ENDCHAR
STARTCHAR U+03BF
ENCODING 959
SWIDTH 1000 0
DWIDTH 16 0
BBX 10 8 3 1
BITMAP
1E00
6180
C0C0
C0C0
C0C0
C0C0
6180
1E00
ENDCHAR
STARTCHAR U+03C0
ENCODING 960
SWIDTH 500 0
DWIDTH 8 0
BBX 7 6 1 1
BITMAP
FE
6C
D8
D8
D8
CC
ENDCHAR
STARTCHAR U+03C1
ENCODING 961
SWIDTH 1000 0
DWIDTH 16 0
BBX 10 10 3 -1
BITMAP
3F00
60C0
C0C0
C0C0
C0C0
C0C0
E180
CE00
C000
C000
ENDCHAR
STARTCHAR U+03C3
ENCODING 963
SWIDTH 500 0
DWIDTH 8 0
BBX 7 8 1 2
BITMAP
1E
76
D8
CC
CC
CC
CC
78
ENDCHAR
STARTCHAR U+03C4
ENCODING 964
SWIDTH 500 0
DWIDTH 8 0
BBX 7 9 1 1
BITMAP
06
FE
CC
18
30
60
60
36
1C
ENDCHAR
STARTCHAR U+03C5
ENCODING 965
SWIDTH 1000 0
DWIDTH 16 0
BBX 12 8 1 1
BITMAP
E060
3010
3010
3010
3010
3020
18C0
0F00
ENDCHAR
STARTCHAR U+03C6
ENCODING 966
SWIDTH 500 0
DWIDTH 8 0
BBX 7 10 1 0
BITMAP
06
06
7C
CE
DE
F6
E6
7C
C0
C0
ENDCHAR
STARTCHAR U+03C7
ENCODING 967
SWIDTH 1000 0
DWIDTH 16 0
BBX 10 8 3 1
BITMAP
C0C0
3100
1A00
0C00
0C00
1600
2300
C0C0
ENDCHAR
STARTCHAR U+03C8
ENCODING 968
SWIDTH 1000 0
DWIDTH 16 0
BBX 13 11 1 -1
BITMAP
0200
C218
6230
6230
6230
6230
6230
3260
0F80
0200
0200
ENDCHAR
STARTCHAR U+03C9
ENCODING 969
SWIDTH 1000 0
DWIDTH 16 0
BBX 12 8 2 1
BITMAP
30C0
6060
C030
C630
C630
C630
6F60
39C0
ENDCHAR
STARTCHAR U+0401
ENCODING 1025
SWIDTH 1000 0
DWIDTH 16 0
BBX 11 12 2 1
BITMAP
3180
3180
0000
FFE0
6060
6060
6200
7E00
6200
6060
6060
FFE0
ENDCHAR
STARTCHAR U+0410
ENCODING 1040
SWIDTH 1000 0
DWIDTH 16 0
BBX 13 11 1 1
BITMAP
0010
0030
0070
00B0
0130
0230
07F0
0830
1030
2030
F078
ENDCHAR
STARTCHAR U+0411
ENCODING 1041
SWIDTH 1000 0
DWIDTH 16 0
BBX 11 11 2 1
BITMAP
FF00
6300
6100
6000
6000
7F80
60C0
6060
6060
60C0
FF80
ENDCHAR
STARTCHAR U+0412
ENCODING 1042
SWIDTH 1000 0
DWIDTH 16 0
BBX 11 11 2 1
BITMAP
FF80
60C0
6060
6060
60C0
7F80
60C0
6060
6060
60C0
FF80
ENDCHAR
STARTCHAR U+0413
ENCODING 1043
SWIDTH 1000 0
DWIDTH 16 0
BBX 12 11 2 1
BITMAP
FFF0
6030
6010
6000
6000
6000
6000
6000
6000
6000
F000
ENDCHAR
STARTCHAR U+0414
ENCODING 1044
SWIDTH 1000 0
DWIDTH 16 0
BBX 13 11 1 1
BITMAP
0FF8
0430
0430
0430
0430
0430
0830
0830
1030
3FF0
C018
ENDCHAR
STARTCHAR U+0415
ENCODING 1045
SWIDTH 1000 0
DWIDTH 16 0
BBX 11 11 2 1
BITMAP
FFE0
6060
6060
6000
6200
7E00
6200
6000
6060
6060
FFE0
ENDCHAR
STARTCHAR U+0416
ENCODING 1046
SWIDTH 1000 0
DWIDTH 16 0
BBX 14 11 1 1
BITMAP
E79C
6318
6318
6318
3330
1FE0
3330
6318
6318
6318
E79C
ENDCHAR
STARTCHAR U+0417
ENCODING 1047
SWIDTH 1000 0
DWIDTH 16 0
BBX 11 11 3 1
BITMAP
1F00
7180
C0C0
0180
0700
1CC0
0060
C060
C040
F1C0
9F00
ENDCHAR
STARTCHAR U+0418
ENCODING 1048
SWIDTH 1000 0
DWIDTH 16 0
BBX 14 11 1 1
BITMAP
F03C
6018
6038
6058
6098
6118
6218
6418
6818
7018
F03C
ENDCHAR
STARTCHAR U+0419
ENCODING 1049
SWIDTH 1000 0
DWIDTH 16 0
BBX 14 9 1 1
BITMAP
0840
0780
F03C
6038
60D8
6318
6C18
7018
F03C
ENDCHAR
STARTCHAR U+041A
ENCODING 1050
SWIDTH 1000 0
DWIDTH 16 0
BBX 12 11 2 1
BITMAP
F070
6040
6080
6100
6200
7C00
6600
6300
6180
60C0
F0F0
ENDCHAR
STARTCHAR U+041B
ENCODING 1051
SWIDTH 1000 0
DWIDTH 16 0
BBX 13 11 1 1
BITMAP
0FF8
0430
0430
0430
0430
0430
0430
0430
C430
C830
7078
ENDCHAR
STARTCHAR U+041C
ENCODING 1052
SWIDTH 1000 0
DWIDTH 16 0
BBX 14 11 1 1
BITMAP
7038
3030
3870
2CB0
2730
2230
4018
4018
4018
4018
F03C
ENDCHAR
STARTCHAR U+041D
ENCODING 1053
SWIDTH 1000 0
DWIDTH 16 0
BBX 12 11 2 1
BITMAP
F0F0
6060
6060
6060
6060
7FE0
6060
6060
6060
6060
F0F0
ENDCHAR
STARTCHAR U+041E
ENCODING 1054
SWIDTH 1000 0
DWIDTH 16 0
BBX 11 11 2 1
BITMAP
3B80
60C0
C060
C060
C060
C060
C060
C060
C060
60C0
3B80
ENDCHAR
STARTCHAR U+041F
ENCODING 1055
SWIDTH 1000 0
DWIDTH 16 0
BBX 12 11 2 1
BITMAP
FFF0
30C0
30C0
30C0
30C0
30C0
30C0
30C0
30C0
30C0
79E0
ENDCHAR
STARTCHAR U+0420
ENCODING 1056
SWIDTH 1000 0
DWIDTH 16 0
BBX 12 11 2 1
BITMAP
FFC0
6060
6030
6060
7FC0
6000
6000
6000
6000
6000
F000
ENDCHAR
STARTCHAR U+0421
ENCODING 1057
SWIDTH 1000 0
DWIDTH 16 0
BBX 12 11 2 1
BITMAP
0F90
38F0
6030
6010
C000
C000
C000
6010
6030
38E0
0F80
ENDCHAR
STARTCHAR U+0422
ENCODING 1058
SWIDTH 1000 0
DWIDTH 16 0
BBX 12 11 2 1
BITMAP
FFF0
C630
8610
0600
0600
0600
0600
0600
0600
0600
0F00
ENDCHAR
STARTCHAR U+0423
ENCODING 1059
SWIDTH 1000 0
DWIDTH 16 0
BBX 13 10 2 1
BITMAP
F078
6030
3060
18C0
0D80
0700
0600
CC00
D800
7000
ENDCHAR
STARTCHAR U+0424
ENCODING 1060
SWIDTH 1000 0
DWIDTH 16 0
BBX 12 11 2 1
BITMAP
0F00
0600
3FC0
6660
C630
C630
C630
6660
3FC0
0600
0F00
ENDCHAR
STARTCHAR U+0425
ENCODING 1061
SWIDTH 1000 0
DWIDTH 16 0
BBX 14 11 1 1
BITMAP
F038
3020
1840
0C80
0700
0300
0580
08C0
1060
2030
E03C
ENDCHAR
STARTCHAR U+0426
ENCODING 1062
SWIDTH 1000 0
DWIDTH 16 0
BBX 13 11 1 0
BITMAP
F078
6030
6030
6030
6030
6030
6030
6030
6030
FFF0
0018
ENDCHAR
STARTCHAR U+0427
ENCODING 1063
SWIDTH 1000 0
DWIDTH 16 0
BBX 12 10 2 1
BITMAP
F0F0
6060
6060
6060
6060
3FE0
0060
0060
0060
00F0
ENDCHAR
STARTCHAR U+0428
ENCODING 1064
SWIDTH 1000 0
DWIDTH 16 0
BBX 14 10 1 1
BITMAP
F7BC
6318
6318
6318
6318
6318
6318
6318
6318
FFFC
ENDCHAR
STARTCHAR U+0429
ENCODING 1065
SWIDTH 1000 0
DWIDTH 16 0
BBX 14 11 1 0
BITMAP
F7BC
6318
6318
6318
6318
6318
6318
6318
6318
FFF8
000C
ENDCHAR
STARTCHAR U+042A
ENCODING 1066
SWIDTH 1000 0
DWIDTH 16 0
BBX 15 11 0 1
BITMAP
FE00
C600
8600
0600
0600
07F8
060C
0606
0606
060C
0FF8
ENDCHAR
STARTCHAR U+042B
ENCODING 1067
SWIDTH 1000 0
DWIDTH 16 0
BBX 14 11 1 1
BITMAP
F03C
6018
6018
6018
6018
7F18
6198
60D8
60D8
6198
FF3C
ENDCHAR
STARTCHAR U+042C
ENCODING 1068
SWIDTH 1000 0
DWIDTH 16 0
BBX 11 11 2 1
BITMAP
F000
6000
6000
6000
6000
7F80
60C0
6060
6060
60C0
FF80
ENDCHAR
STARTCHAR U+042D
ENCODING 1069
SWIDTH 1000 0
DWIDTH 16 0
BBX 12 11 2 1
BITMAP
9F00
F1C0
C060
8060
3830
4470
03B0
8060
C060
71C0
1F00
ENDCHAR
STARTCHAR U+042E
ENCODING 1070
SWIDTH 1000 0
DWIDTH 16 0
BBX 14 11 1 1
BITMAP
F1F0
6318
660C
660C
7E0C
660C
660C
660C
6318
61F0
F000
ENDCHAR
STARTCHAR U+042F
ENCODING 1071
SWIDTH 1000 0
DWIDTH 16 0
BBX 13 11 1 1
BITMAP
0FF8
1830
3030
3030
1C30
07F0
0C30
1830
1830
9830
7078
ENDCHAR
STARTCHAR U+0430
ENCODING 1072
SWIDTH 1000 0
DWIDTH 16 0
BBX 11 8 2 1
BITMAP
3F00
6180
0180
1F80
6180
C180
C380
7EE0
ENDCHAR
STARTCHAR U+0431
ENCODING 1073
SWIDTH 1000 0
DWIDTH 16 0
BBX 10 9 3 1
BITMAP
0040
0F80
3000
7F80
E0C0
C0C0
C0C0
C180
3E00
ENDCHAR
STARTCHAR U+0432
ENCODING 1074
SWIDTH 1000 0
DWIDTH 16 0
BBX 10 8 3 1
BITMAP
FF80
60C0
60C0
7F80
60C0
60C0
60C0
FF80
ENDCHAR
STARTCHAR U+0433
ENCODING 1075
SWIDTH 1000 0
DWIDTH 16 0
BBX 10 8 3 1
BITMAP
FFC0
60C0
6040
6000
6000
6000
6000
F000
ENDCHAR
STARTCHAR U+0434
ENCODING 1076
SWIDTH 1000 0
DWIDTH 16 0
BBX 12 8 1 1
BITMAP
1FF0
0460
0460
0460
0860
1060
3FE0
C030
ENDCHAR
STARTCHAR U+0435
ENCODING 1077
SWIDTH 1000 0
DWIDTH 16 0
BBX 10 8 3 1
BITMAP
3F00
6180
C0C0
FFC0
C000
C000
60C0
3F80
ENDCHAR
STARTCHAR U+0436
ENCODING 1078
SWIDTH 1000 0
DWIDTH 16 0
BBX 14 7 1 1
BITMAP
E79C
6318
3330
1FE0
3330
6318
E79C
ENDCHAR
STARTCHAR U+0437
ENCODING 1079
SWIDTH 1000 0
DWIDTH 16 0
BBX 11 9 3 1
BITMAP
1F00
7180
0180
0700
1CC0
0060
C060
F1C0
9F00
ENDCHAR
STARTCHAR U+0438
ENCODING 1080
SWIDTH 1000 0
DWIDTH 16 0
BBX 11 7 2 1
BITMAP
F1E0
61C0
62C0
64C0
68C0
70C0
F1E0
ENDCHAR
STARTCHAR U+0439
ENCODING 1081
SWIDTH 1000 0
DWIDTH 16 0
BBX 11 10 2 1
BITMAP
1100
0E00
0000
F1E0
61C0
62C0
64C0
68C0
70C0
F1E0
ENDCHAR
STARTCHAR U+043A
ENCODING 1082
SWIDTH 1000 0
DWIDTH 16 0
BBX 9 8 3 1
BITMAP
F380
6100
6200
6400
7800
6C00
6600
F380
ENDCHAR
STARTCHAR U+043B
ENCODING 1083
SWIDTH 1000 0
DWIDTH 16 0
BBX 11 8 2 1
BITMAP
0FE0
04C0
04C0
04C0
04C0
C4C0
C8C0
71E0
ENDCHAR
STARTCHAR U+043C
ENCODING 1084
SWIDTH 1000 0
DWIDTH 16 0
BBX 11 8 2 1
BITMAP
F1E0
71C0
71C0
6AC0
6EC0
64C0
60C0
F1E0
ENDCHAR
STARTCHAR U+043D
ENCODING 1085
SWIDTH 1000 0
DWIDTH 16 0
BBX 10 8 3 1
BITMAP
F3C0
6180
6180
7F80
6180
6180
6180
F3C0
ENDCHAR
STARTCHAR U+043E
ENCODING 1086
SWIDTH 1000 0
DWIDTH 16 0
BBX 9 8 3 1
BITMAP
3E00
6300
C180
C180
C180
C180
6300
3E00
ENDCHAR
STARTCHAR U+043F
ENCODING 1087
SWIDTH 1000 0
DWIDTH 16 0
BBX 11 8 2 1
BITMAP
FFE0
3180
3180
3180
3180
3180
3180
7BC0
ENDCHAR
STARTCHAR U+0440
ENCODING 1088
SWIDTH 1000 0
DWIDTH 16 0
BBX 9 8 3 1
BITMAP
FF00
6180
6180
7F00
6000
6000
6000
F000
ENDCHAR
STARTCHAR U+0441
ENCODING 1089
SWIDTH 1000 0
DWIDTH 16 0
BBX 9 8 3 1
BITMAP
1E80
7380
C080
C000
C000
C080
7380
1E00
ENDCHAR
STARTCHAR U+0442
ENCODING 1090
SWIDTH 1000 0
DWIDTH 16 0
BBX 10 8 3 1
BITMAP
FFC0
CCC0
8C40
0C00
0C00
0C00
0C00
1E00
ENDCHAR
STARTCHAR U+0443
ENCODING 1091
SWIDTH 1000 0
DWIDTH 16 0
BBX 12 7 2 1
BITMAP
E0F0
20C0
1180
0B00
0600
6C00
3800
ENDCHAR
STARTCHAR U+0444
ENCODING 1092
SWIDTH 1000 0
DWIDTH 16 0
BBX 10 8 3 1
BITMAP
7F80
1E00
6D80
CCC0
CCC0
6D80
1E00
7F80
ENDCHAR
STARTCHAR U+0445
ENCODING 1093
SWIDTH 1000 0
DWIDTH 16 0
BBX 12 8 2 1
BITMAP
F9F0
30C0
1980
0F00
0F00
1980
30C0
F9F0
ENDCHAR
STARTCHAR U+0446
ENCODING 1094
SWIDTH 1000 0
DWIDTH 16 0
BBX 11 9 2 0
BITMAP
F1E0
60C0
60C0
60C0
60C0
60C0
60C0
FFC0
0060
ENDCHAR
STARTCHAR U+0447
ENCODING 1095
SWIDTH 1000 0
DWIDTH 16 0
BBX 11 8 2 1
BITMAP
F1E0
60C0
60C0
60C0
3FC0
00C0
00C0
01E0
ENDCHAR
STARTCHAR U+0448
ENCODING 1096
SWIDTH 1000 0
DWIDTH 16 0
BBX 14 8 1 1
BITMAP
F7BC
6318
6318
6318
6318
6318
6318
FFFC
ENDCHAR
STARTCHAR U+0449
ENCODING 1097
SWIDTH 1000 0
DWIDTH 16 0
BBX 14 9 1 0
BITMAP
F7BC
6318
6318
6318
6318
6318
6318
FFF8
000C
ENDCHAR
STARTCHAR U+044A
ENCODING 1098
SWIDTH 1000 0
DWIDTH 16 0
BBX 13 8 1 1
BITMAP
FE00
C600
8600
07F0
0618
0618
0618
0FF0
ENDCHAR
STARTCHAR U+044B
ENCODING 1099
SWIDTH 1000 0
DWIDTH 16 0
BBX 14 8 1 1
BITMAP
F03C
6018
6018
7F18
6198
6198
6198
FF3C
ENDCHAR
STARTCHAR U+044C
ENCODING 1100
SWIDTH 1000 0
DWIDTH 16 0
BBX 9 8 3 1
BITMAP
F000
6000
6000
7F00
6180
6180
6180
FF00
ENDCHAR
STARTCHAR U+044D
ENCODING 1101
SWIDTH 1000 0
DWIDTH 16 0
BBX 10 8 3 1
BITMAP
3E00
C180
C0C0
31C0
4EC0
00C0
C180
3E00
ENDCHAR
STARTCHAR U+044E
ENCODING 1102
SWIDTH 1000 0
DWIDTH 16 0
BBX 13 8 1 1
BITMAP
F1E0
6330
6618
7E18
6618
6330
61E0
F000
ENDCHAR
STARTCHAR U+044F
ENCODING 1103
SWIDTH 1000 0
DWIDTH 16 0
BBX 12 8 1 1
BITMAP
0FF0
1860
1860
1860
0FE0
1860
9860
70F0
ENDCHAR
STARTCHAR U+0451
ENCODING 1105
SWIDTH 1000 0
DWIDTH 16 0
BBX 10 11 3 1
BITMAP
6300
6300
0000
3F00
6180
C0C0
FFC0
C000
C000
60C0
3F80
ENDCHAR
STARTCHAR U+2015
ENCODING 8213
SWIDTH 1000 0
DWIDTH 16 0
BBX 12 1 2 6
BITMAP
FFF0
ENDCHAR
STARTCHAR U+2018
ENCODING 8216
SWIDTH 1000 0
DWIDTH 16 0
BBX 3 5 6 7
BITMAP
20
40
E0
E0
40
ENDCHAR
STARTCHAR U+2019
ENCODING 8217
SWIDTH 1000 0
DWIDTH 16 0
BBX 3 5 6 7
BITMAP
40
E0
E0
40
80
ENDCHAR
STARTCHAR U+201C
ENCODING 8220
SWIDTH 1000 0
DWIDTH 16 0
BBX 8 5 4 7
BITMAP
21
42
E7
E7
42
ENDCHAR
STARTCHAR U+201D
ENCODING 8221
SWIDTH 1000 0
DWIDTH 16 0
BBX 8 5 4 7
BITMAP
42
E7
E7
42
84
ENDCHAR
STARTCHAR U+2020
ENCODING 8224
SWIDTH 1000 0
DWIDTH 16 0
BBX 9 11 2 1
BITMAP
0800
0800
0800
FF80
0800
0800
0800
0800
0800
0800
0800
ENDCHAR
STARTCHAR U+2021
ENCODING 8225
SWIDTH 1000 0
DWIDTH 16 0
BBX 7 11 3 1
BITMAP
10
10
FE
10
FE
10
10
10
10
10
10
ENDCHAR
STARTCHAR U+2022
ENCODING 8226
SWIDTH 500 0
DWIDTH 8 0
BBX 5 4 2 4
BITMAP
70
F8
F8
70
ENDCHAR
STARTCHAR U+2025
ENCODING 8229
SWIDTH 1000 0
DWIDTH 16 0
BBX 6 2 5 5
BITMAP
CC
CC
ENDCHAR
STARTCHAR U+2026
ENCODING 8230
SWIDTH 1000 0
DWIDTH 16 0
BBX 10 2 3 5
BITMAP
CCC0
CCC0
ENDCHAR
STARTCHAR U+2030
ENCODING 8240
SWIDTH 1000 0
DWIDTH 16 0
BBX 16 11 0 1
BITMAP
1820
2440
4480
4900
3200
0400
0986
1249
2451
4492
830C
ENDCHAR
STARTCHAR U+2032
ENCODING 8242
SWIDTH 1000 0
DWIDTH 16 0
BBX 4 3 2 8
BITMAP
30
60
C0
ENDCHAR
STARTCHAR U+2033
ENCODING 8243
SWIDTH 1000 0
DWIDTH 16 0
BBX 8 3 2 8
BITMAP
33
66
CC
ENDCHAR
STARTCHAR U+203B
ENCODING 8251
SWIDTH 1000 0
DWIDTH 16 0
BBX 10 10 3 1
BITMAP
8C40
4C80
2100
1200
CCC0
CCC0
1200
2100
4C80
8C40
ENDCHAR
STARTCHAR U+203C
ENCODING 8252
SWIDTH 500 0
DWIDTH 8 0
BBX 6 9 2 1
BITMAP
CC
CC
CC
CC
CC
CC
00
CC
CC
ENDCHAR
STARTCHAR U+2074
ENCODING 8308
SWIDTH 1000 0
DWIDTH 16 0
BBX 6 6 1 7
BITMAP
18
28
48
FC
08
08
ENDCHAR
STARTCHAR U+207F
ENCODING 8319
SWIDTH 500 0
DWIDTH 8 0
BBX 6 5 0 7
BITMAP
D8
6C
6C
6C
6C
ENDCHAR
STARTCHAR U+2081
ENCODING 8321
SWIDTH 1000 0
DWIDTH 16 0
BBX 3 6 2 -1
BITMAP
40
C0
40
40
40
E0
ENDCHAR
STARTCHAR U+2082
ENCODING 8322
SWIDTH 1000 0
DWIDTH 16 0
BBX 5 6 1 -1
BITMAP
70
88
10
20
40
F8
ENDCHAR
STARTCHAR U+2083
ENCODING 8323
SWIDTH 1000 0
DWIDTH 16 0
BBX 5 6 1 -1
BITMAP
70
88
30
08
88
70
ENDCHAR
STARTCHAR U+2084
ENCODING 8324
SWIDTH 1000 0
DWIDTH 16 0
BBX 6 6 1 -1
BITMAP
18
28
48
FC
08
08
ENDCHAR
STARTCHAR U+2103
ENCODING 8451
SWIDTH 1000 0
DWIDTH 16 0
BBX 13 12 1 1
BITMAP
6000
93E0
6630
0C18
0C00
0C00
0C00
0C00
0C00
0C18
0630
03E0
ENDCHAR
STARTCHAR U+2109
ENCODING 8457
SWIDTH 1000 0
DWIDTH 16 0
BBX 13 12 1 1
BITMAP
6000
9000
6000
1FF8
0C18
0C00
0C40
0FC0
0C40
0C00
0C00
1E00
ENDCHAR
STARTCHAR U+2113
ENCODING 8467
SWIDTH 1000 0
DWIDTH 16 0
BBX 7 9 4 2
BITMAP
18
24
24
24
24
24
28
32
DC
ENDCHAR
STARTCHAR U+2116
ENCODING 8470
SWIDTH 1000 0
DWIDTH 16 0
BBX 14 10 1 1
BITMAP
C300
6200
6200
5200
5200
4A60
4A90
4690
4690
C264
ENDCHAR
STARTCHAR U+2121
ENCODING 8481
SWIDTH 1000 0
DWIDTH 16 0
BBX 16 10 0 1
BITMAP
FE00
9200
1018
1008
1008
1188
1248
13C8
1208
39DD
ENDCHAR
STARTCHAR U+2122
ENCODING 8482
SWIDTH 1000 0
DWIDTH 16 0
BBX 15 10 1 1
BITMAP
FE88
92D8
10D8
10A8
10A8
1088
1088
1088
1088
388A
ENDCHAR
STARTCHAR U+2126
ENCODING 8486
SWIDTH 1000 0
DWIDTH 16 0
BBX 11 9 2 2
BITMAP
1F00
2080
4040
4040
4040
2080
1100
8A20
FBE0
ENDCHAR
STARTCHAR U+212B
ENCODING 8491
SWIDTH 1000 0
DWIDTH 16 0
BBX 9 12 3 1
BITMAP
1C00
2200
1C00
0800
1C00
3600
6300
C180
FF80
C180
C180
C180
ENDCHAR
STARTCHAR U+2153
ENCODING 8531
SWIDTH 1000 0
DWIDTH 16 0
BBX 14 14 2 -1
BITMAP
1000
3008
1010
1020
1040
1080
1178
3A84
0404
0838
1004
2004
4084
8078
ENDCHAR
STARTCHAR U+2154
ENCODING 8532
SWIDTH 1000 0
DWIDTH 16 0
BBX 15 14 1 -1
BITMAP
7800
8404
0408
0810
1020
2040
40BC
FD42
0202
041C
0802
1002
2042
403C
ENDCHAR
STARTCHAR U+215B
ENCODING 8539
SWIDTH 1000 0
DWIDTH 16 0
BBX 14 14 2 -1
BITMAP
1000
3008
1010
1020
1040
1080
1100
3AF8
0504
0904
10F8
2104
4104
80F8
ENDCHAR
STARTCHAR U+215C
ENCODING 8540
SWIDTH 1000 0
DWIDTH 16 0
BBX 14 14 2 -1
BITMAP
7800
8408
0410
7820
0440
8480
7900
02F8
0504
0904
10F8
2104
4104
80F8
ENDCHAR
STARTCHAR U+215D
ENCODING 8541
SWIDTH 1000 0
DWIDTH 16 0
BBX 14 14 2 -1
BITMAP
FC00
8008
F810
0420
0240
8480
7900
02F8
0504
0904
10F8
2104
4104
80F8
ENDCHAR
STARTCHAR U+215E
ENCODING 8542
SWIDTH 1000 0
DWIDTH 16 0
BBX 14 14 2 -1
BITMAP
FE00
8208
0210
0420
0840
1080
1100
12F8
0504
0904
10F8
2104
4104
80F8
ENDCHAR
STARTCHAR U+2160
ENCODING 8544
SWIDTH 1000 0
DWIDTH 16 0
BBX 5 13 5 -1
BITMAP
F8
20
20
20
20
20
20
20
20
20
20
20
F8
ENDCHAR
STARTCHAR U+2161
ENCODING 8545
SWIDTH 1000 0
DWIDTH 16 0
BBX 9 13 3 -1
BITMAP
FF80
2200
2200
2200
2200
2200
2200
2200
2200
2200
2200
2200
FF80
ENDCHAR
STARTCHAR U+2162
ENCODING 8546
SWIDTH 1000 0
DWIDTH 16 0
BBX 11 13 2 -1
BITMAP
FFE0
2480
2480
2480
2480
2480
2480
2480
2480
2480
2480
2480
FFE0
ENDCHAR
STARTCHAR U+2163
ENCODING 8547
SWIDTH 1000 0
DWIDTH 16 0
BBX 15 13 0 -1
BITMAP
FF0E
2404
2404
2208
2208
2208
2110
2110
2110
20A0
20A0
2040
F840
ENDCHAR
STARTCHAR U+2164
ENCODING 8548
SWIDTH 1000 0
DWIDTH 16 0
BBX 15 13 0 -1
BITMAP
F83E
2008
2008
1010
1010
0820
0820
0440
0440
0280
0280
0100
0100
ENDCHAR
STARTCHAR U+2165
ENCODING 8549
SWIDTH 1000 0
DWIDTH 16 0
BBX 15 13 0 -1
BITMAP
E1FE
4048
4048
2088
2088
2088
1108
1108
1108
0A08
0A08
0408
043E
ENDCHAR
STARTCHAR U+2166
ENCODING 8550
SWIDTH 1000 0
DWIDTH 16 0
BBX 15 13 0 -1
BITMAP
E3FE
4124
4124
4124
2224
2224
2224
2224
1424
1424
1424
0824
087E
ENDCHAR
STARTCHAR U+2167
ENCODING 8551
SWIDTH 1000 0
DWIDTH 16 0
BBX 15 13 0 -1
BITMAP
E3FE
4154
4154
4154
2254
2254
2254
2254
1454
1454
1454
0854
08FE
ENDCHAR
STARTCHAR U+2168
ENCODING 8552
SWIDTH 1000 0
DWIDTH 16 0
BBX 15 13 0 -1
BITMAP
FF1E
2404
2208
2110
2110
20A0
2040
20A0
2110
2110
2208
2404
FF1E
ENDCHAR
STARTCHAR U+2169
ENCODING 8553
SWIDTH 1000 0
DWIDTH 16 0
BBX 13 13 1 -1
BITMAP
F8F8
2020
1040
0880
0880
0500
0200
0500
0880
0880
1040
2020
F8F8
ENDCHAR
STARTCHAR U+2170
ENCODING 8560
SWIDTH 1000 0
DWIDTH 16 0
BBX 3 14 6 -1
BITMAP
40
40
00
00
40
C0
40
40
40
40
40
40
40
E0
ENDCHAR
STARTCHAR U+2171
ENCODING 8561
SWIDTH 1000 0
DWIDTH 16 0
BBX 8 14 3 -1
BITMAP
42
42
00
00
42
C6
42
42
42
42
42
42
42
E7
ENDCHAR
STARTCHAR U+2172
ENCODING 8562
SWIDTH 1000 0
DWIDTH 16 0
BBX 11 14 2 -1
BITMAP
4440
4440
0000
0000
4440
CCC0
4440
4440
4440
4440
4440
4440
4440
EEE0
ENDCHAR
STARTCHAR U+2173
ENCODING 8563
SWIDTH 1000 0
DWIDTH 16 0
BBX 13 14 1 -1
BITMAP
4000
4000
0000
0000
4E38
C410
4410
4220
4220
4220
4140
4140
4080
E080
ENDCHAR
STARTCHAR U+2174
ENCODING 8564
SWIDTH 1000 0
DWIDTH 16 0
BBX 11 10 2 -1
BITMAP
E0E0
4040
4040
2080
2080
1100
1100
0A00
0400
0400
ENDCHAR
STARTCHAR U+2175
ENCODING 8565
SWIDTH 1000 0
DWIDTH 16 0
BBX 13 14 1 -1
BITMAP
0010
0010
0000
0000
E390
4130
4110
2210
2210
2210
1410
1410
0810
0838
ENDCHAR
STARTCHAR U+2176
ENCODING 8566
SWIDTH 1000 0
DWIDTH 16 0
BBX 15 14 0 -1
BITMAP
0044
0044
0000
0000
EE44
44CC
4444
4444
4444
2844
2844
2844
1044
10EE
ENDCHAR
STARTCHAR U+2177
ENCODING 8567
SWIDTH 1000 0
DWIDTH 16 0
BBX 16 14 0 -1
BITMAP
0092
0092
0000
0000
EE92
45B6
4492
4492
4492
2892
2892
2892
1092
11FF
ENDCHAR
STARTCHAR U+2178
ENCODING 8568
SWIDTH 1000 0
DWIDTH 16 0
BBX 14 14 1 -1
BITMAP
4000
4000
0000
0000
471C
C208
4110
40A0
4040
4040
40A0
4110
4208
E71C
ENDCHAR
STARTCHAR U+2179
ENCODING 8569
SWIDTH 1000 0
DWIDTH 16 0
BBX 9 10 3 -1
BITMAP
E380
4100
2200
1400
0800
0800
1400
2200
4100
E380
ENDCHAR
STARTCHAR U+2190
ENCODING 8592
SWIDTH 500 0
DWIDTH 8 0
BBX 7 7 1 2
BITMAP
10
30
70
FE
70
30
10
ENDCHAR
STARTCHAR U+2191
ENCODING 8593
SWIDTH 500 0
DWIDTH 8 0
BBX 6 11 1 -1
BITMAP
30
78
FC
30
30
30
30
30
30
30
30
ENDCHAR
STARTCHAR U+2192
ENCODING 8594
SWIDTH 500 0
DWIDTH 8 0
BBX 7 7 0 2
BITMAP
10
18
1C
FE
1C
18
10
ENDCHAR
STARTCHAR U+2193
ENCODING 8595
SWIDTH 500 0
DWIDTH 8 0
BBX 6 12 1 1
BITMAP
30
30
30
30
30
30
30
30
30
FC
78
30
ENDCHAR
STARTCHAR U+2194
ENCODING 8596
SWIDTH 500 0
DWIDTH 8 0
BBX 8 5 0 3
BITMAP
24
66
FF
66
24
ENDCHAR
STARTCHAR U+2195
ENCODING 8597
SWIDTH 500 0
DWIDTH 8 0
BBX 6 9 1 1
BITMAP
30
78
FC
30
30
30
FC
78
30
ENDCHAR
STARTCHAR U+2196
ENCODING 8598
SWIDTH 1000 0
DWIDTH 16 0
BBX 11 11 0 1
BITMAP
E000
C000
A000
1000
0800
0400
0200
0100
0080
0040
0020
ENDCHAR
STARTCHAR U+2197
ENCODING 8599
SWIDTH 1000 0
DWIDTH 16 0
BBX 11 11 0 1
BITMAP
00E0
0060
00A0
0100
0200
0400
0800
1000
2000
4000
8000
ENDCHAR
STARTCHAR U+2198
ENCODING 8600
SWIDTH 1000 0
DWIDTH 16 0
BBX 11 11 0 1
BITMAP
8000
4000
2000
1000
0800
0400
0200
0100
00A0
0060
00E0
ENDCHAR
STARTCHAR U+2199
ENCODING 8601
SWIDTH 1000 0
DWIDTH 16 0
BBX 11 11 0 1
BITMAP
0020
0040
0080
0100
0200
0400
0800
1000
A000
C000
E000
ENDCHAR
STARTCHAR U+21A8
ENCODING 8616
SWIDTH 500 0
DWIDTH 8 0
BBX 6 10 1 0
BITMAP
30
78
FC
30
30
30
FC
78
30
FC
ENDCHAR
STARTCHAR U+21D2
ENCODING 8658
SWIDTH 1000 0
DWIDTH 16 0
BBX 12 11 2 1
BITMAP
0200
0100
0080
FFC0
0020
0010
0020
FFC0
0080
0100
0200
ENDCHAR
STARTCHAR U+21D4
ENCODING 8660
SWIDTH 1000 0
DWIDTH 16 0
BBX 14 9 1 2
BITMAP
0840
1020
3FF0
4008
8004
4008
3FF0
1020
0840
ENDCHAR
STARTCHAR U+2200
ENCODING 8704
SWIDTH 1000 0
DWIDTH 16 0
BBX 12 10 2 1
BITMAP
F070
3020
3020
1FC0
1840
0C80
0C80
0700
0700
0200
ENDCHAR
STARTCHAR U+2202
ENCODING 8706
SWIDTH 1000 0
DWIDTH 16 0
BBX 8 10 4 1
BITMAP
3C
46
83
03
1F
63
C3
C3
C6
78
ENDCHAR
STARTCHAR U+2203
ENCODING 8707
SWIDTH 1000 0
DWIDTH 16 0
BBX 9 10 3 1
BITMAP
FF80
0180
0180
0180
7F80
0180
0180
0180
0180
FF80
ENDCHAR
STARTCHAR U+2207
ENCODING 8711
SWIDTH 1000 0
DWIDTH 16 0
BBX 13 7 2 2
BITMAP
FFF8
4010
2020
1040
0880
0500
0200
ENDCHAR
STARTCHAR U+2208
ENCODING 8712
SWIDTH 1000 0
DWIDTH 16 0
BBX 10 7 3 2
BITMAP
1FC0
6000
8000
FFC0
8000
6000
1FC0
ENDCHAR
STARTCHAR U+220B
ENCODING 8715
SWIDTH 1000 0
DWIDTH 16 0
BBX 10 7 3 2
BITMAP
FE00
0180
0040
FFC0
0040
0180
FE00
ENDCHAR
STARTCHAR U+220F
ENCODING 8719
SWIDTH 1000 0
DWIDTH 16 0
BBX 12 11 2 1
BITMAP
FFF0
30C0
30C0
30C0
30C0
30C0
30C0
30C0
30C0
30C0
79E0
ENDCHAR
STARTCHAR U+2211
ENCODING 8721
SWIDTH 1000 0
DWIDTH 16 0
BBX 11 11 2 1
BITMAP
FFE0
6060
3020
1800
0C00
0600
0C00
1800
3020
6060
FFE0
ENDCHAR
STARTCHAR U+2219
ENCODING 8729
SWIDTH 500 0
DWIDTH 8 0
BBX 5 4 2 3
BITMAP
70
F8
F8
70
ENDCHAR
STARTCHAR U+221A
ENCODING 8730
SWIDTH 500 0
DWIDTH 8 0
BBX 5 13 0 1
BITMAP
18
18
18
18
18
18
18
98
D8
F8
38
18
08
ENDCHAR
STARTCHAR U+221D
ENCODING 8733
SWIDTH 1000 0
DWIDTH 16 0
BBX 12 7 1 2
BITMAP
38E0
4510
8200
8200
8200
4510
38E0
ENDCHAR
STARTCHAR U+221E
ENCODING 8734
SWIDTH 500 0
DWIDTH 8 0
BBX 8 4 0 3
BITMAP
7E
DB
DB
7E
ENDCHAR
STARTCHAR U+221F
ENCODING 8735
SWIDTH 500 0
DWIDTH 8 0
BBX 8 9 0 1
BITMAP
42
42
42
5A
FF
5A
66
42
42
ENDCHAR
STARTCHAR U+2220
ENCODING 8736
SWIDTH 1000 0
DWIDTH 16 0
BBX 10 8 3 2
BITMAP
0100
0200
0400
0800
1000
2000
4000
FFC0
ENDCHAR
STARTCHAR U+2225
ENCODING 8741
SWIDTH 1000 0
DWIDTH 16 0
BBX 6 12 5 0
BITMAP
CC
CC
CC
CC
CC
CC
CC
CC
CC
CC
CC
CC
ENDCHAR
STARTCHAR U+2227
ENCODING 8743
SWIDTH 1000 0
DWIDTH 16 0
BBX 13 7 1 2
BITMAP
0200
0500
0880
1040
2020
4010
8008
ENDCHAR
STARTCHAR U+2228
ENCODING 8744
SWIDTH 1000 0
DWIDTH 16 0
BBX 13 7 2 2
BITMAP
8008
4010
2020
1040
0880
0500
0200
ENDCHAR
STARTCHAR U+2229
ENCODING 8745
SWIDTH 500 0
DWIDTH 8 0
BBX 7 7 1 1
BITMAP
7C
EE
C6
C6
C6
C6
C6
ENDCHAR
STARTCHAR U+222A
ENCODING 8746
SWIDTH 1000 0
DWIDTH 16 0
BBX 11 8 2 2
BITMAP
8020
8020
8020
8020
8020
8020
60C0
1F00
ENDCHAR
STARTCHAR U+222B
ENCODING 8747
SWIDTH 1000 0
DWIDTH 16 0
BBX 10 12 3 0
BITMAP
0780
0CC0
0CC0
0C00
0C00
0C00
0C00
0C00
0C00
CC00
CC00
7800
ENDCHAR
STARTCHAR U+222C
ENCODING 8748
SWIDTH 1000 0
DWIDTH 16 0
BBX 14 12 1 0
BITMAP
0778
0CCC
0CCC
0CC0
0CC0
0CC0
0CC0
0CC0
0CC0
CCC0
CCC0
7B80
ENDCHAR
STARTCHAR U+222E
ENCODING 8750
SWIDTH 1000 0
DWIDTH 16 0
BBX 10 12 3 0
BITMAP
0780
0CC0
0CC0
0C00
3F00
6D80
6D80
3F00
0C00
CC00
CC00
7800
ENDCHAR
STARTCHAR U+2234
ENCODING 8756
SWIDTH 1000 0
DWIDTH 16 0
BBX 10 7 3 2
BITMAP
0C00
0C00
0000
0000
0000
C0C0
C0C0
ENDCHAR
STARTCHAR U+2235
ENCODING 8757
SWIDTH 1000 0
DWIDTH 16 0
BBX 8 8 4 2
BITMAP
C3
C3
00
00
00
00
18
18
ENDCHAR
STARTCHAR U+223C
ENCODING 8764
SWIDTH 1000 0
DWIDTH 16 0
BBX 13 4 1 4
BITMAP
3C00
6618
C330
01E0
ENDCHAR
STARTCHAR U+223D
ENCODING 8765
SWIDTH 1000 0
DWIDTH 16 0
BBX 13 7 1 2
BITMAP
30E0
4110
8208
8208
8208
4410
3860
ENDCHAR
STARTCHAR U+2248
ENCODING 8776
SWIDTH 500 0
DWIDTH 8 0
BBX 8 6 0 4
BITMAP
70
DB
0E
70
DB
0E
ENDCHAR
STARTCHAR U+2252
ENCODING 8786
SWIDTH 1000 0
DWIDTH 16 0
BBX 12 9 2 2
BITMAP
6000
6000
0000
FFF0
0000
FFF0
0000
0060
0060
ENDCHAR
STARTCHAR U+2260
ENCODING 8800
SWIDTH 1000 0
DWIDTH 16 0
BBX 12 9 2 2
BITMAP
4000
2000
1000
FFF0
0400
FFF0
0100
0080
0040
ENDCHAR
STARTCHAR U+2261
ENCODING 8801
SWIDTH 500 0
DWIDTH 8 0
BBX 8 9 0 1
BITMAP
FF
00
00
00
FF
00
00
00
FF
ENDCHAR
STARTCHAR U+2264
ENCODING 8804
SWIDTH 500 0
DWIDTH 8 0
BBX 6 9 1 1
BITMAP
18
30
60
C0
60
30
18
00
FC
ENDCHAR
STARTCHAR U+2265
ENCODING 8805
SWIDTH 500 0
DWIDTH 8 0
BBX 6 9 1 1
BITMAP
60
30
18
0C
18
30
60
00
FC
ENDCHAR
STARTCHAR U+226A
ENCODING 8810
SWIDTH 1000 0
DWIDTH 16 0
BBX 13 7 1 3
BITMAP
0318
0C60
3180
C600
3180
0C60
0318
ENDCHAR
STARTCHAR U+226B
ENCODING 8811
SWIDTH 1000 0
DWIDTH 16 0
BBX 13 7 1 3
BITMAP
C600
3180
0C60
0318
0C60
3180
C600
ENDCHAR
STARTCHAR U+2282
ENCODING 8834
SWIDTH 1000 0
DWIDTH 16 0
BBX 10 8 3 2
BITMAP
1FC0
6000
8000
8000
8000
8000
6000
1FC0
ENDCHAR
STARTCHAR U+2283
ENCODING 8835
SWIDTH 1000 0
DWIDTH 16 0
BBX 10 8 3 2
BITMAP
FE00
0180
0040
0040
0040
0040
0180
FE00
ENDCHAR
STARTCHAR U+2286
ENCODING 8838
SWIDTH 1000 0
DWIDTH 16 0
BBX 10 8 3 2
BITMAP
1FC0
6000
8000
8000
6000
1FC0
0000
FFC0
ENDCHAR
STARTCHAR U+2287
ENCODING 8839
SWIDTH 1000 0
DWIDTH 16 0
BBX 10 8 3 2
BITMAP
FE00
0180
0040
0040
0180
FE00
0000
FFC0
ENDCHAR
STARTCHAR U+2299
ENCODING 8857
SWIDTH 1000 0
DWIDTH 16 0
BBX 13 10 2 1
BITMAP
0F80
3060
4710
8F88
9FC8
9FC8
8F88
4710
3060
0F80
ENDCHAR
STARTCHAR U+22A5
ENCODING 8869
SWIDTH 1000 0
DWIDTH 16 0
BBX 11 8 2 2
BITMAP
0400
0400
0400
0400
0400
0400
0400
FFE0
ENDCHAR
STARTCHAR U+2302
ENCODING 8962
SWIDTH 500 0
DWIDTH 8 0
BBX 8 9 0 2
BITMAP
18
18
3C
3C
66
66
C3
FF
FF
ENDCHAR
STARTCHAR U+2312
ENCODING 8978
SWIDTH 1000 0
DWIDTH 16 0
BBX 10 3 3 4
BITMAP
1E00
6180
8040
ENDCHAR
STARTCHAR U+2320
ENCODING 8992
SWIDTH 500 0
DWIDTH 8 0
BBX 5 10 3 -2
BITMAP
70
D8
D8
C0
C0
C0
C0
C0
C0
C0
ENDCHAR
STARTCHAR U+2321
ENCODING 8993
SWIDTH 500 0
DWIDTH 8 0
BBX 5 10 0 4
BITMAP
18
18
18
18
18
18
18
18
D8
70
ENDCHAR
STARTCHAR U+2460
ENCODING 9312
SWIDTH 1000 0
DWIDTH 16 0
BBX 14 12 1 0
BITMAP
0FC0
3030
4108
4308
8104
8104
8104
8104
4108
4388
3030
0FC0
ENDCHAR
STARTCHAR U+2461
ENCODING 9313
SWIDTH 1000 0
DWIDTH 16 0
BBX 14 12 1 0
BITMAP
0FC0
3030
4788
4848
8844
8084
8304
8404
4808
4FC8
3030
0FC0
ENDCHAR
STARTCHAR U+2462
ENCODING 9314
SWIDTH 1000 0
DWIDTH 16 0
BBX 14 12 1 0
BITMAP
0FC0
3030
4788
4848
8044
8384
8044
8044
4848
4788
3030
0FC0
ENDCHAR
STARTCHAR U+2463
ENCODING 9315
SWIDTH 1000 0
DWIDTH 16 0
BBX 14 12 1 0
BITMAP
0FC0
3030
4088
4188
8284
8484
8884
9FE4
4088
4088
3030
0FC0
ENDCHAR
STARTCHAR U+2464
ENCODING 9316
SWIDTH 1000 0
DWIDTH 16 0
BBX 14 12 1 0
BITMAP
0FC0
3030
4FC8
4808
8804
8F84
8044
8024
4848
4788
3030
0FC0
ENDCHAR
STARTCHAR U+2465
ENCODING 9317
SWIDTH 1000 0
DWIDTH 16 0
BBX 14 12 1 0
BITMAP
0FC0
3030
4788
4848
8804
8B84
8C44
8844
4848
4788
3030
0FC0
ENDCHAR
STARTCHAR U+2466
ENCODING 9318
SWIDTH 1000 0
DWIDTH 16 0
BBX 14 12 1 0
BITMAP
0FC0
3030
4FC8
4848
8084
8084
8104
8104
4108
4108
3030
0FC0
ENDCHAR
STARTCHAR U+2467
ENCODING 9319
SWIDTH 1000 0
DWIDTH 16 0
BBX 14 12 1 0
BITMAP
0FC0
3030
4788
4848
8844
8784
8844
8844
4848
4788
3030
0FC0
ENDCHAR
STARTCHAR U+2468
ENCODING 9320
SWIDTH 1000 0
DWIDTH 16 0
BBX 14 12 1 0
BITMAP
0FC0
3030
4788
4848
8844
88C4
8744
8044
4848
4788
3030
0FC0
ENDCHAR
STARTCHAR U+2469
ENCODING 9321
SWIDTH 1000 0
DWIDTH 16 0
BBX 14 12 1 0
BITMAP
0FC0
3030
49C8
4A28
8A24
8A24
8A24
8A24
4A28
49C8
3030
0FC0
ENDCHAR
STARTCHAR U+246A
ENCODING 9322
SWIDTH 1000 0
DWIDTH 16 0
BBX 14 12 1 0
BITMAP
0FC0
3030
4888
4888
8884
8884
8884
8884
4888
4888
3030
0FC0
ENDCHAR
STARTCHAR U+246B
ENCODING 9323
SWIDTH 1000 0
DWIDTH 16 0
BBX 14 12 1 0
BITMAP
0FC0
3030
49C8
4A28
8A24
8864
8884
8904
4A08
4BE8
3030
0FC0
ENDCHAR
STARTCHAR U+246C
ENCODING 9324
SWIDTH 1000 0
DWIDTH 16 0
BBX 14 12 1 0
BITMAP
0FC0
3030
49C8
4A28
8824
88C4
8824
8824
4A28
49C8
3030
0FC0
ENDCHAR
STARTCHAR U+246D
ENCODING 9325
SWIDTH 1000 0
DWIDTH 16 0
BBX 14 12 1 0
BITMAP
0FC0
3030
48C8
4948
8944
8A44
8BE4
8844
4848
4848
3030
0FC0
ENDCHAR
STARTCHAR U+246E
ENCODING 9326
SWIDTH 1000 0
DWIDTH 16 0
BBX 14 12 1 0
BITMAP
0FC0
3030
4BE8
4A08
8A04
8BC4
8824
8824
4A28
49C8
3030
0FC0
ENDCHAR
STARTCHAR U+2474
ENCODING 9332
SWIDTH 1000 0
DWIDTH 16 0
BBX 14 10 1 1
BITMAP
2010
4108
4308
8104
8104
8104
8104
4108
4388
2010
ENDCHAR
STARTCHAR U+2475
ENCODING 9333
SWIDTH 1000 0
DWIDTH 16 0
BBX 14 10 1 1
BITMAP
2010
4788
4848
8844
8084
8304
8404
4808
4FC8
2010
ENDCHAR
STARTCHAR U+2476
ENCODING 9334
SWIDTH 1000 0
DWIDTH 16 0
BBX 14 10 1 1
BITMAP
2010
4788
4848
8044
8384
8044
8044
4848
4788
2010
ENDCHAR
STARTCHAR U+2477
ENCODING 9335
SWIDTH 1000 0
DWIDTH 16 0
BBX 14 10 1 1
BITMAP
2010
4088
4188
8284
8484
8884
8FE4
4088
4088
2010
ENDCHAR
STARTCHAR U+2478
ENCODING 9336
SWIDTH 1000 0
DWIDTH 16 0
BBX 14 10 1 1
BITMAP
2010
4FC8
4808
8804
8F84
8044
8024
4848
4788
2010
ENDCHAR
STARTCHAR U+2479
ENCODING 9337
SWIDTH 1000 0
DWIDTH 16 0
BBX 14 10 1 1
BITMAP
2010
4788
4848
8804
8B84
8C44
8844
4848
4788
2010
ENDCHAR
STARTCHAR U+247A
ENCODING 9338
SWIDTH 1000 0
DWIDTH 16 0
BBX 14 10 1 1
BITMAP
2010
4FC8
4848
8084
8084
8104
8104
4108
4108
2010
ENDCHAR
STARTCHAR U+247B
ENCODING 9339
SWIDTH 1000 0
DWIDTH 16 0
BBX 14 10 1 1
BITMAP
2010
4788
4848
8844
8784
8844
8844
4848
4788
2010
ENDCHAR
STARTCHAR U+247C
ENCODING 9340
SWIDTH 1000 0
DWIDTH 16 0
BBX 14 10 1 1
BITMAP
2010
4788
4848
8844
88C4
8744
8044
4848
4788
2010
ENDCHAR
STARTCHAR U+247D
ENCODING 9341
SWIDTH 1000 0
DWIDTH 16 0
BBX 14 10 1 1
BITMAP
2010
49C8
4A28
8A24
8A24
8A24
8A24
4A28
49C8
2010
ENDCHAR
STARTCHAR U+247E
ENCODING 9342
SWIDTH 1000 0
DWIDTH 16 0
BBX 14 10 1 1
BITMAP
2010
4888
4888
8884
8884
8884
8884
4888
4888
2010
ENDCHAR
STARTCHAR U+247F
ENCODING 9343
SWIDTH 1000 0
DWIDTH 16 0
BBX 14 10 1 1
BITMAP
2010
49C8
4A28
8A24
8844
8884
8904
4A08
4BE8
2010
ENDCHAR
STARTCHAR U+2480
ENCODING 9344
SWIDTH 1000 0
DWIDTH 16 0
BBX 14 10 1 1
BITMAP
2010
49C8
4A28
8824
88C4
8824
8824
4A28
49C8
2010
ENDCHAR
STARTCHAR U+2481
ENCODING 9345
SWIDTH 1000 0
DWIDTH 16 0
BBX 14 10 1 1
BITMAP
2010
48C8
4948
8944
8A44
8A44
8BE4
4848
4848
2010
ENDCHAR
STARTCHAR U+2482
ENCODING 9346
SWIDTH 1000 0
DWIDTH 16 0
BBX 14 10 1 1
BITMAP
2010
4BE8
4A08
8A04
8BC4
8824
8824
4A28
49C8
2010
ENDCHAR
STARTCHAR U+249C
ENCODING 9372
SWIDTH 1000 0
DWIDTH 16 0
BBX 14 10 1 1
BITMAP
2010
4008
4008
8784
8844
87C4
8844
4848
47A8
2010
ENDCHAR
STARTCHAR U+249D
ENCODING 9373
SWIDTH 1000 0
DWIDTH 16 0
BBX 14 10 1 1
BITMAP
2010
4808
4808
8804
8F84
8844
8844
4848
4F88
2010
ENDCHAR
STARTCHAR U+249E
ENCODING 9374
SWIDTH 1000 0
DWIDTH 16 0
BBX 14 10 1 1
BITMAP
2010
4008
4008
8784
8844
8804
8804
4848
4788
2010
ENDCHAR
STARTCHAR U+249F
ENCODING 9375
SWIDTH 1000 0
DWIDTH 16 0
BBX 14 10 1 1
BITMAP
2010
4048
4048
8044
87C4
8844
8844
4848
47C8
2010
ENDCHAR
STARTCHAR U+24A0
ENCODING 9376
SWIDTH 1000 0
DWIDTH 16 0
BBX 14 10 1 1
BITMAP
2010
4008
4008
8784
8844
8FC4
8804
4848
4788
2010
ENDCHAR
STARTCHAR U+24A1
ENCODING 9377
SWIDTH 1000 0
DWIDTH 16 0
BBX 14 10 1 1
BITMAP
2010
4188
4208
8204
8F84
8204
8204
4208
4208
2010
ENDCHAR
STARTCHAR U+24A2
ENCODING 9378
SWIDTH 1000 0
DWIDTH 16 0
BBX 14 10 1 1
BITMAP
2010
4008
4788
8844
8844
87C4
8044
4848
4788
2010
ENDCHAR
STARTCHAR U+24A3
ENCODING 9379
SWIDTH 1000 0
DWIDTH 16 0
BBX 14 10 1 1
BITMAP
2010
4808
4808
8804
8B84
8C44
8844
4848
4848
2010
ENDCHAR
STARTCHAR U+24A4
ENCODING 9380
SWIDTH 1000 0
DWIDTH 16 0
BBX 14 10 1 1
BITMAP
2010
4008
4308
8004
8304
8104
8104
4108
4388
2010
ENDCHAR
STARTCHAR U+24A5
ENCODING 9381
SWIDTH 1000 0
DWIDTH 16 0
BBX 14 10 1 1
BITMAP
2010
4008
4188
8004
8184
8084
8084
4088
4888
2710
ENDCHAR
STARTCHAR U+24A6
ENCODING 9382
SWIDTH 1000 0
DWIDTH 16 0
BBX 14 10 1 1
BITMAP
2010
4008
4808
8804
8884
8904
8E04
4908
48C8
2010
ENDCHAR
STARTCHAR U+24A7
ENCODING 9383
SWIDTH 1000 0
DWIDTH 16 0
BBX 13 10 1 1
BITMAP
2020
4010
4610
8208
8208
8208
8208
4210
4710
2020
ENDCHAR
STARTCHAR U+24A8
ENCODING 9384
SWIDTH 1000 0
DWIDTH 16 0
BBX 14 10 1 1
BITMAP
2010
4008
4008
9EC4
8924
8924
8924
4928
4928
2010
ENDCHAR
STARTCHAR U+24A9
ENCODING 9385
SWIDTH 1000 0
DWIDTH 16 0
BBX 14 10 1 1
BITMAP
2010
4008
4008
9B84
8C44
8844
8844
4848
4848
2010
ENDCHAR
STARTCHAR U+24AA
ENCODING 9386
SWIDTH 1000 0
DWIDTH 16 0
BBX 14 10 1 1
BITMAP
2010
4008
4008
8784
8844
9024
9024
4848
4788
2010
ENDCHAR
STARTCHAR U+24AB
ENCODING 9387
SWIDTH 1000 0
DWIDTH 16 0
BBX 14 10 1 1
BITMAP
2010
4008
4008
8FC4
8824
8824
8FC4
4808
4808
2810
ENDCHAR
STARTCHAR U+24AC
ENCODING 9388
SWIDTH 1000 0
DWIDTH 16 0
BBX 14 10 1 1
BITMAP
2010
4008
4008
8FC4
9044
9044
8FC4
4048
4048
2050
ENDCHAR
STARTCHAR U+24AD
ENCODING 9389
SWIDTH 1000 0
DWIDTH 16 0
BBX 14 10 1 1
BITMAP
2010
4008
4008
85C4
8624
8404
8404
4408
4408
2010
ENDCHAR
STARTCHAR U+24AE
ENCODING 9390
SWIDTH 1000 0
DWIDTH 16 0
BBX 14 10 1 1
BITMAP
2010
4008
4788
8844
8804
8784
8044
4848
4788
2010
ENDCHAR
STARTCHAR U+24AF
ENCODING 9391
SWIDTH 1000 0
DWIDTH 16 0
BBX 14 10 1 1
BITMAP
2010
4408
4408
9F84
8404
8404
8404
4448
4388
2010
ENDCHAR
STARTCHAR U+24B0
ENCODING 9392
SWIDTH 1000 0
DWIDTH 16 0
BBX 14 10 1 1
BITMAP
2010
4008
4008
8844
8844
8844
8844
4848
47C8
2010
ENDCHAR
STARTCHAR U+24B1
ENCODING 9393
SWIDTH 1000 0
DWIDTH 16 0
BBX 14 10 1 1
BITMAP
2010
4008
4008
8004
8844
8844
8484
4488
4308
2010
ENDCHAR
STARTCHAR U+24B2
ENCODING 9394
SWIDTH 1000 0
DWIDTH 16 0
BBX 14 10 1 1
BITMAP
2010
4008
4008
9024
9024
9324
9324
4CC8
4848
2010
ENDCHAR
STARTCHAR U+24B3
ENCODING 9395
SWIDTH 1000 0
DWIDTH 16 0
BBX 14 10 1 1
BITMAP
2010
4008
4008
8844
8484
8304
8484
4848
4008
2010
ENDCHAR
STARTCHAR U+24B4
ENCODING 9396
SWIDTH 1000 0
DWIDTH 16 0
BBX 14 10 1 1
BITMAP
2010
4008
4008
8824
8824
8444
8284
4108
4208
2C10
ENDCHAR
STARTCHAR U+24B5
ENCODING 9397
SWIDTH 1000 0
DWIDTH 16 0
BBX 14 10 1 1
BITMAP
2010
4008
4008
8FC4
8084
8104
8204
4408
4FC8
2010
ENDCHAR
STARTCHAR U+24D0
ENCODING 9424
SWIDTH 1000 0
DWIDTH 16 0
BBX 14 12 1 0
BITMAP
0FC0
3030
4008
4008
8784
8844
87C4
8844
4848
47A8
3030
0FC0
ENDCHAR
STARTCHAR U+24D1
ENCODING 9425
SWIDTH 1000 0
DWIDTH 16 0
BBX 14 12 1 0
BITMAP
0FC0
3030
4808
4808
8804
8F84
8844
8844
4848
4F88
3030
0FC0
ENDCHAR
STARTCHAR U+24D2
ENCODING 9426
SWIDTH 1000 0
DWIDTH 16 0
BBX 14 12 1 0
BITMAP
0FC0
3030
4008
4008
8784
8844
8804
8804
4848
4788
3030
0FC0
ENDCHAR
STARTCHAR U+24D3
ENCODING 9427
SWIDTH 1000 0
DWIDTH 16 0
BBX 14 12 1 0
BITMAP
0FC0
3030
4048
4048
8044
87C4
8844
8844
4848
47C8
3030
0FC0
ENDCHAR
STARTCHAR U+24D4
ENCODING 9428
SWIDTH 1000 0
DWIDTH 16 0
BBX 14 12 1 0
BITMAP
0FC0
3030
4008
4008
8784
8844
8FC4
8804
4848
4788
3030
0FC0
ENDCHAR
STARTCHAR U+24D5
ENCODING 9429
SWIDTH 1000 0
DWIDTH 16 0
BBX 14 12 1 0
BITMAP
0FC0
3030
4188
4208
8204
8F84
8204
8204
4208
4208
3030
0FC0
ENDCHAR
STARTCHAR U+24D6
ENCODING 9430
SWIDTH 1000 0
DWIDTH 16 0
BBX 14 12 1 0
BITMAP
0FC0
3030
4008
4788
8844
8844
87C4
8044
4848
4788
3030
0FC0
ENDCHAR
STARTCHAR U+24D7
ENCODING 9431
SWIDTH 1000 0
DWIDTH 16 0
BBX 14 12 1 0
BITMAP
0FC0
3030
4808
4808
8804
8B84
8C44
8844
4848
4848
3030
0FC0
ENDCHAR
STARTCHAR U+24D8
ENCODING 9432
SWIDTH 1000 0
DWIDTH 16 0
BBX 14 12 1 0
BITMAP
0FC0
3030
4008
4308
8004
8304
8104
8104
4108
4388
3030
0FC0
ENDCHAR
STARTCHAR U+24D9
ENCODING 9433
SWIDTH 1000 0
DWIDTH 16 0
BBX 14 12 1 0
BITMAP
0FC0
3030
4008
4188
8004
8184
8084
8084
4888
4708
3030
0FC0
ENDCHAR
STARTCHAR U+24DA
ENCODING 9434
SWIDTH 1000 0
DWIDTH 16 0
BBX 14 12 1 0
BITMAP
0FC0
3030
4008
4808
8804
8884
8904
8E04
4908
48C8
3030
0FC0
ENDCHAR
STARTCHAR U+24DB
ENCODING 9435
SWIDTH 1000 0
DWIDTH 16 0
BBX 14 12 1 0
BITMAP
0FC0
3030
4008
4608
8204
8204
8204
8204
4208
4708
3030
0FC0
ENDCHAR
STARTCHAR U+24DC
ENCODING 9436
SWIDTH 1000 0
DWIDTH 16 0
BBX 14 12 1 0
BITMAP
0FC0
3030
4008
4008
9EC4
8924
8924
8924
4928
4008
3830
0FC0
ENDCHAR
STARTCHAR U+24DD
ENCODING 9437
SWIDTH 1000 0
DWIDTH 16 0
BBX 14 12 1 0
BITMAP
0FC0
3030
4008
4008
9B84
8C44
8844
8844
4848
4008
3030
0FC0
ENDCHAR
STARTCHAR U+24DE
ENCODING 9438
SWIDTH 1000 0
DWIDTH 16 0
BBX 14 12 1 0
BITMAP
0FC0
3030
4008
4008
8784
8844
9024
9024
4848
4788
3030
0FC0
ENDCHAR
STARTCHAR U+24DF
ENCODING 9439
SWIDTH 1000 0
DWIDTH 16 0
BBX 14 12 1 0
BITMAP
0FC0
3030
4008
4008
8FC4
8824
8824
8FC4
4808
4808
3830
0FC0
ENDCHAR
STARTCHAR U+24E0
ENCODING 9440
SWIDTH 1000 0
DWIDTH 16 0
BBX 14 12 1 0
BITMAP
0FC0
3030
4008
4008
8FC4
9044
9044
8FC4
4048
4048
3070
0FC0
ENDCHAR
STARTCHAR U+24E1
ENCODING 9441
SWIDTH 1000 0
DWIDTH 16 0
BBX 14 12 1 0
BITMAP
0FC0
3030
4008
4008
85C4
8624
8404
8404
4408
4408
3030
0FC0
ENDCHAR
STARTCHAR U+24E2
ENCODING 9442
SWIDTH 1000 0
DWIDTH 16 0
BBX 14 12 1 0
BITMAP
0FC0
3030
4008
4788
8844
8804
8784
8044
4848
4788
3030
0FC0
ENDCHAR
STARTCHAR U+24E3
ENCODING 9443
SWIDTH 1000 0
DWIDTH 16 0
BBX 14 12 1 0
BITMAP
0FC0
3030
4408
4408
9F84
8404
8404
8404
4448
4388
3030
0FC0
ENDCHAR
STARTCHAR U+24E4
ENCODING 9444
SWIDTH 1000 0
DWIDTH 16 0
BBX 14 12 1 0
BITMAP
0FC0
3030
4008
4008
8844
8844
8844
8844
4848
47C8
3030
0FC0
ENDCHAR
STARTCHAR U+24E5
ENCODING 9445
SWIDTH 1000 0
DWIDTH 16 0
BBX 14 12 1 0
BITMAP
0FC0
3030
4008
4008
8004
8844
8844
8484
4488
4308
3030
0FC0
ENDCHAR
STARTCHAR U+24E6
ENCODING 9446
SWIDTH 1000 0
DWIDTH 16 0
BBX 14 12 1 0
BITMAP
0FC0
3030
4008
4008
9024
9024
9324
9324
4CC8
4848
3030
0FC0
ENDCHAR
STARTCHAR U+24E7
ENCODING 9447
SWIDTH 1000 0
DWIDTH 16 0
BBX 14 12 1 0
BITMAP
0FC0
3030
4008
4008
8844
8484
8304
8484
4848
4008
3030
0FC0
ENDCHAR
STARTCHAR U+24E8
ENCODING 9448
SWIDTH 1000 0
DWIDTH 16 0
BBX 14 12 1 0
BITMAP
0FC0
3030
4008
4008
8824
8824
8444
8284
4108
4208
3C30
0FC0
ENDCHAR
STARTCHAR U+24E9
ENCODING 9449
SWIDTH 1000 0
DWIDTH 16 0
BBX 14 12 1 0
BITMAP
0FC0
3030
4008
4008
8FC4
8084
8104
8204
4408
4FC8
3030
0FC0
ENDCHAR
STARTCHAR U+2500
ENCODING 9472
SWIDTH 500 0
DWIDTH 8 0
BBX 8 1 0 5
BITMAP
FF
ENDCHAR
STARTCHAR U+2501
ENCODING 9473
SWIDTH 1000 0
DWIDTH 16 0
BBX 16 4 0 4
BITMAP
FFFF
FFFF
FFFF
FFFF
ENDCHAR
STARTCHAR U+2502
ENCODING 9474
SWIDTH 500 0
DWIDTH 8 0
BBX 2 16 3 -2
BITMAP
C0
C0
C0
C0
C0
C0
C0
C0
C0
C0
C0
C0
C0
C0
C0
C0
ENDCHAR
STARTCHAR U+2503
ENCODING 9475
SWIDTH 1000 0
DWIDTH 16 0
BBX 4 16 6 -2
BITMAP
F0
F0
F0
F0
F0
F0
F0
F0
F0
F0
F0
F0
F0
F0
F0
F0
ENDCHAR
STARTCHAR U+250C
ENCODING 9484
SWIDTH 500 0
DWIDTH 8 0
BBX 5 8 3 -2
BITMAP
F8
C0
C0
C0
C0
C0
C0
C0
ENDCHAR
STARTCHAR U+250D
ENCODING 9485
SWIDTH 1000 0
DWIDTH 16 0
BBX 9 10 7 -2
BITMAP
FF80
FF80
FF80
FF80
C000
C000
C000
C000
C000
C000
ENDCHAR
STARTCHAR U+250E
ENCODING 9486
SWIDTH 1000 0
DWIDTH 16 0
BBX 10 9 6 -2
BITMAP
FFC0
FFC0
F000
F000
F000
F000
F000
F000
F000
ENDCHAR
STARTCHAR U+250F
ENCODING 9487
SWIDTH 1000 0
DWIDTH 16 0
BBX 10 10 6 -2
BITMAP
FFC0
FFC0
FFC0
FFC0
F000
F000
F000
F000
F000
F000
ENDCHAR
STARTCHAR U+2510
ENCODING 9488
SWIDTH 500 0
DWIDTH 8 0
BBX 5 8 0 -2
BITMAP
F8
18
18
18
18
18
18
18
ENDCHAR
STARTCHAR U+2511
ENCODING 9489
SWIDTH 1000 0
DWIDTH 16 0
BBX 9 10 0 -2
BITMAP
FF80
FF80
FF80
FF80
0180
0180
0180
0180
0180
0180
ENDCHAR
STARTCHAR U+2512
ENCODING 9490
SWIDTH 1000 0
DWIDTH 16 0
BBX 10 9 0 -2
BITMAP
FFC0
FFC0
03C0
03C0
03C0
03C0
03C0
03C0
03C0
ENDCHAR
STARTCHAR U+2513
ENCODING 9491
SWIDTH 1000 0
DWIDTH 16 0
BBX 10 10 0 -2
BITMAP
FFC0
FFC0
FFC0
FFC0
03C0
03C0
03C0
03C0
03C0
03C0
ENDCHAR
STARTCHAR U+2514
ENCODING 9492
SWIDTH 500 0
DWIDTH 8 0
BBX 5 9 3 5
BITMAP
C0
C0
C0
C0
C0
C0
C0
C0
F8
ENDCHAR
STARTCHAR U+2515
ENCODING 9493
SWIDTH 1000 0
DWIDTH 16 0
BBX 9 10 7 4
BITMAP
C000
C000
C000
C000
C000
C000
FF80
FF80
FF80
FF80
ENDCHAR
STARTCHAR U+2516
ENCODING 9494
SWIDTH 1000 0
DWIDTH 16 0
BBX 10 9 6 5
BITMAP
F000
F000
F000
F000
F000
F000
F000
FFC0
FFC0
ENDCHAR
STARTCHAR U+2517
ENCODING 9495
SWIDTH 1000 0
DWIDTH 16 0
BBX 10 10 6 4
BITMAP
F000
F000
F000
F000
F000
F000
FFC0
FFC0
FFC0
FFC0
ENDCHAR
STARTCHAR U+2518
ENCODING 9496
SWIDTH 500 0
DWIDTH 8 0
BBX 5 9 0 5
BITMAP
18
18
18
18
18
18
18
18
F8
ENDCHAR
STARTCHAR U+2519
ENCODING 9497
SWIDTH 1000 0
DWIDTH 16 0
BBX 9 10 0 4
BITMAP
0180
0180
0180
0180
0180
0180
FF80
FF80
FF80
FF80
ENDCHAR
STARTCHAR U+251A
ENCODING 9498
SWIDTH 1000 0
DWIDTH 16 0
BBX 10 9 0 5
BITMAP
03C0
03C0
03C0
03C0
03C0
03C0
03C0
FFC0
FFC0
ENDCHAR
STARTCHAR U+251B
ENCODING 9499
SWIDTH 1000 0
DWIDTH 16 0
BBX 10 10 0 4
BITMAP
03C0
03C0
03C0
03C0
03C0
03C0
FFC0
FFC0
FFC0
FFC0
ENDCHAR
STARTCHAR U+251C
ENCODING 9500
SWIDTH 500 0
DWIDTH 8 0
BBX 5 16 3 -2
BITMAP
C0
C0
C0
C0
C0
C0
C0
C0
F8
C0
C0
C0
C0
C0
C0
C0
ENDCHAR
STARTCHAR U+251D
ENCODING 9501
SWIDTH 1000 0
DWIDTH 16 0
BBX 9 16 7 -2
BITMAP
C000
C000
C000
C000
C000
C000
FF80
FF80
FF80
FF80
C000
C000
C000
C000
C000
C000
ENDCHAR
STARTCHAR U+251E
ENCODING 9502
SWIDTH 1000 0
DWIDTH 16 0
BBX 10 16 6 -2
BITMAP
F000
F000
F000
F000
F000
F000
F000
7FC0
7FC0
6000
6000
6000
6000
6000
6000
6000
ENDCHAR
STARTCHAR U+251F
ENCODING 9503
SWIDTH 1000 0
DWIDTH 16 0
BBX 10 16 6 -2
BITMAP
6000
6000
6000
6000
6000
6000
6000
7FC0
7FC0
F000
F000
F000
F000
F000
F000
F000
ENDCHAR
STARTCHAR U+2520
ENCODING 9504
SWIDTH 1000 0
DWIDTH 16 0
BBX 10 16 6 -2
BITMAP
F000
F000
F000
F000
F000
F000
F000
FFC0
FFC0
F000
F000
F000
F000
F000
F000
F000
ENDCHAR
STARTCHAR U+2521
ENCODING 9505
SWIDTH 1000 0
DWIDTH 16 0
BBX 10 16 6 -2
BITMAP
F000
F000
F000
F000
F000
F000
FFC0
FFC0
FFC0
FFC0
6000
6000
6000
6000
6000
6000
ENDCHAR
STARTCHAR U+2522
ENCODING 9506
SWIDTH 1000 0
DWIDTH 16 0
BBX 10 16 6 -2
BITMAP
6000
6000
6000
6000
6000
6000
FFC0
FFC0
FFC0
FFC0
F000
F000
F000
F000
F000
F000
ENDCHAR
STARTCHAR U+2523
ENCODING 9507
SWIDTH 1000 0
DWIDTH 16 0
BBX 10 16 6 -2
BITMAP
F000
F000
F000
F000
F000
F000
FFC0
FFC0
FFC0
FFC0
F000
F000
F000
F000
F000
F000
ENDCHAR
STARTCHAR U+2524
ENCODING 9508
SWIDTH 500 0
DWIDTH 8 0
BBX 5 16 0 -2
BITMAP
18
18
18
18
18
18
18
18
F8
18
18
18
18
18
18
18
ENDCHAR
STARTCHAR U+2525
ENCODING 9509
SWIDTH 1000 0
DWIDTH 16 0
BBX 9 16 0 -2
BITMAP
0180
0180
0180
0180
0180
0180
FF80
FF80
FF80
FF80
0180
0180
0180
0180
0180
0180
ENDCHAR
STARTCHAR U+2526
ENCODING 9510
SWIDTH 1000 0
DWIDTH 16 0
BBX 10 16 0 -2
BITMAP
03C0
03C0
03C0
03C0
03C0
03C0
03C0
FF80
FF80
0180
0180
0180
0180
0180
0180
0180
ENDCHAR
STARTCHAR U+2527
ENCODING 9511
SWIDTH 1000 0
DWIDTH 16 0
BBX 10 16 0 -2
BITMAP
0180
0180
0180
0180
0180
0180
0180
FF80
FF80
03C0
03C0
03C0
03C0
03C0
03C0
03C0
ENDCHAR
STARTCHAR U+2528
ENCODING 9512
SWIDTH 1000 0
DWIDTH 16 0
BBX 10 16 0 -2
BITMAP
03C0
03C0
03C0
03C0
03C0
03C0
03C0
FFC0
FFC0
03C0
03C0
03C0
03C0
03C0
03C0
03C0
ENDCHAR
STARTCHAR U+2529
ENCODING 9513
SWIDTH 1000 0
DWIDTH 16 0
BBX 10 16 0 -2
BITMAP
03C0
03C0
03C0
03C0
03C0
03C0
FFC0
FFC0
FFC0
FFC0
0180
0180
0180
0180
0180
0180
ENDCHAR
STARTCHAR U+252A
ENCODING 9514
SWIDTH 1000 0
DWIDTH 16 0
BBX 10 16 0 -2
BITMAP
0180
0180
0180
0180
0180
0180
FFC0
FFC0
FFC0
FFC0
03C0
03C0
03C0
03C0
03C0
03C0
ENDCHAR
STARTCHAR U+252B
ENCODING 9515
SWIDTH 1000 0
DWIDTH 16 0
BBX 10 16 0 -2
BITMAP
03C0
03C0
03C0
03C0
03C0
03C0
FFC0
FFC0
FFC0
FFC0
03C0
03C0
03C0
03C0
03C0
03C0
ENDCHAR
STARTCHAR U+252C
ENCODING 9516
SWIDTH 500 0
DWIDTH 8 0
BBX 8 8 0 -2
BITMAP
FF
18
18
18
18
18
18
18
ENDCHAR
STARTCHAR U+252D
ENCODING 9517
SWIDTH 1000 0
DWIDTH 16 0
BBX 16 10 0 -2
BITMAP
FE00
FFFF
FFFF
FF80
0180
0180
0180
0180
0180
0180
ENDCHAR
STARTCHAR U+252E
ENCODING 9518
SWIDTH 1000 0
DWIDTH 16 0
BBX 16 10 0 -2
BITMAP
007F
FFFF
FFFF
01FF
0180
0180
0180
0180
0180
0180
ENDCHAR
STARTCHAR U+252F
ENCODING 9519
SWIDTH 1000 0
DWIDTH 16 0
BBX 16 10 0 -2
BITMAP
FFFF
FFFF
FFFF
FFFF
0180
0180
0180
0180
0180
0180
ENDCHAR
STARTCHAR U+2530
ENCODING 9520
SWIDTH 1000 0
DWIDTH 16 0
BBX 16 9 0 -2
BITMAP
FFFF
FFFF
03C0
03C0
03C0
03C0
03C0
03C0
03C0
ENDCHAR
STARTCHAR U+2531
ENCODING 9521
SWIDTH 1000 0
DWIDTH 16 0
BBX 16 10 0 -2
BITMAP
FFC0
FFFF
FFFF
FFC0
03C0
03C0
03C0
03C0
03C0
03C0
ENDCHAR
STARTCHAR U+2532
ENCODING 9522
SWIDTH 1000 0
DWIDTH 16 0
BBX 16 10 0 -2
BITMAP
03FF
FFFF
FFFF
03FF
03C0
03C0
03C0
03C0
03C0
03C0
ENDCHAR
STARTCHAR U+2533
ENCODING 9523
SWIDTH 1000 0
DWIDTH 16 0
BBX 16 10 0 -2
BITMAP
FFFF
FFFF
FFFF
FFFF
03C0
03C0
03C0
03C0
03C0
03C0
ENDCHAR
STARTCHAR U+2534
ENCODING 9524
SWIDTH 500 0
DWIDTH 8 0
BBX 8 9 0 5
BITMAP
18
18
18
18
18
18
18
18
FF
ENDCHAR
STARTCHAR U+2535
ENCODING 9525
SWIDTH 1000 0
DWIDTH 16 0
BBX 16 10 0 4
BITMAP
0180
0180
0180
0180
0180
0180
FF80
FFFF
FFFF
FE00
ENDCHAR
STARTCHAR U+2536
ENCODING 9526
SWIDTH 1000 0
DWIDTH 16 0
BBX 16 10 0 4
BITMAP
0180
0180
0180
0180
0180
0180
01FF
FFFF
FFFF
007F
ENDCHAR
STARTCHAR U+2537
ENCODING 9527
SWIDTH 1000 0
DWIDTH 16 0
BBX 16 10 0 4
BITMAP
0180
0180
0180
0180
0180
0180
FFFF
FFFF
FFFF
FFFF
ENDCHAR
STARTCHAR U+2538
ENCODING 9528
SWIDTH 1000 0
DWIDTH 16 0
BBX 16 9 0 5
BITMAP
03C0
03C0
03C0
03C0
03C0
03C0
03C0
FFFF
FFFF
ENDCHAR
STARTCHAR U+2539
ENCODING 9529
SWIDTH 1000 0
DWIDTH 16 0
BBX 16 10 0 4
BITMAP
03C0
03C0
03C0
03C0
03C0
03C0
FFC0
FFFF
FFFF
FFC0
ENDCHAR
STARTCHAR U+253A
ENCODING 9530
SWIDTH 1000 0
DWIDTH 16 0
BBX 16 10 0 4
BITMAP
03C0
03C0
03C0
03C0
03C0
03C0
03FF
FFFF
FFFF
03FF
ENDCHAR
STARTCHAR U+253B
ENCODING 9531
SWIDTH 1000 0
DWIDTH 16 0
BBX 16 10 0 4
BITMAP
03C0
03C0
03C0
03C0
03C0
03C0
FFFF
FFFF
FFFF
FFFF
ENDCHAR
STARTCHAR U+253C
ENCODING 9532
SWIDTH 500 0
DWIDTH 8 0
BBX 8 16 0 -2
BITMAP
18
18
18
18
18
18
18
18
FF
18
18
18
18
18
18
18
ENDCHAR
STARTCHAR U+253D
ENCODING 9533
SWIDTH 1000 0
DWIDTH 16 0
BBX 16 16 0 -2
BITMAP
0180
0180
0180
0180
0180
0180
FF80
FFFF
FFFF
FF80
0180
0180
0180
0180
0180
0180
ENDCHAR
STARTCHAR U+253E
ENCODING 9534
SWIDTH 1000 0
DWIDTH 16 0
BBX 16 16 0 -2
BITMAP
0180
0180
0180
0180
0180
0180
01FF
FFFF
FFFF
01FF
0180
0180
0180
0180
0180
0180
ENDCHAR
STARTCHAR U+253F
ENCODING 9535
SWIDTH 1000 0
DWIDTH 16 0
BBX 16 16 0 -2
BITMAP
0180
0180
0180
0180
0180
0180
FFFF
FFFF
FFFF
FFFF
0180
0180
0180
0180
0180
0180
ENDCHAR
STARTCHAR U+2540
ENCODING 9536
SWIDTH 1000 0
DWIDTH 16 0
BBX 16 16 0 -2
BITMAP
03C0
03C0
03C0
03C0
03C0
03C0
03C0
FFFF
FFFF
0180
0180
0180
0180
0180
0180
0180
ENDCHAR
STARTCHAR U+2541
ENCODING 9537
SWIDTH 1000 0
DWIDTH 16 0
BBX 16 16 0 -2
BITMAP
0180
0180
0180
0180
0180
0180
0180
FFFF
FFFF
03C0
03C0
03C0
03C0
03C0
03C0
03C0
ENDCHAR
STARTCHAR U+2542
ENCODING 9538
SWIDTH 1000 0
DWIDTH 16 0
BBX 16 16 0 -2
BITMAP
03C0
03C0
03C0
03C0
03C0
03C0
03C0
FFFF
FFFF
03C0
03C0
03C0
03C0
03C0
03C0
03C0
ENDCHAR
STARTCHAR U+2543
ENCODING 9539
SWIDTH 1000 0
DWIDTH 16 0
BBX 16 16 0 -2
BITMAP
03C0
03C0
03C0
03C0
03C0
03C0
FFC0
FFFF
FFFF
FFC0
0180
0180
0180
0180
0180
0180
ENDCHAR
STARTCHAR U+2544
ENCODING 9540
SWIDTH 1000 0
DWIDTH 16 0
BBX 16 16 0 -2
BITMAP
03C0
03C0
03C0
03C0
03C0
03C0
03FF
FFFF
FFFF
03FF
0180
0180
0180
0180
0180
0180
ENDCHAR
STARTCHAR U+2545
ENCODING 9541
SWIDTH 1000 0
DWIDTH 16 0
BBX 16 16 0 -2
BITMAP
0180
0180
0180
0180
0180
0180
FFC0
FFFF
FFFF
FFC0
03C0
03C0
03C0
03C0
03C0
03C0
ENDCHAR
STARTCHAR U+2546
ENCODING 9542
SWIDTH 1000 0
DWIDTH 16 0
BBX 16 16 0 -2
BITMAP
0180
0180
0180
0180
0180
0180
03FF
FFFF
FFFF
03FF
03C0
03C0
03C0
03C0
03C0
03C0
ENDCHAR
STARTCHAR U+2547
ENCODING 9543
SWIDTH 1000 0
DWIDTH 16 0
BBX 16 16 0 -2
BITMAP
03C0
03C0
03C0
03C0
03C0
03C0
FFFF
FFFF
FFFF
FFFF
0180
0180
0180
0180
0180
0180
ENDCHAR
STARTCHAR U+2548
ENCODING 9544
SWIDTH 1000 0
DWIDTH 16 0
BBX 16 16 0 -2
BITMAP
0180
0180
0180
0180
0180
0180
FFFF
FFFF
FFFF
FFFF
03C0
03C0
03C0
03C0
03C0
03C0
ENDCHAR
STARTCHAR U+2549
ENCODING 9545
SWIDTH 1000 0
DWIDTH 16 0
BBX 16 16 0 -2
BITMAP
03C0
03C0
03C0
03C0
03C0
03C0
FFC0
FFFF
FFFF
FFC0
03C0
03C0
03C0
03C0
03C0
03C0
ENDCHAR
STARTCHAR U+254A
ENCODING 9546
SWIDTH 1000 0
DWIDTH 16 0
BBX 16 16 0 -2
BITMAP
03C0
03C0
03C0
03C0
03C0
03C0
03FF
FFFF
FFFF
03FF
03C0
03C0
03C0
03C0
03C0
03C0
ENDCHAR
STARTCHAR U+254B
ENCODING 9547
SWIDTH 1000 0
DWIDTH 16 0
BBX 16 16 0 -2
BITMAP
03C0
03C0
03C0
03C0
03C0
03C0
FFFF
FFFF
FFFF
FFFF
03C0
03C0
03C0
03C0
03C0
03C0
ENDCHAR
STARTCHAR U+2550
ENCODING 9552
SWIDTH 500 0
DWIDTH 8 0
BBX 8 5 0 3
BITMAP
FF
FF
00
FF
FF
ENDCHAR
STARTCHAR U+2551
ENCODING 9553
SWIDTH 500 0
DWIDTH 8 0
BBX 6 16 1 -2
BITMAP
CC
CC
CC
CC
CC
CC
CC
CC
CC
CC
CC
CC
CC
CC
CC
CC
ENDCHAR
STARTCHAR U+2552
ENCODING 9554
SWIDTH 500 0
DWIDTH 8 0
BBX 5 10 3 -2
BITMAP
F8
F8
C0
F8
F8
C0
C0
C0
C0
C0
ENDCHAR
STARTCHAR U+2553
ENCODING 9555
SWIDTH 500 0
DWIDTH 8 0
BBX 7 8 1 -2
BITMAP
FE
CC
CC
CC
CC
CC
CC
CC
ENDCHAR
STARTCHAR U+2554
ENCODING 9556
SWIDTH 500 0
DWIDTH 8 0
BBX 7 10 1 -2
BITMAP
FE
FE
C0
CE
CE
CC
CC
CC
CC
CC
ENDCHAR
STARTCHAR U+2555
ENCODING 9557
SWIDTH 500 0
DWIDTH 8 0
BBX 5 10 0 -2
BITMAP
F8
F8
18
F8
F8
18
18
18
18
18
ENDCHAR
STARTCHAR U+2556
ENCODING 9558
SWIDTH 500 0
DWIDTH 8 0
BBX 7 8 0 -2
BITMAP
FE
66
66
66
66
66
66
66
ENDCHAR
STARTCHAR U+2557
ENCODING 9559
SWIDTH 500 0
DWIDTH 8 0
BBX 7 10 0 -2
BITMAP
FE
FE
06
E6
E6
66
66
66
66
66
ENDCHAR
STARTCHAR U+2558
ENCODING 9560
SWIDTH 500 0
DWIDTH 8 0
BBX 5 11 3 3
BITMAP
C0
C0
C0
C0
C0
C0
F8
F8
C0
F8
F8
ENDCHAR
STARTCHAR U+2559
ENCODING 9561
SWIDTH 500 0
DWIDTH 8 0
BBX 7 9 1 5
BITMAP
CC
CC
CC
CC
CC
CC
CC
CC
FE
ENDCHAR
STARTCHAR U+255A
ENCODING 9562
SWIDTH 500 0
DWIDTH 8 0
BBX 7 11 1 3
BITMAP
CC
CC
CC
CC
CC
CC
CE
CE
C0
FE
FE
ENDCHAR
STARTCHAR U+255B
ENCODING 9563
SWIDTH 500 0
DWIDTH 8 0
BBX 5 11 0 3
BITMAP
18
18
18
18
18
18
F8
F8
18
F8
F8
ENDCHAR
STARTCHAR U+255C
ENCODING 9564
SWIDTH 500 0
DWIDTH 8 0
BBX 7 9 0 5
BITMAP
66
66
66
66
66
66
66
66
FE
ENDCHAR
STARTCHAR U+255D
ENCODING 9565
SWIDTH 500 0
DWIDTH 8 0
BBX 7 11 0 3
BITMAP
66
66
66
66
66
66
E6
E6
06
FE
FE
ENDCHAR
STARTCHAR U+255E
ENCODING 9566
SWIDTH 500 0
DWIDTH 8 0
BBX 5 16 3 -2
BITMAP
C0
C0
C0
C0
C0
C0
F8
F8
C0
F8
F8
C0
C0
C0
C0
C0
ENDCHAR
STARTCHAR U+255F
ENCODING 9567
SWIDTH 500 0
DWIDTH 8 0
BBX 7 16 1 -2
BITMAP
CC
CC
CC
CC
CC
CC
CC
CC
CE
CC
CC
CC
CC
CC
CC
CC
ENDCHAR
STARTCHAR U+2560
ENCODING 9568
SWIDTH 500 0
DWIDTH 8 0
BBX 7 16 1 -2
BITMAP
CC
CC
CC
CC
CC
CC
CE
CE
C0
CE
CE
CC
CC
CC
CC
CC
ENDCHAR
STARTCHAR U+2561
ENCODING 9569
SWIDTH 500 0
DWIDTH 8 0
BBX 5 16 0 -2
BITMAP
18
18
18
18
18
18
F8
F8
18
F8
F8
18
18
18
18
18
ENDCHAR
STARTCHAR U+2562
ENCODING 9570
SWIDTH 500 0
DWIDTH 8 0
BBX 7 16 0 -2
BITMAP
66
66
66
66
66
66
66
66
E6
66
66
66
66
66
66
66
ENDCHAR
STARTCHAR U+2563
ENCODING 9571
SWIDTH 500 0
DWIDTH 8 0
BBX 7 16 0 -2
BITMAP
66
66
66
66
66
66
E6
E6
06
E6
E6
66
66
66
66
66
ENDCHAR
STARTCHAR U+2564
ENCODING 9572
SWIDTH 500 0
DWIDTH 8 0
BBX 8 10 0 -2
BITMAP
FF
FF
00
FF
FF
18
18
18
18
18
ENDCHAR
STARTCHAR U+2565
ENCODING 9573
SWIDTH 500 0
DWIDTH 8 0
BBX 8 8 0 -2
BITMAP
FF
66
66
66
66
66
66
66
ENDCHAR
STARTCHAR U+2566
ENCODING 9574
SWIDTH 500 0
DWIDTH 8 0
BBX 8 10 0 -2
BITMAP
FF
FF
00
E7
E7
66
66
66
66
66
ENDCHAR
STARTCHAR U+2567
ENCODING 9575
SWIDTH 500 0
DWIDTH 8 0
BBX 8 11 0 3
BITMAP
18
18
18
18
18
18
FF
FF
00
FF
FF
ENDCHAR
STARTCHAR U+2568
ENCODING 9576
SWIDTH 500 0
DWIDTH 8 0
BBX 8 9 0 5
BITMAP
66
66
66
66
66
66
66
66
FF
ENDCHAR
STARTCHAR U+2569
ENCODING 9577
SWIDTH 500 0
DWIDTH 8 0
BBX 8 11 0 3
BITMAP
66
66
66
66
66
66
E7
E7
00
FF
FF
ENDCHAR
STARTCHAR U+256A
ENCODING 9578
SWIDTH 500 0
DWIDTH 8 0
BBX 8 16 0 -2
BITMAP
18
18
18
18
18
18
FF
FF
18
FF
FF
18
18
18
18
18
ENDCHAR
STARTCHAR U+256B
ENCODING 9579
SWIDTH 500 0
DWIDTH 8 0
BBX 8 16 0 -2
BITMAP
66
66
66
66
66
66
66
66
FF
66
66
66
66
66
66
66
ENDCHAR
STARTCHAR U+256C
ENCODING 9580
SWIDTH 500 0
DWIDTH 8 0
BBX 8 16 0 -2
BITMAP
66
66
66
66
66
66
E7
E7
00
E7
E7
66
66
66
66
66
ENDCHAR
STARTCHAR U+2580
ENCODING 9600
SWIDTH 500 0
DWIDTH 8 0
BBX 8 5 0 9
BITMAP
FF
FF
FF
FF
FF
ENDCHAR
STARTCHAR U+2584
ENCODING 9604
SWIDTH 500 0
DWIDTH 8 0
BBX 8 5 0 -2
BITMAP
FF
FF
FF
FF
FF
ENDCHAR
STARTCHAR U+2588
ENCODING 9608
SWIDTH 500 0
DWIDTH 8 0
BBX 8 16 0 -2
BITMAP
FF
FF
FF
FF
FF
FF
FF
FF
FF
FF
FF
FF
FF
FF
FF
FF
ENDCHAR
STARTCHAR U+258C
ENCODING 9612
SWIDTH 500 0
DWIDTH 8 0
BBX 4 16 0 -2
BITMAP
F0
F0
F0
F0
F0
F0
F0
F0
F0
F0
F0
F0
F0
F0
F0
F0
ENDCHAR
STARTCHAR U+2590
ENCODING 9616
SWIDTH 500 0
DWIDTH 8 0
BBX 4 16 4 -2
BITMAP
F0
F0
F0
F0
F0
F0
F0
F0
F0
F0
F0
F0
F0
F0
F0
F0
ENDCHAR
STARTCHAR U+2591
ENCODING 9617
SWIDTH 500 0
DWIDTH 8 0
BBX 7 16 0 -2
BITMAP
88
22
88
22
88
22
88
22
88
22
88
22
88
22
88
22
ENDCHAR
STARTCHAR U+2592
ENCODING 9618
SWIDTH 500 0
DWIDTH 8 0
BBX 8 16 0 -2
BITMAP
AA
55
AA
55
AA
55
AA
55
AA
55
AA
55
AA
55
AA
55
ENDCHAR
STARTCHAR U+2593
ENCODING 9619
SWIDTH 500 0
DWIDTH 8 0
BBX 8 16 0 -2
BITMAP
77
DD
77
DD
77
DD
77
DD
77
DD
77
DD
77
DD
77
DD
ENDCHAR
STARTCHAR U+25A0
ENCODING 9632
SWIDTH 1000 0
DWIDTH 16 0
BBX 12 10 2 1
BITMAP
FFF0
FFF0
FFF0
FFF0
FFF0
FFF0
FFF0
FFF0
FFF0
FFF0
ENDCHAR
STARTCHAR U+25A1
ENCODING 9633
SWIDTH 1000 0
DWIDTH 16 0
BBX 12 10 2 1
BITMAP
FFF0
8010
8010
8010
8010
8010
8010
8010
8010
FFF0
ENDCHAR
STARTCHAR U+25A3
ENCODING 9635
SWIDTH 1000 0
DWIDTH 16 0
BBX 12 10 2 1
BITMAP
FFF0
8010
9F90
9F90
9F90
9F90
9F90
9F90
8010
FFF0
ENDCHAR
STARTCHAR U+25A4
ENCODING 9636
SWIDTH 1000 0
DWIDTH 16 0
BBX 16 15 0 -2
BITMAP
FFFF
0000
FFFF
0000
FFFF
0000
FFFF
0000
FFFF
0000
FFFF
0000
FFFF
0000
FFFF
ENDCHAR
STARTCHAR U+25A5
ENCODING 9637
SWIDTH 1000 0
DWIDTH 16 0
BBX 15 16 0 -2
BITMAP
AAAA
AAAA
AAAA
AAAA
AAAA
AAAA
AAAA
AAAA
AAAA
AAAA
AAAA
AAAA
AAAA
AAAA
AAAA
AAAA
ENDCHAR
STARTCHAR U+25A6
ENCODING 9638
SWIDTH 1000 0
DWIDTH 16 0
BBX 16 16 0 -2
BITMAP
AAAA
FFFF
AAAA
FFFF
AAAA
FFFF
AAAA
FFFF
AAAA
FFFF
AAAA
FFFF
AAAA
FFFF
AAAA
FFFF
ENDCHAR
STARTCHAR U+25A7
ENCODING 9639
SWIDTH 1000 0
DWIDTH 16 0
BBX 16 16 0 -2
BITMAP
8888
4444
2222
1111
8888
4444
2222
1111
8888
4444
2222
1111
8888
4444
2222
1111
ENDCHAR
STARTCHAR U+25A8
ENCODING 9640
SWIDTH 1000 0
DWIDTH 16 0
BBX 16 16 0 -2
BITMAP
1111
2222
4444
8888
1111
2222
4444
8888
1111
2222
4444
8888
1111
2222
4444
8888
ENDCHAR
STARTCHAR U+25A9
ENCODING 9641
SWIDTH 1000 0
DWIDTH 16 0
BBX 16 16 0 -2
BITMAP
9999
6666
6666
9999
9999
6666
6666
9999
9999
6666
6666
9999
9999
6666
6666
9999
ENDCHAR
STARTCHAR U+25AC
ENCODING 9644
SWIDTH 500 0
DWIDTH 8 0
BBX 7 3 1 1
BITMAP
FE
FE
FE
ENDCHAR
STARTCHAR U+25B2
ENCODING 9650
SWIDTH 500 0
DWIDTH 8 0
BBX 8 8 0 -2
BITMAP
18
18
3C
3C
7E
7E
FF
DB
ENDCHAR
STARTCHAR U+25B3
ENCODING 9651
SWIDTH 1000 0
DWIDTH 16 0
BBX 13 7 1 2
BITMAP
0200
0500
0880
1040
2020
4010
FFF8
ENDCHAR
STARTCHAR U+25B6
ENCODING 9654
SWIDTH 1000 0
DWIDTH 16 0
BBX 11 11 3 1
BITMAP
8000
E000
F800
FE00
FF80
FFE0
FF80
FE00
F800
E000
8000
ENDCHAR
STARTCHAR U+25B7
ENCODING 9655
SWIDTH 1000 0
DWIDTH 16 0
BBX 11 11 3 1
BITMAP
8000
E000
9800
8600
8180
8060
8180
8600
9800
E000
8000
ENDCHAR
STARTCHAR U+25BA
ENCODING 9658
SWIDTH 500 0
DWIDTH 8 0
BBX 7 9 0 1
BITMAP
80
C0
E0
F8
FE
F8
E0
C0
80
ENDCHAR
STARTCHAR U+25BC
ENCODING 9660
SWIDTH 500 0
DWIDTH 8 0
BBX 8 8 0 6
BITMAP
DB
FF
7E
7E
3C
3C
18
18
ENDCHAR
STARTCHAR U+25BD
ENCODING 9661
SWIDTH 1000 0
DWIDTH 16 0
BBX 13 7 1 2
BITMAP
FFF8
4010
2020
1040
0880
0500
0200
ENDCHAR
STARTCHAR U+25C0
ENCODING 9664
SWIDTH 1000 0
DWIDTH 16 0
BBX 11 11 2 1
BITMAP
0020
00E0
03E0
0FE0
3FE0
FFE0
3FE0
0FE0
03E0
00E0
0020
ENDCHAR
STARTCHAR U+25C1
ENCODING 9665
SWIDTH 1000 0
DWIDTH 16 0
BBX 11 11 2 1
BITMAP
0020
00E0
0320
0C20
3020
C020
3020
0C20
0320
00E0
0020
ENDCHAR
STARTCHAR U+25C4
ENCODING 9668
SWIDTH 500 0
DWIDTH 8 0
BBX 7 9 1 1
BITMAP
02
06
0E
3E
FE
3E
0E
06
02
ENDCHAR
STARTCHAR U+25C6
ENCODING 9670
SWIDTH 1000 0
DWIDTH 16 0
BBX 13 13 1 0
BITMAP
0200
0700
0F80
1FC0
3FE0
7FF0
FFF8
7FF0
3FE0
1FC0
0F80
0700
0200
ENDCHAR
STARTCHAR U+25C7
ENCODING 9671
SWIDTH 1000 0
DWIDTH 16 0
BBX 13 13 1 0
BITMAP
0200
0500
0880
1040
2020
4010
8008
4010
2020
1040
0880
0500
0200
ENDCHAR
STARTCHAR U+25C8
ENCODING 9672
SWIDTH 1000 0
DWIDTH 16 0
BBX 13 13 1 0
BITMAP
0200
0500
0880
1240
2720
4F90
9FC8
4F90
2720
1240
0880
0500
0200
ENDCHAR
STARTCHAR U+25CB
ENCODING 9675
SWIDTH 500 0
DWIDTH 8 0
BBX 5 5 2 4
BITMAP
70
88
88
88
70
ENDCHAR
STARTCHAR U+25CE
ENCODING 9678
SWIDTH 1000 0
DWIDTH 16 0
BBX 13 10 1 1
BITMAP
0F80
3060
4710
9048
A028
A028
9048
4710
3060
0F80
ENDCHAR
STARTCHAR U+25CF
ENCODING 9679
SWIDTH 1000 0
DWIDTH 16 0
BBX 13 10 1 1
BITMAP
0F80
3FE0
7FF0
FFF8
FFF8
FFF8
FFF8
7FF0
3FE0
0F80
ENDCHAR
STARTCHAR U+25D0
ENCODING 9680
SWIDTH 1000 0
DWIDTH 16 0
BBX 13 10 2 1
BITMAP
0F80
3E60
7E10
FE08
FE08
FE08
FE08
7E10
3E60
0F80
ENDCHAR
STARTCHAR U+25D1
ENCODING 9681
SWIDTH 1000 0
DWIDTH 16 0
BBX 13 10 2 1
BITMAP
0F80
33E0
43F0
83F8
83F8
83F8
83F8
43F0
33E0
0F80
ENDCHAR
STARTCHAR U+25D8
ENCODING 9688
SWIDTH 500 0
DWIDTH 8 0
BBX 7 16 1 -2
BITMAP
FE
FE
FE
FE
FE
FE
EE
C6
C6
EE
FE
FE
FE
FE
FE
FE
ENDCHAR
STARTCHAR U+25D9
ENCODING 9689
SWIDTH 500 0
DWIDTH 8 0
BBX 7 16 1 -2
BITMAP
FE
FE
FE
EE
EE
C6
C6
82
C6
C6
EE
EE
FE
FE
FE
FE
ENDCHAR
STARTCHAR U+2605
ENCODING 9733
SWIDTH 1000 0
DWIDTH 16 0
BBX 15 13 0 0
BITMAP
0100
0100
0380
0380
07C0
FFFE
3FF8
1FF0
0FE0
1FF0
1EF0
3838
2008
ENDCHAR
STARTCHAR U+2606
ENCODING 9734
SWIDTH 1000 0
DWIDTH 16 0
BBX 15 13 0 0
BITMAP
0100
0100
0380
0280
0440
FC7E
2008
1830
0820
1390
16D0
3838
2008
ENDCHAR
STARTCHAR U+260E
ENCODING 9742
SWIDTH 1000 0
DWIDTH 16 0
BBX 15 11 0 1
BITMAP
1FF0
7FFC
F45E
F7DE
07C0
1FF0
3838
701C
FABE
FFFE
701C
ENDCHAR
STARTCHAR U+260F
ENCODING 9743
SWIDTH 1000 0
DWIDTH 16 0
BBX 15 11 0 1
BITMAP
1FF0
600C
8C62
FBBE
0820
1830
27C8
4FE4
8542
8FE2
701C
ENDCHAR
STARTCHAR U+261C
ENCODING 9756
SWIDTH 1000 0
DWIDTH 16 0
BBX 15 11 1 1
BITMAP
000E
7FFA
800A
7F8A
080A
078A
040A
038A
020A
01FA
000E
ENDCHAR
STARTCHAR U+261E
ENCODING 9758
SWIDTH 1000 0
DWIDTH 16 0
BBX 15 11 0 1
BITMAP
E000
BFFC
A002
A3FC
A020
A3C0
A040
A380
A080
BF00
E000
ENDCHAR
STARTCHAR U+263A
ENCODING 9786
SWIDTH 500 0
DWIDTH 8 0
BBX 7 9 1 1
BITMAP
7C
82
AA
82
82
BA
92
82
7C
ENDCHAR
STARTCHAR U+263B
ENCODING 9787
SWIDTH 500 0
DWIDTH 8 0
BBX 7 9 1 1
BITMAP
7C
FE
D6
FE
FE
EE
C6
FE
7C
ENDCHAR
STARTCHAR U+263C
ENCODING 9788
SWIDTH 500 0
DWIDTH 8 0
BBX 7 11 1 0
BITMAP
10
10
D6
7C
6C
C6
6C
7C
D6
10
10
ENDCHAR
STARTCHAR U+2640
ENCODING 9792
SWIDTH 500 0
DWIDTH 8 0
BBX 6 10 1 1
BITMAP
78
CC
84
CC
78
30
30
FC
30
30
ENDCHAR
STARTCHAR U+2642
ENCODING 9794
SWIDTH 1000 0
DWIDTH 16 0
BBX 10 12 3 1
BITMAP
0C00
1E00
3F00
6D80
CCC0
0C00
3F00
6180
C0C0
C0C0
6180
3F00
ENDCHAR
STARTCHAR U+2660
ENCODING 9824
SWIDTH 500 0
DWIDTH 8 0
BBX 7 10 1 0
BITMAP
10
38
7C
FE
FE
FE
54
10
10
38
ENDCHAR
STARTCHAR U+2661
ENCODING 9825
SWIDTH 1000 0
DWIDTH 16 0
BBX 13 12 1 0
BITMAP
38E0
4510
8208
8008
8008
8008
4010
2020
1040
0880
0500
0200
ENDCHAR
STARTCHAR U+2663
ENCODING 9827
SWIDTH 500 0
DWIDTH 8 0
BBX 7 9 1 1
BITMAP
10
38
38
38
FE
FE
10
10
38
ENDCHAR
STARTCHAR U+2664
ENCODING 9828
SWIDTH 1000 0
DWIDTH 16 0
BBX 13 12 1 0
BITMAP
0200
0500
0880
1040
2020
4010
8008
8708
7AF0
0200
0200
0700
ENDCHAR
STARTCHAR U+2665
ENCODING 9829
SWIDTH 1000 0
DWIDTH 16 0
BBX 13 12 1 0
BITMAP
38E0
7DF0
FFF8
FFF8
FFF8
FFF8
7FF0
3FE0
1FC0
0F80
0700
0200
ENDCHAR
STARTCHAR U+2666
ENCODING 9830
SWIDTH 500 0
DWIDTH 8 0
BBX 7 7 1 2
BITMAP
10
38
7C
FE
7C
38
10
ENDCHAR
STARTCHAR U+2667
ENCODING 9831
SWIDTH 1000 0
DWIDTH 16 0
BBX 14 12 1 0
BITMAP
0780
0840
0840
0480
7B78
8784
8304
8784
7B78
0300
0300
0780
ENDCHAR
STARTCHAR U+2668
ENCODING 9832
SWIDTH 1000 0
DWIDTH 16 0
BBX 14 9 1 1
BITMAP
0540
0A80
0A80
0540
4548
8A84
8004
6018
1FE0
ENDCHAR
STARTCHAR U+2669
ENCODING 9833
SWIDTH 1000 0
DWIDTH 16 0
BBX 5 11 4 1
BITMAP
08
08
08
08
08
08
08
18
78
F0
C0
ENDCHAR
STARTCHAR U+266A
ENCODING 9834
SWIDTH 500 0
DWIDTH 8 0
BBX 8 9 0 1
BITMAP
30
3C
36
33
33
36
30
F0
E0
ENDCHAR
STARTCHAR U+266B
ENCODING 9835
SWIDTH 500 0
DWIDTH 8 0
BBX 7 9 1 1
BITMAP
7E
66
7E
66
66
66
6E
EC
C0
ENDCHAR
STARTCHAR U+266C
ENCODING 9836
SWIDTH 1000 0
DWIDTH 16 0
BBX 13 11 1 1
BITMAP
0FF8
0FF8
0808
0FF8
0808
0808
0808
1818
7878
F0F0
C0C0
ENDCHAR
STARTCHAR U+266D
ENCODING 9837
SWIDTH 1000 0
DWIDTH 16 0
BBX 8 11 5 1
BITMAP
80
80
80
80
8E
B1
C1
82
8C
B0
C0
ENDCHAR
STARTCHAR U+2713
ENCODING 10003
SWIDTH 500 0
DWIDTH 8 0
BBX 8 6 0 -2
BITMAP
01
83
C6
6C
38
10
ENDCHAR
STARTCHAR U+3000
ENCODING 12288
SWIDTH 1000 0
DWIDTH 16 0
BBX 1 1 15 -2
BITMAP
00
ENDCHAR
STARTCHAR U+3001
ENCODING 12289
SWIDTH 1000 0
DWIDTH 16 0
BBX 4 4 3 -1
BITMAP
80
60
70
30
ENDCHAR
STARTCHAR U+3002
ENCODING 12290
SWIDTH 1000 0
DWIDTH 16 0
BBX 4 3 3 -1
BITMAP
60
90
60
ENDCHAR
STARTCHAR U+3003
ENCODING 12291
SWIDTH 1000 0
DWIDTH 16 0
BBX 8 3 4 5
BITMAP
33
66
CC
ENDCHAR
STARTCHAR U+3008
ENCODING 12296
SWIDTH 1000 0
DWIDTH 16 0
BBX 7 11 3 1
BITMAP
06
0C
18
30
60
C0
60
30
18
0C
06
ENDCHAR
STARTCHAR U+3009
ENCODING 12297
SWIDTH 1000 0
DWIDTH 16 0
BBX 7 11 6 1
BITMAP
C0
60
30
18
0C
06
0C
18
30
60
C0
ENDCHAR
STARTCHAR U+300A
ENCODING 12298
SWIDTH 1000 0
DWIDTH 16 0
BBX 11 11 2 1
BITMAP
0660
0CC0
1980
3300
6600
CC00
6600
3300
1980
0CC0
0660
ENDCHAR
STARTCHAR U+300B
ENCODING 12299
SWIDTH 1000 0
DWIDTH 16 0
BBX 11 11 2 1
BITMAP
CC00
6600
3300
1980
0CC0
0660
0CC0
1980
3300
6600
CC00
ENDCHAR
STARTCHAR U+300C
ENCODING 12300
SWIDTH 1000 0
DWIDTH 16 0
BBX 6 6 6 6
BITMAP
FC
C0
C0
C0
C0
C0
ENDCHAR
STARTCHAR U+300D
ENCODING 12301
SWIDTH 1000 0
DWIDTH 16 0
BBX 6 6 4 1
BITMAP
0C
0C
0C
0C
0C
FC
ENDCHAR
STARTCHAR U+300E
ENCODING 12302
SWIDTH 1000 0
DWIDTH 16 0
BBX 6 6 5 6
BITMAP
FC
84
BC
A0
A0
E0
ENDCHAR
STARTCHAR U+300F
ENCODING 12303
SWIDTH 1000 0
DWIDTH 16 0
BBX 6 6 5 1
BITMAP
1C
14
14
F4
84
FC
ENDCHAR
STARTCHAR U+3010
ENCODING 12304
SWIDTH 1000 0
DWIDTH 16 0
BBX 6 11 6 1
BITMAP
FC
F0
E0
C0
C0
C0
C0
C0
E0
F0
FC
ENDCHAR
STARTCHAR U+3011
ENCODING 12305
SWIDTH 1000 0
DWIDTH 16 0
BBX 6 11 4 1
BITMAP
FC
3C
1C
0C
0C
0C
0C
0C
1C
3C
FC
ENDCHAR
STARTCHAR U+3013
ENCODING 12307
SWIDTH 1000 0
DWIDTH 16 0
BBX 10 3 3 5
BITMAP
FFC0
0000
FFC0
ENDCHAR
STARTCHAR U+3014
ENCODING 12308
SWIDTH 1000 0
DWIDTH 16 0
BBX 4 11 6 1
BITMAP
30
C0
C0
C0
C0
C0
C0
C0
C0
C0
30
ENDCHAR
STARTCHAR U+3015
ENCODING 12309
SWIDTH 1000 0
DWIDTH 16 0
BBX 4 11 6 1
BITMAP
C0
30
30
30
30
30
30
30
30
30
C0
ENDCHAR
STARTCHAR U+3041
ENCODING 12353
SWIDTH 1000 0
DWIDTH 16 0
BBX 11 10 1 0
BITMAP
0800
0D00
7F80
0800
0F80
3AC0
4C60
CC60
D460
64C0
ENDCHAR
STARTCHAR U+3042
ENCODING 12354
SWIDTH 1000 0
DWIDTH 16 0
BBX 13 14 1 0
BITMAP
0C00
0E00
0C80
7FC0
0800
0900
0FC0
3930
6B18
4E18
CC18
DC18
F430
44C0
ENDCHAR
STARTCHAR U+3043
ENCODING 12355
SWIDTH 1000 0
DWIDTH 16 0
BBX 11 7 1 1
BITMAP
C100
6080
6040
6060
68E0
3060
3000
ENDCHAR
STARTCHAR U+3044
ENCODING 12356
SWIDTH 1000 0
DWIDTH 16 0
BBX 15 11 0 1
BITMAP
8000
4040
4030
6018
600C
600C
6406
6806
781E
3004
3000
ENDCHAR
STARTCHAR U+3045
ENCODING 12357
SWIDTH 1000 0
DWIDTH 16 0
BBX 8 11 2 0
BITMAP
30
1C
00
0E
FB
63
03
03
06
0C
10
ENDCHAR
STARTCHAR U+3046
ENCODING 12358
SWIDTH 1000 0
DWIDTH 16 0
BBX 10 14 2 0
BITMAP
1C00
0F00
0000
0000
0F00
F980
60C0
00C0
00C0
00C0
00C0
0180
0300
0C00
ENDCHAR
STARTCHAR U+3047
ENCODING 12359
SWIDTH 1000 0
DWIDTH 16 0
BBX 11 11 1 0
BITMAP
1800
0E00
0000
0700
7B00
2600
0C00
1800
3800
E600
43E0
ENDCHAR
STARTCHAR U+3048
ENCODING 12360
SWIDTH 1000 0
DWIDTH 16 0
BBX 13 14 1 0
BITMAP
0E00
0380
0000
0000
03C0
7EC0
3180
0300
0600
0C00
1800
3400
E310
41F8
ENDCHAR
STARTCHAR U+3049
ENCODING 12361
SWIDTH 1000 0
DWIDTH 16 0
BBX 12 11 0 0
BITMAP
1000
1860
1830
1F20
7000
13E0
1E30
3830
C830
3860
1880
ENDCHAR
STARTCHAR U+304A
ENCODING 12362
SWIDTH 1000 0
DWIDTH 16 0
BBX 13 14 1 0
BITMAP
3000
1C00
1870
1818
1F10
F800
1000
11E0
1630
1818
1818
E818
3830
18C0
ENDCHAR
STARTCHAR U+304B
ENCODING 12363
SWIDTH 1000 0
DWIDTH 16 0
BBX 14 14 1 0
BITMAP
3000
1800
1800
1800
1F30
F888
5084
1084
308C
2184
6100
4900
C700
8600
ENDCHAR
STARTCHAR U+304C
ENCODING 12364
SWIDTH 1000 0
DWIDTH 16 0
BBX 14 14 1 0
BITMAP
3008
1824
1810
1800
1F30
F888
5084
1084
308C
2184
6100
4900
C700
8600
ENDCHAR
STARTCHAR U+304D
ENCODING 12365
SWIDTH 1000 0
DWIDTH 16 0
BBX 10 14 2 0
BITMAP
3000
1800
0B80
FE00
6C00
07C0
7F00
3300
0180
1FC0
30C0
4000
7000
1F00
ENDCHAR
STARTCHAR U+304E
ENCODING 12366
SWIDTH 1000 0
DWIDTH 16 0
BBX 14 14 2 0
BITMAP
3008
1824
0B90
FE00
6C00
07C0
7F00
3300
0180
1FC0
30C0
4000
7000
1F00
ENDCHAR
STARTCHAR U+304F
ENCODING 12367
SWIDTH 1000 0
DWIDTH 16 0
BBX 9 14 2 0
BITMAP
0080
0180
0300
0600
1800
6000
8000
8000
6000
1800
0E00
0300
0180
0080
ENDCHAR
STARTCHAR U+3050
ENCODING 12368
SWIDTH 1000 0
DWIDTH 16 0
BBX 14 14 2 0
BITMAP
0080
0188
0324
0610
1800
6000
8000
8000
6000
1800
0E00
0300
0180
0080
ENDCHAR
STARTCHAR U+3051
ENCODING 12369
SWIDTH 1000 0
DWIDTH 16 0
BBX 14 14 1 0
BITMAP
C180
60C0
6040
4068
C7FC
8260
8060
8060
9060
D040
60C0
6080
2080
0100
ENDCHAR
STARTCHAR U+3052
ENCODING 12370
SWIDTH 1000 0
DWIDTH 16 0
BBX 15 14 1 0
BITMAP
C184
60D2
6048
4060
C7FC
8260
8060
8060
9060
D040
60C0
6080
2080
0100
ENDCHAR
STARTCHAR U+3053
ENCODING 12371
SWIDTH 1000 0
DWIDTH 16 0
BBX 11 13 2 0
BITMAP
2000
1C00
07C0
0C00
0000
0000
0000
4000
8000
8000
C000
7000
1FE0
ENDCHAR
STARTCHAR U+3054
ENCODING 12372
SWIDTH 1000 0
DWIDTH 16 0
BBX 14 14 2 0
BITMAP
0008
2024
1C10
07C0
0C00
0000
0000
0000
4000
8000
8000
C000
7000
1FE0
ENDCHAR
STARTCHAR U+3055
ENCODING 12373
SWIDTH 1000 0
DWIDTH 16 0
BBX 10 14 2 0
BITMAP
3000
1980
0FC0
FC00
6600
0200
0100
0180
1FC0
60C0
C000
C000
7000
1F00
ENDCHAR
STARTCHAR U+3056
ENCODING 12374
SWIDTH 1000 0
DWIDTH 16 0
BBX 14 14 2 0
BITMAP
3008
19A4
0F10
FC00
6600
0200
0100
0180
1FC0
60C0
C000
C000
7000
1F00
ENDCHAR
STARTCHAR U+3057
ENCODING 12375
SWIDTH 1000 0
DWIDTH 16 0
BBX 10 14 3 0
BITMAP
C000
7000
7000
6000
6000
6000
4000
4000
4000
4000
4040
4080
6700
3C00
ENDCHAR
STARTCHAR U+3058
ENCODING 12376
SWIDTH 1000 0
DWIDTH 16 0
BBX 10 14 3 0
BITMAP
C000
7000
7080
6240
6100
6000
4000
4000
4000
4000
4040
4080
6700
3C00
ENDCHAR
STARTCHAR U+3059
ENCODING 12377
SWIDTH 1000 0
DWIDTH 16 0
BBX 15 14 0 0
BITMAP
0300
01C0
018C
FFFE
6100
0F00
1180
1180
1980
0E80
0080
0180
0100
0200
ENDCHAR
STARTCHAR U+305A
ENCODING 12378
SWIDTH 1000 0
DWIDTH 16 0
BBX 16 14 0 0
BITMAP
0302
01C9
0184
FFFE
6100
0F00
1180
1180
1980
0E80
0080
0180
0100
0200
ENDCHAR
STARTCHAR U+305B
ENCODING 12379
SWIDTH 1000 0
DWIDTH 16 0
BBX 15 14 0 0
BITMAP
0060
3030
1820
1820
1024
1FFE
F020
5020
10E0
1040
1800
0800
0C30
03F8
ENDCHAR
STARTCHAR U+305C
ENCODING 12380
SWIDTH 1000 0
DWIDTH 16 0
BBX 16 14 0 0
BITMAP
00C2
3069
1844
1840
1044
1FFE
F040
5040
11C0
1080
1800
0800
0C30
03F8
ENDCHAR
STARTCHAR U+305D
ENCODING 12381
SWIDTH 1000 0
DWIDTH 16 0
BBX 13 13 1 0
BITMAP
0380
3DC0
1300
0600
0810
17F8
7980
C200
0400
0400
0600
0380
01C0
ENDCHAR
STARTCHAR U+305E
ENCODING 12382
SWIDTH 1000 0
DWIDTH 16 0
BBX 15 13 1 0
BITMAP
0384
3DD2
1308
0600
0810
17F8
7980
C200
0400
0400
0600
0380
01C0
ENDCHAR
STARTCHAR U+305F
ENCODING 12383
SWIDTH 1000 0
DWIDTH 16 0
BBX 14 14 0 0
BITMAP
1800
0C00
0880
0F80
F830
581C
1820
1000
1000
3000
3100
6100
6180
00FC
ENDCHAR
STARTCHAR U+3060
ENCODING 12384
SWIDTH 1000 0
DWIDTH 16 0
BBX 15 14 0 0
BITMAP
1804
0C12
0888
0F80
F830
581C
1820
1000
1000
3000
3100
6100
6180
00FC
ENDCHAR
STARTCHAR U+3061
ENCODING 12385
SWIDTH 1000 0
DWIDTH 16 0
BBX 13 14 1 0
BITMAP
1800
0C00
0900
0F80
F800
5800
1000
11E0
1630
3818
3018
0030
00E0
0700
ENDCHAR
STARTCHAR U+3062
ENCODING 12386
SWIDTH 1000 0
DWIDTH 16 0
BBX 14 14 1 0
BITMAP
1800
0C08
0924
0F90
F800
5800
1000
11E0
1630
3818
3018
0030
00E0
0700
ENDCHAR
STARTCHAR U+3063
ENCODING 12387
SWIDTH 1000 0
DWIDTH 16 0
BBX 12 7 1 0
BITMAP
0F80
F060
4030
0030
0030
00E0
0380
ENDCHAR
STARTCHAR U+3064
ENCODING 12388
SWIDTH 1000 0
DWIDTH 16 0
BBX 14 9 0 0
BITMAP
07E0
9E18
780C
000C
000C
000C
0018
0060
0180
ENDCHAR
STARTCHAR U+3065
ENCODING 12389
SWIDTH 1000 0
DWIDTH 16 0
BBX 15 13 0 0
BITMAP
0004
0012
0008
0000
07E0
9E18
780C
000C
000C
000C
0018
0060
0180
ENDCHAR
STARTCHAR U+3066
ENCODING 12390
SWIDTH 1000 0
DWIDTH 16 0
BBX 14 13 1 0
BITMAP
007C
FFE0
6080
0100
0200
0200
0400
0400
0400
0600
0200
01C0
0070
ENDCHAR
STARTCHAR U+3067
ENCODING 12391
SWIDTH 1000 0
DWIDTH 16 0
BBX 15 13 1 0
BITMAP
007C
FFE0
6084
0112
0208
0200
0400
0400
0400
0600
0200
01C0
0070
ENDCHAR
STARTCHAR U+3068
ENCODING 12392
SWIDTH 1000 0
DWIDTH 16 0
BBX 10 14 2 0
BITMAP
1000
1C00
0800
0800
0880
0BC0
0600
1800
2000
4000
C000
C000
7000
1FC0
ENDCHAR
STARTCHAR U+3069
ENCODING 12393
SWIDTH 1000 0
DWIDTH 16 0
BBX 13 14 2 0
BITMAP
1010
1C48
0820
0800
0880
0BC0
0600
1800
2000
4000
C000
C000
7000
1FC0
ENDCHAR
STARTCHAR U+306A
ENCODING 12394
SWIDTH 1000 0
DWIDTH 16 0
BBX 14 14 0 0
BITMAP
0600
0300
0200
FFC0
4408
083C
1044
3040
6040
C040
0040
0FF0
1898
0F08
ENDCHAR
STARTCHAR U+306B
ENCODING 12395
SWIDTH 1000 0
DWIDTH 16 0
BBX 13 13 1 0
BITMAP
4000
61E0
4630
C040
8000
8000
8000
8000
9200
A400
E630
43F8
4000
ENDCHAR
STARTCHAR U+306C
ENCODING 12396
SWIDTH 1000 0
DWIDTH 16 0
BBX 14 14 0 0
BITMAP
0600
0300
0200
23E0
2610
2A08
320C
340C
540C
580C
88E8
9538
6118
00EC
ENDCHAR
STARTCHAR U+306D
ENCODING 12397
SWIDTH 1000 0
DWIDTH 16 0
BBX 14 14 0 0
BITMAP
3000
1800
1800
1000
F8F0
5318
140C
1804
1004
3004
50E8
D138
B118
10EC
ENDCHAR
STARTCHAR U+306E
ENCODING 12398
SWIDTH 1000 0
DWIDTH 16 0
BBX 13 11 1 0
BITMAP
0F80
3460
6430
4410
8418
8C18
8818
9810
D030
60E0
0100
ENDCHAR
STARTCHAR U+306F
ENCODING 12399
SWIDTH 1000 0
DWIDTH 16 0
BBX 14 13 1 0
BITMAP
C060
6030
6020
4020
47FC
C320
8020
8020
A030
A3F0
E438
446C
43C4
ENDCHAR
STARTCHAR U+3070
ENCODING 12400
SWIDTH 1000 0
DWIDTH 16 0
BBX 15 14 1 0
BITMAP
0004
C092
60C8
6040
4040
47F8
C340
8040
8040
A060
A3E0
E478
446C
43C4
ENDCHAR
STARTCHAR U+3071
ENCODING 12401
SWIDTH 1000 0
DWIDTH 16 0
BBX 15 14 1 0
BITMAP
000C
C092
60D2
604C
4040
47F8
C340
8040
8040
A060
A3E0
E478
446C
43C4
ENDCHAR
STARTCHAR U+3072
ENCODING 12402
SWIDTH 1000 0
DWIDTH 16 0
BBX 14 13 0 0
BITMAP
0030
1C30
EC30
0830
1038
1028
202C
2024
2020
2040
1040
1980
0F00
ENDCHAR
STARTCHAR U+3073
ENCODING 12403
SWIDTH 1000 0
DWIDTH 16 0
BBX 16 14 0 0
BITMAP
0002
0029
1C24
EC20
0830
1030
1038
202C
2024
2020
2040
1040
1980
0F00
ENDCHAR
STARTCHAR U+3074
ENCODING 12404
SWIDTH 1000 0
DWIDTH 16 0
BBX 16 14 0 0
BITMAP
0006
0029
1C29
EC26
0830
1030
1038
202C
2024
2020
2040
1040
1980
0F00
ENDCHAR
STARTCHAR U+3075
ENCODING 12405
SWIDTH 1000 0
DWIDTH 16 0
BBX 16 13 0 0
BITMAP
0200
0180
00C0
00C0
0100
0100
0080
00C0
03FE
9CC3
70C3
63C4
0180
ENDCHAR
STARTCHAR U+3076
ENCODING 12406
SWIDTH 1000 0
DWIDTH 16 0
BBX 16 13 0 0
BITMAP
0200
0182
00C9
00C4
0100
0100
0080
00C0
03FE
9CC3
70C3
63C4
0180
ENDCHAR
STARTCHAR U+3077
ENCODING 12407
SWIDTH 1000 0
DWIDTH 16 0
BBX 16 13 0 0
BITMAP
0200
0186
00C9
00C9
0106
0100
0080
00C0
03FE
9CC3
70C3
63C4
0180
ENDCHAR
STARTCHAR U+3078
ENCODING 12408
SWIDTH 1000 0
DWIDTH 16 0
BBX 16 9 0 2
BITMAP
0C00
1200
1100
1080
3040
2020
C018
000E
0003
ENDCHAR
STARTCHAR U+3079
ENCODING 12409
SWIDTH 1000 0
DWIDTH 16 0
BBX 16 11 0 2
BITMAP
0010
0048
0C20
1200
1100
1080
3040
2020
C018
000E
0003
ENDCHAR
STARTCHAR U+307A
ENCODING 12410
SWIDTH 1000 0
DWIDTH 16 0
BBX 16 10 0 2
BITMAP
0018
0C24
1224
1118
1080
3040
2020
C018
000E
0003
ENDCHAR
STARTCHAR U+307B
ENCODING 12411
SWIDTH 1000 0
DWIDTH 16 0
BBX 13 13 1 0
BITMAP
C000
67F8
6040
4020
4038
C7E0
8020
8020
A020
A3E0
E460
4470
43D8
ENDCHAR
STARTCHAR U+307C
ENCODING 12412
SWIDTH 1000 0
DWIDTH 16 0
BBX 15 13 1 0
BITMAP
C000
67F4
6082
4048
4044
C7F0
8040
8040
A040
A3C0
E4E0
44D0
4398
ENDCHAR
STARTCHAR U+307D
ENCODING 12413
SWIDTH 1000 0
DWIDTH 16 0
BBX 15 14 1 0
BITMAP
000C
C012
67F2
608C
4040
4040
C7F0
8040
8040
A040
A3C0
E4C0
44F0
4398
ENDCHAR
STARTCHAR U+307E
ENCODING 12414
SWIDTH 1000 0
DWIDTH 16 0
BBX 11 14 2 0
BITMAP
0C00
0600
86C0
7F80
2400
85C0
7F80
2400
0400
0600
3E00
4780
C6E0
7C60
ENDCHAR
STARTCHAR U+307F
ENCODING 12415
SWIDTH 1000 0
DWIDTH 16 0
BBX 14 13 1 0
BITMAP
4300
3F80
1B00
0220
0430
0430
1F20
68E0
9078
B04C
E0C0
4080
0100
ENDCHAR
STARTCHAR U+3080
ENCODING 12416
SWIDTH 1000 0
DWIDTH 16 0
BBX 14 13 1 0
BITMAP
3000
1800
1F00
F810
5028
1024
782C
9820
9810
7010
1030
1070
0FE0
ENDCHAR
STARTCHAR U+3081
ENCODING 12417
SWIDTH 1000 0
DWIDTH 16 0
BBX 15 13 0 0
BITMAP
0180
00C0
20C0
27E0
1898
3104
5906
4A06
8406
8E06
520C
6018
0060
ENDCHAR
STARTCHAR U+3082
ENCODING 12418
SWIDTH 1000 0
DWIDTH 16 0
BBX 10 14 3 0
BITMAP
1800
0C00
8800
5800
3000
5000
B000
E000
3880
2C40
6040
60C0
30C0
1F80
ENDCHAR
STARTCHAR U+3083
ENCODING 12419
SWIDTH 1000 0
DWIDTH 16 0
BBX 12 12 0 0
BITMAP
0400
0400
1A00
21C0
2620
1810
F930
4CE0
0400
0600
0200
0200
ENDCHAR
STARTCHAR U+3084
ENCODING 12420
SWIDTH 1000 0
DWIDTH 16 0
BBX 15 14 0 0
BITMAP
0100
0180
0E80
1070
118C
0A06
1E46
F43C
4200
0300
0100
0180
0080
0080
ENDCHAR
STARTCHAR U+3085
ENCODING 12421
SWIDTH 1000 0
DWIDTH 16 0
BBX 11 11 1 0
BITMAP
0600
0900
8900
4B80
4D40
9920
AB20
EA40
4780
0200
0400
ENDCHAR
STARTCHAR U+3086
ENCODING 12422
SWIDTH 1000 0
DWIDTH 16 0
BBX 14 14 1 0
BITMAP
0300
0480
8480
49E0
6E58
484C
5844
9444
A4CC
E298
41E0
0080
0180
0100
ENDCHAR
STARTCHAR U+3087
ENCODING 12423
SWIDTH 1000 0
DWIDTH 16 0
BBX 9 10 2 0
BITMAP
1800
0C00
0900
0F80
0800
0800
0800
7E00
9B80
7180
ENDCHAR
STARTCHAR U+3088
ENCODING 12424
SWIDTH 1000 0
DWIDTH 16 0
BBX 11 14 2 0
BITMAP
0C00
0600
0400
0440
07E0
0400
0400
0400
0400
0400
7F00
85C0
8C60
7800
ENDCHAR
STARTCHAR U+3089
ENCODING 12425
SWIDTH 1000 0
DWIDTH 16 0
BBX 12 14 1 0
BITMAP
0800
0C00
0600
1E00
2000
2000
4000
4000
4F80
F060
C030
0030
0060
0380
ENDCHAR
STARTCHAR U+308A
ENCODING 12426
SWIDTH 1000 0
DWIDTH 16 0
BBX 9 14 3 0
BITMAP
C000
4E00
5300
6100
C180
C180
C180
4180
0180
0180
0100
0300
0600
0800
ENDCHAR
STARTCHAR U+308B
ENCODING 12427
SWIDTH 1000 0
DWIDTH 16 0
BBX 11 14 2 0
BITMAP
0300
7F80
3300
0600
0400
0800
1700
38C0
6060
C020
8E20
1360
11C0
0F00
ENDCHAR
STARTCHAR U+308C
ENCODING 12428
SWIDTH 1000 0
DWIDTH 16 0
BBX 16 14 0 0
BITMAP
3000
1800
1800
1000
F8E0
5330
1410
1810
1010
3030
5020
D021
B036
101C
ENDCHAR
STARTCHAR U+308D
ENCODING 12429
SWIDTH 1000 0
DWIDTH 16 0
BBX 13 14 1 0
BITMAP
0180
3FC0
1980
0300
0200
0400
0BC0
1C30
3018
6008
C018
0030
00E0
0300
ENDCHAR
STARTCHAR U+308E
ENCODING 12430
SWIDTH 1000 0
DWIDTH 16 0
BBX 11 11 1 0
BITMAP
6000
3000
2000
F000
3380
2C40
7020
6020
E060
A0C0
2100
ENDCHAR
STARTCHAR U+308F
ENCODING 12431
SWIDTH 1000 0
DWIDTH 16 0
BBX 13 14 1 0
BITMAP
3000
1800
1800
1000
1C00
F9C0
5630
1818
1008
3008
5018
D810
B860
1080
ENDCHAR
STARTCHAR U+3090
ENCODING 12432
SWIDTH 1000 0
DWIDTH 16 0
BBX 14 14 1 0
BITMAP
0180
3FC0
1980
0100
0300
0200
07C0
3C30
4808
9004
B0E4
E11C
4118
00F0
ENDCHAR
STARTCHAR U+3091
ENCODING 12433
SWIDTH 1000 0
DWIDTH 16 0
BBX 13 14 1 0
BITMAP
0100
3F80
1300
0600
0F80
18C0
2040
0E40
1B80
0F00
0800
1870
7598
C238
ENDCHAR
STARTCHAR U+3092
ENCODING 12434
SWIDTH 1000 0
DWIDTH 16 0
BBX 11 14 2 0
BITMAP
1800
0D00
FF80
4800
1840
1060
3CC0
6700
8700
0900
1100
2000
3000
1FC0
ENDCHAR
STARTCHAR U+3093
ENCODING 12435
SWIDTH 1000 0
DWIDTH 16 0
BBX 14 14 1 0
BITMAP
0200
0300
0300
0200
0600
0400
0C00
0800
1F00
3184
2184
6188
C0D8
C070
ENDCHAR
STARTCHAR U+30A1
ENCODING 12449
SWIDTH 1000 0
DWIDTH 16 0
BBX 12 10 0 0
BITMAP
81E0
7E70
30C0
0500
0600
0600
0400
0C00
0800
1000
ENDCHAR
STARTCHAR U+30A2
ENCODING 12450
SWIDTH 1000 0
DWIDTH 16 0
BBX 15 12 0 0
BITMAP
80FC
7F0E
3018
0360
0180
0180
0180
0100
0300
0200
0400
0800
ENDCHAR
STARTCHAR U+30A3
ENCODING 12451
SWIDTH 1000 0
DWIDTH 16 0
BBX 7 10 3 0
BITMAP
04
06
0C
18
38
48
88
08
08
08
ENDCHAR
STARTCHAR U+30A4
ENCODING 12452
SWIDTH 1000 0
DWIDTH 16 0
BBX 10 14 1 0
BITMAP
0080
00C0
00C0
0180
0300
0600
0E00
3300
C300
0300
0300
0300
0300
0200
ENDCHAR
STARTCHAR U+30A5
ENCODING 12453
SWIDTH 1000 0
DWIDTH 16 0
BBX 10 11 2 0
BITMAP
1800
0C00
C980
7FC0
4180
4180
4100
4300
0200
0400
0800
ENDCHAR
STARTCHAR U+30A6
ENCODING 12454
SWIDTH 1000 0
DWIDTH 16 0
BBX 12 14 2 0
BITMAP
0C00
0600
0600
C460
7FF0
6030
6030
4020
4060
0040
00C0
0080
0100
0200
ENDCHAR
STARTCHAR U+30A7
ENCODING 12455
SWIDTH 1000 0
DWIDTH 16 0
BBX 12 9 1 0
BITMAP
0180
7FC0
2400
0600
0600
0600
0460
FFF0
4000
ENDCHAR
STARTCHAR U+30A8
ENCODING 12456
SWIDTH 1000 0
DWIDTH 16 0
BBX 16 11 0 1
BITMAP
0030
3FF8
1100
0180
0180
0180
0180
0180
0106
FFFF
6000
ENDCHAR
STARTCHAR U+30A9
ENCODING 12457
SWIDTH 1000 0
DWIDTH 16 0
BBX 9 10 2 0
BITMAP
0C00
0600
0400
FF80
0C00
1C00
3400
4400
8C00
0400
ENDCHAR
STARTCHAR U+30AA
ENCODING 12458
SWIDTH 1000 0
DWIDTH 16 0
BBX 16 14 0 0
BITMAP
0060
0030
0020
0026
FFFF
60E0
00E0
01A0
0320
0620
0C20
1820
60E0
0060
ENDCHAR
STARTCHAR U+30AB
ENCODING 12459
SWIDTH 1000 0
DWIDTH 16 0
BBX 13 14 1 0
BITMAP
0600
0300
0200
C3F0
7F18
0418
0C10
0830
1020
3060
2040
42C0
8180
0180
ENDCHAR
STARTCHAR U+30AC
ENCODING 12460
SWIDTH 1000 0
DWIDTH 16 0
BBX 15 14 1 0
BITMAP
0604
0312
0208
C3F0
7F18
0418
0C10
0830
1020
3060
2040
42C0
8180
0180
ENDCHAR
STARTCHAR U+30AD
ENCODING 12461
SWIDTH 1000 0
DWIDTH 16 0
BBX 13 14 1 0
BITMAP
1800
0C00
0CC0
07E0
1E00
F630
03F8
0F80
F100
0180
0080
00C0
0040
0040
ENDCHAR
STARTCHAR U+30AE
ENCODING 12462
SWIDTH 1000 0
DWIDTH 16 0
BBX 15 14 1 0
BITMAP
1804
0C12
0CC8
07E0
1E00
F630
03F8
0F80
F100
0180
0080
00C0
0040
0040
ENDCHAR
STARTCHAR U+30AF
ENCODING 12463
SWIDTH 1000 0
DWIDTH 16 0
BBX 11 14 2 0
BITMAP
0800
0E00
0C00
1FE0
3060
6060
80C0
0180
0300
0600
0C00
1800
3000
C000
ENDCHAR
STARTCHAR U+30B0
ENCODING 12464
SWIDTH 1000 0
DWIDTH 16 0
BBX 14 14 2 0
BITMAP
0808
0E24
0C10
1FC0
3060
6060
80C0
0180
0300
0600
0C00
1800
3000
C000
ENDCHAR
STARTCHAR U+30B1
ENCODING 12465
SWIDTH 1000 0
DWIDTH 16 0
BBX 14 14 1 0
BITMAP
0800
0C00
0C00
1818
3FFC
6180
80C0
00C0
0080
0180
0300
0600
0C00
3000
ENDCHAR
STARTCHAR U+30B2
ENCODING 12466
SWIDTH 1000 0
DWIDTH 16 0
BBX 15 14 1 0
BITMAP
0804
0C12
0C08
1800
3FFC
6180
80C0
00C0
0080
0180
0300
0600
0C00
3000
ENDCHAR
STARTCHAR U+30B3
ENCODING 12467
SWIDTH 1000 0
DWIDTH 16 0
BBX 11 10 3 1
BITMAP
0040
FFE0
4060
0040
00C0
0080
0080
0180
FFC0
4000
ENDCHAR
STARTCHAR U+30B4
ENCODING 12468
SWIDTH 1000 0
DWIDTH 16 0
BBX 13 13 3 1
BITMAP
0010
0048
0020
0000
FFE0
4060
0040
00C0
0080
0080
0180
FFC0
4000
ENDCHAR
STARTCHAR U+30B5
ENCODING 12469
SWIDTH 1000 0
DWIDTH 16 0
BBX 15 14 0 0
BITMAP
00C0
0060
1860
0C44
087E
FFE0
4860
0840
0840
0840
08C0
0080
0080
0100
ENDCHAR
STARTCHAR U+30B6
ENCODING 12470
SWIDTH 1000 0
DWIDTH 16 0
BBX 16 14 0 0
BITMAP
00C2
0069
1844
0C40
087E
FFE0
4860
0840
0840
0840
08C0
0080
0080
0100
ENDCHAR
STARTCHAR U+30B7
ENCODING 12471
SWIDTH 1000 0
DWIDTH 16 0
BBX 12 12 3 1
BITMAP
7800
1C00
0000
0010
F020
3840
0080
0180
0700
FC00
7000
6000
ENDCHAR
STARTCHAR U+30B8
ENCODING 12472
SWIDTH 1000 0
DWIDTH 16 0
BBX 13 13 3 1
BITMAP
0010
7848
1C20
0000
0010
F020
3840
0080
0180
0700
FC00
7000
6000
ENDCHAR
STARTCHAR U+30B9
ENCODING 12473
SWIDTH 1000 0
DWIDTH 16 0
BBX 14 11 1 1
BITMAP
0020
20F0
1F70
0C60
00C0
0180
0380
0660
1838
601C
800C
ENDCHAR
STARTCHAR U+30BA
ENCODING 12474
SWIDTH 1000 0
DWIDTH 16 0
BBX 16 13 0 1
BITMAP
0002
0009
0004
20E0
1F70
0C60
00C0
0180
0380
0660
1830
601C
800C
ENDCHAR
STARTCHAR U+30BB
ENCODING 12475
SWIDTH 1000 0
DWIDTH 16 0
BBX 15 12 0 1
BITMAP
0C00
0600
0600
04F8
0F8C
F418
4430
0440
0400
0400
038C
00FE
ENDCHAR
STARTCHAR U+30BC
ENCODING 12476
SWIDTH 1000 0
DWIDTH 16 0
BBX 16 13 0 1
BITMAP
0002
0C09
0604
0600
04F8
0F8C
F418
4430
0440
0400
0400
038C
00FE
ENDCHAR
STARTCHAR U+30BD
ENCODING 12477
SWIDTH 1000 0
DWIDTH 16 0
BBX 11 13 2 0
BITMAP
00C0
0060
8060
6040
30C0
3080
1180
0100
0300
0200
0400
0800
1000
ENDCHAR
STARTCHAR U+30BE
ENCODING 12478
SWIDTH 1000 0
DWIDTH 16 0
BBX 16 14 0 0
BITMAP
0002
00C9
0064
8060
6040
30C0
3080
1180
0100
0300
0200
0400
0800
1000
ENDCHAR
STARTCHAR U+30BF
ENCODING 12479
SWIDTH 1000 0
DWIDTH 16 0
BBX 11 14 2 0
BITMAP
0800
0E00
0C00
1FE0
3060
6060
98C0
0D80
0700
0600
0C00
1800
3000
C000
ENDCHAR
STARTCHAR U+30C0
ENCODING 12480
SWIDTH 1000 0
DWIDTH 16 0
BBX 14 14 2 0
BITMAP
0808
0E24
0C10
1FE0
3060
6060
98C0
0D80
0700
0600
0C00
1800
3000
C000
ENDCHAR
STARTCHAR U+30C1
ENCODING 12481
SWIDTH 1000 0
DWIDTH 16 0
BBX 15 13 0 0
BITMAP
0020
01C0
1F00
0100
018C
C1FE
7F80
0180
0180
0100
0100
0100
0200
ENDCHAR
STARTCHAR U+30C2
ENCODING 12482
SWIDTH 1000 0
DWIDTH 16 0
BBX 16 14 0 0
BITMAP
0002
0029
01C4
1F00
0100
018C
C1FE
7F80
0180
0180
0100
0100
0100
0200
ENDCHAR
STARTCHAR U+30C3
ENCODING 12483
SWIDTH 1000 0
DWIDTH 16 0
BBX 10 9 2 0
BITMAP
0880
8CC0
4CC0
6880
2180
0100
0200
0400
1800
ENDCHAR
STARTCHAR U+30C4
ENCODING 12484
SWIDTH 1000 0
DWIDTH 16 0
BBX 12 12 1 0
BITMAP
0420
8630
4630
6630
6620
2060
0040
00C0
0080
0100
0600
1800
ENDCHAR
STARTCHAR U+30C5
ENCODING 12485
SWIDTH 1000 0
DWIDTH 16 0
BBX 16 14 0 0
BITMAP
0002
0009
0424
8630
4630
6630
6620
2060
0040
00C0
0080
0100
0600
1800
ENDCHAR
STARTCHAR U+30C6
ENCODING 12486
SWIDTH 1000 0
DWIDTH 16 0
BBX 16 12 0 0
BITMAP
1FF0
0C00
0006
FFFF
6100
0180
0180
0180
0180
0100
0300
0400
ENDCHAR
STARTCHAR U+30C7
ENCODING 12487
SWIDTH 1000 0
DWIDTH 16 0
BBX 16 14 0 0
BITMAP
0002
0009
1FF4
0C00
0006
FFFF
6100
0180
0180
0180
0180
0100
0300
0400
ENDCHAR
STARTCHAR U+30C8
ENCODING 12488
SWIDTH 1000 0
DWIDTH 16 0
BBX 8 14 5 0
BITMAP
C0
70
60
60
60
78
6E
63
63
61
60
40
40
40
ENDCHAR
STARTCHAR U+30C9
ENCODING 12489
SWIDTH 1000 0
DWIDTH 16 0
BBX 10 14 5 0
BITMAP
C000
7080
6240
6100
6000
7800
6E00
6300
6300
6100
6000
4000
4000
4000
ENDCHAR
STARTCHAR U+30CA
ENCODING 12490
SWIDTH 1000 0
DWIDTH 16 0
BBX 16 14 0 0
BITMAP
0300
0180
0180
0186
81FF
7F80
0100
0100
0100
0100
0300
0200
0200
0400
ENDCHAR
STARTCHAR U+30CB
ENCODING 12491
SWIDTH 1000 0
DWIDTH 16 0
BBX 15 10 0 2
BITMAP
0020
1FF0
0800
0000
0000
0000
0000
0000
C3F8
7C1E
ENDCHAR
STARTCHAR U+30CC
ENCODING 12492
SWIDTH 1000 0
DWIDTH 16 0
BBX 11 12 2 0
BITMAP
40C0
3FE0
00C0
0180
6100
1B00
0600
0780
08C0
1000
6000
8000
ENDCHAR
STARTCHAR U+30CD
ENCODING 12493
SWIDTH 1000 0
DWIDTH 16 0
BBX 14 14 1 0
BITMAP
0200
0100
0180
00A0
7FE0
31C0
0300
06C0
0E30
3318
C30C
0300
0200
0200
ENDCHAR
STARTCHAR U+30CE
ENCODING 12494
SWIDTH 1000 0
DWIDTH 16 0
BBX 11 13 2 0
BITMAP
00C0
0060
0060
0040
00C0
0080
0180
0200
0600
0800
1000
6000
8000
ENDCHAR
STARTCHAR U+30CF
ENCODING 12495
SWIDTH 1000 0
DWIDTH 16 0
BBX 14 9 1 2
BITMAP
0880
0C40
0C20
0830
1818
1008
200C
600C
8004
ENDCHAR
STARTCHAR U+30D0
ENCODING 12496
SWIDTH 1000 0
DWIDTH 16 0
BBX 15 12 1 2
BITMAP
0004
0012
0008
0880
0C40
0C20
0830
1818
1008
200C
600C
8004
ENDCHAR
STARTCHAR U+30D1
ENCODING 12497
SWIDTH 1000 0
DWIDTH 16 0
BBX 15 12 1 2
BITMAP
000C
0012
0012
088C
0C40
0C20
0830
1818
1008
200C
600C
8004
ENDCHAR
STARTCHAR U+30D2
ENCODING 12498
SWIDTH 1000 0
DWIDTH 16 0
BBX 12 12 2 1
BITMAP
C000
7000
6000
6080
7FC0
6000
4000
4000
4000
6000
3870
0FE0
ENDCHAR
STARTCHAR U+30D3
ENCODING 12499
SWIDTH 1000 0
DWIDTH 16 0
BBX 14 13 2 1
BITMAP
0008
C024
7010
6000
6080
7FC0
6000
4000
4000
4000
6000
3870
0FE0
ENDCHAR
STARTCHAR U+30D4
ENCODING 12500
SWIDTH 1000 0
DWIDTH 16 0
BBX 14 13 2 1
BITMAP
0018
C024
7024
6018
6080
7FC0
6000
4000
4000
4000
6000
3870
0FE0
ENDCHAR
STARTCHAR U+30D5
ENCODING 12501
SWIDTH 1000 0
DWIDTH 16 0
BBX 12 11 2 1
BITMAP
81E0
7F70
3860
0060
0040
00C0
0080
0180
0100
0600
1800
ENDCHAR
STARTCHAR U+30D6
ENCODING 12502
SWIDTH 1000 0
DWIDTH 16 0
BBX 16 13 0 1
BITMAP
0002
0009
81E4
7F70
3860
0060
0040
00C0
0080
0180
0100
0600
1800
ENDCHAR
STARTCHAR U+30D7
ENCODING 12503
SWIDTH 1000 0
DWIDTH 16 0
BBX 16 13 0 1
BITMAP
0006
0009
81E9
7F76
3860
0060
0040
00C0
0080
0180
0100
0600
1800
ENDCHAR
STARTCHAR U+30D8
ENCODING 12504
SWIDTH 1000 0
DWIDTH 16 0
BBX 16 9 0 2
BITMAP
0C00
0A00
1900
1080
3040
6030
C018
000E
0003
ENDCHAR
STARTCHAR U+30D9
ENCODING 12505
SWIDTH 1000 0
DWIDTH 16 0
BBX 16 11 0 2
BITMAP
0010
0048
0C20
0A00
1900
1080
3040
6030
C018
000E
0003
ENDCHAR
STARTCHAR U+30DA
ENCODING 12506
SWIDTH 1000 0
DWIDTH 16 0
BBX 16 11 0 2
BITMAP
0030
0048
0C48
0A30
1900
1080
3040
6030
C018
000E
0003
ENDCHAR
STARTCHAR U+30DB
ENCODING 12507
SWIDTH 1000 0
DWIDTH 16 0
BBX 13 14 1 0
BITMAP
0600
0380
0300
0330
C7F8
7B00
0300
0220
2210
2218
6308
CB08
0700
0200
ENDCHAR
STARTCHAR U+30DC
ENCODING 12508
SWIDTH 1000 0
DWIDTH 16 0
BBX 15 14 1 0
BITMAP
0604
0392
0308
0300
C7F8
7B00
0300
0220
2210
2218
6308
CB08
0700
0200
ENDCHAR
STARTCHAR U+30DD
ENCODING 12509
SWIDTH 1000 0
DWIDTH 16 0
BBX 15 14 1 0
BITMAP
060C
0392
0312
030C
C7F0
7B00
0300
0220
2210
2218
6308
CB08
0700
0200
ENDCHAR
STARTCHAR U+30DE
ENCODING 12510
SWIDTH 1000 0
DWIDTH 16 0
BBX 14 11 0 0
BITMAP
0038
C3FC
7E1C
3018
0030
0060
0480
0300
0180
0180
0080
ENDCHAR
STARTCHAR U+30DF
ENCODING 12511
SWIDTH 1000 0
DWIDTH 16 0
BBX 8 14 4 0
BITMAP
80
60
1E
07
80
60
1E
07
00
C0
38
0C
07
01
ENDCHAR
STARTCHAR U+30E0
ENCODING 12512
SWIDTH 1000 0
DWIDTH 16 0
BBX 15 12 0 1
BITMAP
0300
01C0
0180
0100
0300
0220
0610
0408
080C
907C
7F86
3802
ENDCHAR
STARTCHAR U+30E1
ENCODING 12513
SWIDTH 1000 0
DWIDTH 16 0
BBX 11 13 2 0
BITMAP
00C0
0060
0060
3040
0CC0
0380
0180
03C0
0660
0820
1000
6000
8000
ENDCHAR
STARTCHAR U+30E2
ENCODING 12514
SWIDTH 1000 0
DWIDTH 16 0
BBX 15 12 0 0
BITMAP
2030
1FF8
0200
0300
030C
83FE
7F00
3200
0200
0300
018C
00FE
ENDCHAR
STARTCHAR U+30E3
ENCODING 12515
SWIDTH 1000 0
DWIDTH 16 0
BBX 11 9 0 0
BITMAP
3000
1800
09C0
0E60
F480
4400
0600
0200
0200
ENDCHAR
STARTCHAR U+30E4
ENCODING 12516
SWIDTH 1000 0
DWIDTH 16 0
BBX 15 14 0 0
BITMAP
1800
0C00
0400
043C
07CE
FA18
6220
0300
0100
0100
0180
0080
0080
0080
ENDCHAR
STARTCHAR U+30E5
ENCODING 12517
SWIDTH 1000 0
DWIDTH 16 0
BBX 12 8 0 0
BITMAP
0080
3FC0
10C0
0080
0080
0120
FFF0
6000
ENDCHAR
STARTCHAR U+30E6
ENCODING 12518
SWIDTH 1000 0
DWIDTH 16 0
BBX 16 10 0 0
BITMAP
40F0
3F38
1830
0030
0020
0060
0040
83FE
7E07
3000
ENDCHAR
STARTCHAR U+30E7
ENCODING 12519
SWIDTH 1000 0
DWIDTH 16 0
BBX 9 9 2 0
BITMAP
0100
FF80
4180
0180
FF80
4100
0100
FF00
4000
ENDCHAR
STARTCHAR U+30E8
ENCODING 12520
SWIDTH 1000 0
DWIDTH 16 0
BBX 13 12 1 1
BITMAP
8030
7FF8
2018
0010
0010
7FF0
3030
0020
0020
0060
7FF0
3800
ENDCHAR
STARTCHAR U+30E9
ENCODING 12521
SWIDTH 1000 0
DWIDTH 16 0
BBX 13 12 1 0
BITMAP
7FE0
3000
0030
FFF8
6030
0030
0020
0060
00C0
0180
0600
1800
ENDCHAR
STARTCHAR U+30EA
ENCODING 12522
SWIDTH 1000 0
DWIDTH 16 0
BBX 11 14 2 0
BITMAP
0180
C0E0
60C0
60C0
60C0
60C0
60C0
60C0
4080
4080
0180
0100
0600
3800
ENDCHAR
STARTCHAR U+30EB
ENCODING 12523
SWIDTH 1000 0
DWIDTH 16 0
BBX 16 13 0 0
BITMAP
0300
3180
1980
1100
1100
1100
1101
3102
2104
2118
6130
41E0
80C0
ENDCHAR
STARTCHAR U+30EC
ENCODING 12524
SWIDTH 1000 0
DWIDTH 16 0
BBX 12 13 2 0
BITMAP
C000
7000
6000
6000
6000
4010
4020
4060
4080
4180
4600
FC00
7000
ENDCHAR
STARTCHAR U+30ED
ENCODING 12525
SWIDTH 1000 0
DWIDTH 16 0
BBX 12 10 1 1
BITMAP
C060
7FF0
6030
6020
2020
2060
2040
20C0
3FF0
2040
ENDCHAR
STARTCHAR U+30EE
ENCODING 12526
SWIDTH 1000 0
DWIDTH 16 0
BBX 9 9 2 -1
BITMAP
8100
7F80
4180
4180
4100
0300
0200
0400
0800
ENDCHAR
STARTCHAR U+30EF
ENCODING 12527
SWIDTH 1000 0
DWIDTH 16 0
BBX 13 12 1 0
BITMAP
C070
7FF8
4030
4030
4020
4060
0040
00C0
0080
0100
0200
0400
ENDCHAR
STARTCHAR U+30F0
ENCODING 12528
SWIDTH 1000 0
DWIDTH 16 0
BBX 16 14 0 0
BITMAP
0180
00C0
0080
3FFC
1880
1880
1080
2086
FFFF
4080
0080
0080
0080
0080
ENDCHAR
STARTCHAR U+30F1
ENCODING 12529
SWIDTH 1000 0
DWIDTH 16 0
BBX 14 11 1 1
BITMAP
01E0
7E70
30C0
0500
0400
0600
0600
0400
0400
C7F8
783C
ENDCHAR
STARTCHAR U+30F2
ENCODING 12530
SWIDTH 1000 0
DWIDTH 16 0
BBX 13 12 1 1
BITMAP
40F0
3F38
1838
0030
87E0
7C60
20C0
0080
0100
0200
0400
0800
ENDCHAR
STARTCHAR U+30F3
ENCODING 12531
SWIDTH 1000 0
DWIDTH 16 0
BBX 13 11 1 1
BITMAP
C000
3000
3808
1810
0020
00C0
0180
0700
9C00
7800
7000
ENDCHAR
STARTCHAR U+30F4
ENCODING 12532
SWIDTH 1000 0
DWIDTH 16 0
BBX 14 14 1 0
BITMAP
0C08
0624
0610
C400
7FF0
6030
6030
4020
4060
0040
00C0
0080
0100
0200
ENDCHAR
STARTCHAR U+30F5
ENCODING 12533
SWIDTH 1000 0
DWIDTH 16 0
BBX 9 10 2 0
BITMAP
1800
1800
FF80
1180
3180
2100
6300
4200
9600
0C00
ENDCHAR
STARTCHAR U+30F6
ENCODING 12534
SWIDTH 1000 0
DWIDTH 16 0
BBX 9 10 2 0
BITMAP
0800
0C00
1800
3F80
C400
0600
0600
0C00
0800
1000
ENDCHAR
STARTCHAR U+3131
ENCODING 12593
SWIDTH 1000 0
DWIDTH 16 0
BBX 10 8 3 2
BITMAP
FFC0
60C0
00C0
00C0
00C0
00C0
00C0
0080
ENDCHAR
STARTCHAR U+3132
ENCODING 12594
SWIDTH 1000 0
DWIDTH 16 0
BBX 11 8 2 2
BITMAP
FFE0
0C60
0C60
0C60
0C60
0860
0840
1080
ENDCHAR
STARTCHAR U+3133
ENCODING 12595
SWIDTH 1000 0
DWIDTH 16 0
BBX 15 8 0 2
BITMAP
FC30
0C30
0C30
0C38
0C6C
0CCE
0D86
0A00
ENDCHAR
STARTCHAR U+3134
ENCODING 12596
SWIDTH 1000 0
DWIDTH 16 0
BBX 11 8 2 2
BITMAP
C000
6000
6000
6000
6000
6020
71C0
3F00
ENDCHAR
STARTCHAR U+3135
ENCODING 12597
SWIDTH 1000 0
DWIDTH 16 0
BBX 15 8 1 2
BITMAP
C0FC
600C
6018
6030
6078
60CC
6386
3D02
ENDCHAR
STARTCHAR U+3136
ENCODING 12598
SWIDTH 1000 0
DWIDTH 16 0
BBX 14 8 1 2
BITMAP
C060
6030
61FC
6070
61DC
618C
67DC
3C70
ENDCHAR
STARTCHAR U+3137
ENCODING 12599
SWIDTH 1000 0
DWIDTH 16 0
BBX 11 8 2 2
BITMAP
FF80
6000
6000
6000
6000
6020
71C0
3F00
ENDCHAR
STARTCHAR U+3138
ENCODING 12600
SWIDTH 1000 0
DWIDTH 16 0
BBX 11 8 2 2
BITMAP
FFC0
6600
6600
6600
6600
6620
7FC0
3380
ENDCHAR
STARTCHAR U+3139
ENCODING 12601
SWIDTH 1000 0
DWIDTH 16 0
BBX 10 9 3 1
BITMAP
FF80
6180
0180
0300
FF80
6000
6040
7180
3F00
ENDCHAR
STARTCHAR U+313A
ENCODING 12602
SWIDTH 1000 0
DWIDTH 16 0
BBX 14 8 1 2
BITMAP
FEFC
660C
040C
FE0C
600C
600C
660C
3F08
ENDCHAR
STARTCHAR U+313B
ENCODING 12603
SWIDTH 1000 0
DWIDTH 16 0
BBX 14 8 1 2
BITMAP
FFFC
66CC
04CC
FECC
60CC
60C8
66C8
3FFC
ENDCHAR
STARTCHAR U+313C
ENCODING 12604
SWIDTH 1000 0
DWIDTH 16 0
BBX 14 9 1 2
BITMAP
0018
FD8C
6CCC
0CCC
F8FC
60CC
60CC
66CC
3FFC
ENDCHAR
STARTCHAR U+313D
ENCODING 12605
SWIDTH 1000 0
DWIDTH 16 0
BBX 14 8 1 2
BITMAP
FC60
6C30
0C30
F830
6060
60D8
6D8C
3F0C
ENDCHAR
STARTCHAR U+313E
ENCODING 12606
SWIDTH 1000 0
DWIDTH 16 0
BBX 14 8 1 2
BITMAP
FDF8
6CC0
0CC0
F8F8
60C0
60C0
66C8
3F7C
ENDCHAR
STARTCHAR U+313F
ENCODING 12607
SWIDTH 1000 0
DWIDTH 16 0
BBX 14 8 1 2
BITMAP
FDFC
6CD8
0CD8
F8D8
60D8
60D8
6C50
3FFC
ENDCHAR
STARTCHAR U+3140
ENCODING 12608
SWIDTH 1000 0
DWIDTH 16 0
BBX 15 9 1 2
BITMAP
0060
FC30
6DFE
0C80
F878
60CC
60CC
6CCC
3E78
ENDCHAR
STARTCHAR U+3141
ENCODING 12609
SWIDTH 1000 0
DWIDTH 16 0
BBX 10 8 2 1
BITMAP
FFC0
60C0
60C0
60C0
60C0
6080
7FC0
4000
ENDCHAR
STARTCHAR U+3142
ENCODING 12610
SWIDTH 1000 0
DWIDTH 16 0
BBX 10 8 2 2
BITMAP
0180
C0C0
60C0
60C0
7FC0
60C0
60C0
7FC0
ENDCHAR
STARTCHAR U+3143
ENCODING 12611
SWIDTH 1000 0
DWIDTH 16 0
BBX 12 8 1 2
BITMAP
0060
1B30
CDB0
6DB0
7DF0
6DB0
6DB0
7DF0
ENDCHAR
STARTCHAR U+3144
ENCODING 12612
SWIDTH 1000 0
DWIDTH 16 0
BBX 16 8 0 2
BITMAP
0C18
C60C
660C
6618
7E38
666E
66C7
7F83
ENDCHAR
STARTCHAR U+3145
ENCODING 12613
SWIDTH 1000 0
DWIDTH 16 0
BBX 10 9 3 1
BITMAP
0600
0300
0300
0600
0C00
1A00
3180
60C0
80C0
ENDCHAR
STARTCHAR U+3146
ENCODING 12614
SWIDTH 1000 0
DWIDTH 16 0
BBX 13 8 0 2
BITMAP
00C0
0C60
0CC0
1980
3780
66E0
8C38
1018
ENDCHAR
STARTCHAR U+3147
ENCODING 12615
SWIDTH 1000 0
DWIDTH 16 0
BBX 9 7 3 2
BITMAP
3E00
6300
C180
C180
C180
6300
1C00
ENDCHAR
STARTCHAR U+3148
ENCODING 12616
SWIDTH 1000 0
DWIDTH 16 0
BBX 11 9 3 1
BITMAP
3FC0
1980
0300
0600
0E00
1980
30E0
6060
8000
ENDCHAR
STARTCHAR U+3149
ENCODING 12617
SWIDTH 1000 0
DWIDTH 16 0
BBX 13 8 0 2
BITMAP
7FF0
3330
0660
0CC0
1D80
3760
6638
8818
ENDCHAR
STARTCHAR U+314A
ENCODING 12618
SWIDTH 1000 0
DWIDTH 16 0
BBX 10 10 1 1
BITMAP
1C00
0E00
7FC0
3380
0700
0F00
1980
30C0
60C0
8000
ENDCHAR
STARTCHAR U+314B
ENCODING 12619
SWIDTH 1000 0
DWIDTH 16 0
BBX 8 8 4 2
BITMAP
FF
63
03
FE
0C
18
30
C0
ENDCHAR
STARTCHAR U+314C
ENCODING 12620
SWIDTH 1000 0
DWIDTH 16 0
BBX 10 8 3 2
BITMAP
FF80
6000
6000
7F80
6000
6000
6180
3FC0
ENDCHAR
STARTCHAR U+314D
ENCODING 12621
SWIDTH 1000 0
DWIDTH 16 0
BBX 11 9 3 1
BITMAP
7F80
0000
3300
3300
3200
1200
1240
FFE0
6000
ENDCHAR
STARTCHAR U+314E
ENCODING 12622
SWIDTH 1000 0
DWIDTH 16 0
BBX 11 9 2 2
BITMAP
0C00
0600
FFE0
6000
0F00
1980
30C0
1980
0F00
ENDCHAR
STARTCHAR U+314F
ENCODING 12623
SWIDTH 1000 0
DWIDTH 16 0
BBX 6 14 10 -1
BITMAP
C0
60
60
60
60
60
7C
60
60
60
60
60
60
40
ENDCHAR
STARTCHAR U+3150
ENCODING 12624
SWIDTH 1000 0
DWIDTH 16 0
BBX 6 14 8 -1
BITMAP
18
CC
6C
6C
6C
6C
7C
6C
6C
6C
6C
4C
0C
08
ENDCHAR
STARTCHAR U+3151
ENCODING 12625
SWIDTH 1000 0
DWIDTH 16 0
BBX 6 14 10 -1
BITMAP
C0
60
60
60
60
7C
60
60
7C
60
60
60
60
40
ENDCHAR
STARTCHAR U+3152
ENCODING 12626
SWIDTH 1000 0
DWIDTH 16 0
BBX 6 15 8 -1
BITMAP
18
CC
6C
6C
6C
7C
6C
6C
7C
6C
6C
6C
4C
0C
08
ENDCHAR
STARTCHAR U+3153
ENCODING 12627
SWIDTH 1000 0
DWIDTH 16 0
BBX 6 15 7 -1
BITMAP
18
0C
0C
0C
0C
0C
0C
FC
0C
0C
0C
0C
0C
0C
08
ENDCHAR
STARTCHAR U+3154
ENCODING 12628
SWIDTH 1000 0
DWIDTH 16 0
BBX 9 15 5 -1
BITMAP
0300
1980
0D80
0D80
0D80
0D80
0D80
FD80
0D80
0D80
0D80
0D80
0980
0180
0100
ENDCHAR
STARTCHAR U+3155
ENCODING 12629
SWIDTH 1000 0
DWIDTH 16 0
BBX 6 15 7 -1
BITMAP
18
0C
0C
0C
0C
FC
0C
0C
FC
0C
0C
0C
0C
0C
08
ENDCHAR
STARTCHAR U+3156
ENCODING 12630
SWIDTH 1000 0
DWIDTH 16 0
BBX 9 15 5 -1
BITMAP
0300
1980
0D80
0D80
0D80
FD80
0D80
0D80
FD80
0D80
0D80
0D80
0980
0180
0100
ENDCHAR
STARTCHAR U+3157
ENCODING 12631
SWIDTH 1000 0
DWIDTH 16 0
BBX 15 6 1 0
BITMAP
0600
0300
0300
030C
FFFE
6000
ENDCHAR
STARTCHAR U+3158
ENCODING 12632
SWIDTH 1000 0
DWIDTH 16 0
BBX 14 15 1 -1
BITMAP
0060
0030
0030
0030
0030
0030
0030
0030
3030
183C
18F0
FF30
6030
0030
0020
ENDCHAR
STARTCHAR U+3159
ENCODING 12633
SWIDTH 1000 0
DWIDTH 16 0
BBX 15 15 0 -1
BITMAP
000C
0066
0036
0036
0036
0036
0036
0036
183E
0C36
0CF6
FF36
6026
0006
0004
ENDCHAR
STARTCHAR U+315A
ENCODING 12634
SWIDTH 1000 0
DWIDTH 16 0
BBX 13 15 1 -1
BITMAP
0030
0018
0018
0018
0018
0018
0018
0018
1818
0C18
0C78
FF98
6018
0018
0010
ENDCHAR
STARTCHAR U+315B
ENCODING 12635
SWIDTH 1000 0
DWIDTH 16 0
BBX 14 6 1 0
BITMAP
0180
18C0
0CC0
0CC0
FFFC
6000
ENDCHAR
STARTCHAR U+315C
ENCODING 12636
SWIDTH 1000 0
DWIDTH 16 0
BBX 14 9 1 -1
BITMAP
0018
FFFC
6300
0300
0300
0300
0300
0300
0200
ENDCHAR
STARTCHAR U+315D
ENCODING 12637
SWIDTH 1000 0
DWIDTH 16 0
BBX 12 15 1 -1
BITMAP
0060
0030
0030
0030
0030
0030
0030
00F0
FF30
5830
19F0
1830
1830
1030
0020
ENDCHAR
STARTCHAR U+315E
ENCODING 12638
SWIDTH 1000 0
DWIDTH 16 0
BBX 14 15 0 -1
BITMAP
0018
00CC
006C
006C
006C
006C
006C
01EC
FE6C
586C
1BEC
186C
186C
104C
0008
ENDCHAR
STARTCHAR U+315F
ENCODING 12639
SWIDTH 1000 0
DWIDTH 16 0
BBX 13 15 1 -1
BITMAP
0030
0018
0018
0018
0018
0018
0018
0078
FF98
4C18
0C18
0C18
0C18
0818
0010
ENDCHAR
STARTCHAR U+3160
ENCODING 12640
SWIDTH 1000 0
DWIDTH 16 0
BBX 14 9 1 -1
BITMAP
0008
FFFC
4CC0
0CC0
0CC0
0CC0
08C0
00C0
0080
ENDCHAR
STARTCHAR U+3161
ENCODING 12641
SWIDTH 1000 0
DWIDTH 16 0
BBX 14 3 1 0
BITMAP
0018
FFFC
6000
ENDCHAR
STARTCHAR U+3162
ENCODING 12642
SWIDTH 1000 0
DWIDTH 16 0
BBX 13 15 1 -1
BITMAP
0030
0018
0018
0018
0018
0018
0018
0018
0018
0078
FF98
6018
0018
0018
0010
ENDCHAR
STARTCHAR U+3163
ENCODING 12643
SWIDTH 1000 0
DWIDTH 16 0
BBX 3 15 10 -1
BITMAP
C0
60
60
60
60
60
60
60
60
60
60
60
60
60
40
ENDCHAR
STARTCHAR U+3164
ENCODING 12644
SWIDTH 1000 0
DWIDTH 16 0
BBX 1 1 15 -2
BITMAP
00
ENDCHAR
STARTCHAR U+3165
ENCODING 12645
SWIDTH 1000 0
DWIDTH 16 0
BBX 16 8 0 2
BITMAP
C0C0
6060
6060
6060
6060
6163
7E7E
3838
ENDCHAR
STARTCHAR U+3166
ENCODING 12646
SWIDTH 1000 0
DWIDTH 16 0
BBX 16 8 0 2
BITMAP
C0FE
6060
6060
6060
6060
6060
7363
3C3C
ENDCHAR
STARTCHAR U+3167
ENCODING 12647
SWIDTH 1000 0
DWIDTH 16 0
BBX 15 8 0 2
BITMAP
C030
6018
6018
6030
6068
60CC
6D86
3A06
ENDCHAR
STARTCHAR U+3168
ENCODING 12648
SWIDTH 1000 0
DWIDTH 16 0
BBX 16 8 0 2
BITMAP
C010
6038
606C
606C
60C6
60C6
7783
3DFF
ENDCHAR
STARTCHAR U+3169
ENCODING 12649
SWIDTH 1000 0
DWIDTH 16 0
BBX 16 8 0 2
BITMAP
FFDC
18CC
18CC
F8CC
C0DE
C0DB
CCB3
70A3
ENDCHAR
STARTCHAR U+316A
ENCODING 12650
SWIDTH 1000 0
DWIDTH 16 0
BBX 16 8 0 2
BITMAP
FEFE
6660
0660
FC60
6060
6060
6661
3F3E
ENDCHAR
STARTCHAR U+316B
ENCODING 12651
SWIDTH 1000 0
DWIDTH 16 0
BBX 16 8 0 2
BITMAP
FC8C
1ECC
1ECC
F7CC
C6CE
C6DA
CEF3
77E3
ENDCHAR
STARTCHAR U+316C
ENCODING 12652
SWIDTH 1000 0
DWIDTH 16 0
BBX 15 8 0 2
BITMAP
FC20
6C70
0CD8
F8D8
C18C
C18C
C706
7BFE
ENDCHAR
STARTCHAR U+316D
ENCODING 12653
SWIDTH 1000 0
DWIDTH 16 0
BBX 15 8 0 2
BITMAP
FEFE
6600
0638
7C6C
60C6
60C6
66EE
387C
ENDCHAR
STARTCHAR U+316E
ENCODING 12654
SWIDTH 1000 0
DWIDTH 16 0
BBX 15 9 0 2
BITMAP
000C
FEC6
6666
6666
667E
6666
6666
6466
7E7E
ENDCHAR
STARTCHAR U+316F
ENCODING 12655
SWIDTH 1000 0
DWIDTH 16 0
BBX 16 8 0 2
BITMAP
FE18
660C
660C
660C
6618
6634
6463
7E83
ENDCHAR
STARTCHAR U+3170
ENCODING 12656
SWIDTH 1000 0
DWIDTH 16 0
BBX 16 8 0 2
BITMAP
FE10
C618
C62C
C66C
C6C6
C6C6
C783
FFFF
ENDCHAR
STARTCHAR U+3171
ENCODING 12657
SWIDTH 1000 0
DWIDTH 16 0
BBX 11 9 2 1
BITMAP
FFE0
6060
6040
7FE0
0000
1F80
30C0
30C0
1F80
ENDCHAR
STARTCHAR U+3172
ENCODING 12658
SWIDTH 1000 0
DWIDTH 16 0
BBX 15 9 0 1
BITMAP
06FE
C366
6306
6306
7F06
6306
6306
7F06
4204
ENDCHAR
STARTCHAR U+3173
ENCODING 12659
SWIDTH 1000 0
DWIDTH 16 0
BBX 16 9 0 2
BITMAP
0600
C3FF
6360
6360
7F60
6360
6361
637E
7F38
ENDCHAR
STARTCHAR U+3174
ENCODING 12660
SWIDTH 1000 0
DWIDTH 16 0
BBX 16 8 0 2
BITMAP
CDBF
CCDB
CCC3
FCC3
CCC3
CDA3
CF33
FE1A
ENDCHAR
STARTCHAR U+3175
ENCODING 12661
SWIDTH 1000 0
DWIDTH 16 0
BBX 16 8 0 2
BITMAP
DB3F
D998
D998
F998
D998
DB58
DE79
FC3E
ENDCHAR
STARTCHAR U+3176
ENCODING 12662
SWIDTH 1000 0
DWIDTH 16 0
BBX 16 8 0 2
BITMAP
0C7E
C60C
660C
7E18
6638
6666
66C3
7F03
ENDCHAR
STARTCHAR U+3177
ENCODING 12663
SWIDTH 1000 0
DWIDTH 16 0
BBX 16 9 0 2
BITMAP
0600
C2FE
6360
6360
7F7E
6360
6360
6366
7F3F
ENDCHAR
STARTCHAR U+3178
ENCODING 12664
SWIDTH 1000 0
DWIDTH 16 0
BBX 11 12 2 0
BITMAP
00C0
C060
6060
7FE0
6060
6060
7FE0
0000
1F80
30C0
30C0
1F80
ENDCHAR
STARTCHAR U+3179
ENCODING 12665
SWIDTH 1000 0
DWIDTH 16 0
BBX 11 12 3 0
BITMAP
00C0
CC60
6660
7FE0
6660
6660
7FE0
0000
1F80
30C0
30C0
1F80
ENDCHAR
STARTCHAR U+317A
ENCODING 12666
SWIDTH 1000 0
DWIDTH 16 0
BBX 14 8 1 2
BITMAP
19FC
0CCC
0C0C
0C0C
1C0C
360C
630C
8308
ENDCHAR
STARTCHAR U+317B
ENCODING 12667
SWIDTH 1000 0
DWIDTH 16 0
BBX 15 8 1 2
BITMAP
18C0
0C60
0C60
0C60
1C60
3260
6366
81BC
ENDCHAR
STARTCHAR U+317C
ENCODING 12668
SWIDTH 1000 0
DWIDTH 16 0
BBX 16 8 0 2
BITMAP
18FE
0C60
0C60
0C60
1C60
3660
6361
81BE
ENDCHAR
STARTCHAR U+317D
ENCODING 12669
SWIDTH 1000 0
DWIDTH 16 0
BBX 15 8 0 2
BITMAP
18CC
0C66
0C66
0C7E
1C66
3266
6366
81FE
ENDCHAR
STARTCHAR U+317E
ENCODING 12670
SWIDTH 1000 0
DWIDTH 16 0
BBX 16 8 0 2
BITMAP
187E
0C06
0C0C
0C18
1C30
376C
63C7
8103
ENDCHAR
STARTCHAR U+317F
ENCODING 12671
SWIDTH 1000 0
DWIDTH 16 0
BBX 14 7 1 2
BITMAP
0300
0780
0CC0
1860
3030
6018
FFFC
ENDCHAR
STARTCHAR U+3180
ENCODING 12672
SWIDTH 1000 0
DWIDTH 16 0
BBX 15 8 1 3
BITMAP
3030
3030
7C7C
C6C6
C6C6
C6C6
C6C6
7C7C
ENDCHAR
STARTCHAR U+3181
ENCODING 12673
SWIDTH 1000 0
DWIDTH 16 0
BBX 10 9 3 2
BITMAP
0C00
0C00
0C00
3F00
6180
C0C0
C0C0
6180
3F00
ENDCHAR
STARTCHAR U+3182
ENCODING 12674
SWIDTH 1000 0
DWIDTH 16 0
BBX 14 8 2 2
BITMAP
3060
3030
3030
7830
CC70
CCD8
CD8C
7A0C
ENDCHAR
STARTCHAR U+3183
ENCODING 12675
SWIDTH 1000 0
DWIDTH 16 0
BBX 16 8 0 2
BITMAP
1818
1818
3C3C
663C
C366
C366
66C3
3CFF
ENDCHAR
STARTCHAR U+3184
ENCODING 12676
SWIDTH 1000 0
DWIDTH 16 0
BBX 10 9 3 1
BITMAP
FFC0
3300
3300
FFC0
0000
3F00
6180
6180
3F00
ENDCHAR
STARTCHAR U+3185
ENCODING 12677
SWIDTH 1000 0
DWIDTH 16 0
BBX 15 9 1 1
BITMAP
7038
381C
FEFE
0000
7C7C
C6C6
C6C6
C6C6
7C7C
ENDCHAR
STARTCHAR U+3186
ENCODING 12678
SWIDTH 1000 0
DWIDTH 16 0
BBX 10 9 3 1
BITMAP
FFC0
0000
0000
3F00
7380
6180
6180
7380
3F00
ENDCHAR
STARTCHAR U+3187
ENCODING 12679
SWIDTH 1000 0
DWIDTH 16 0
BBX 15 14 1 -1
BITMAP
0030
0018
0018
0018
0018
001E
0C18
6618
361E
3678
FF98
6018
0018
0010
ENDCHAR
STARTCHAR U+3188
ENCODING 12680
SWIDTH 1000 0
DWIDTH 16 0
BBX 15 14 1 -1
BITMAP
000C
0066
0036
0036
0036
003E
0C36
6636
363E
36F6
FF36
6036
0026
0004
ENDCHAR
STARTCHAR U+3189
ENCODING 12681
SWIDTH 1000 0
DWIDTH 16 0
BBX 13 14 2 -1
BITMAP
0030
0018
0018
0018
0018
0018
0018
0C18
6618
3618
3678
FF98
6018
0010
ENDCHAR
STARTCHAR U+318A
ENCODING 12682
SWIDTH 1000 0
DWIDTH 16 0
BBX 15 14 0 -1
BITMAP
000C
0006
0006
0006
0006
0066
FF86
363E
3606
363E
3606
2606
0406
0004
ENDCHAR
STARTCHAR U+318B
ENCODING 12683
SWIDTH 1000 0
DWIDTH 16 0
BBX 16 14 0 -1
BITMAP
0006
0033
001B
001B
001B
00DB
FF1B
36FB
361B
36FB
361B
241B
0013
0002
ENDCHAR
STARTCHAR U+318C
ENCODING 12684
SWIDTH 1000 0
DWIDTH 16 0
BBX 14 14 1 -1
BITMAP
0018
000C
000C
000C
000C
006C
FF8C
360C
360C
360C
360C
240C
000C
0008
ENDCHAR
STARTCHAR U+318D
ENCODING 12685
SWIDTH 1000 0
DWIDTH 16 0
BBX 2 2 7 5
BITMAP
C0
C0
ENDCHAR
STARTCHAR U+318E
ENCODING 12686
SWIDTH 1000 0
DWIDTH 16 0
BBX 10 14 5 -1
BITMAP
0180
00C0
00C0
00C0
00C0
00C0
00C0
00C0
C0C0
C0C0
00C0
00C0
00C0
0080
ENDCHAR
STARTCHAR U+3200
ENCODING 12800
SWIDTH 1000 0
DWIDTH 16 0
BBX 14 10 1 1
BITMAP
2010
4008
5FE8
8024
8024
8024
8044
4088
4108
2410
ENDCHAR
STARTCHAR U+3201
ENCODING 12801
SWIDTH 1000 0
DWIDTH 16 0
BBX 14 10 1 1
BITMAP
2010
4008
5008
9004
9004
9004
9004
5028
4FC8
2010
ENDCHAR
STARTCHAR U+3202
ENCODING 12802
SWIDTH 1000 0
DWIDTH 16 0
BBX 14 10 1 1
BITMAP
2010
4008
5FE8
9004
9004
9004
9004
5028
4FC8
2010
ENDCHAR
STARTCHAR U+3203
ENCODING 12803
SWIDTH 1000 0
DWIDTH 16 0
BBX 14 10 1 1
BITMAP
2010
4008
5FE8
8024
8024
9FE4
9004
5028
4FC8
2010
ENDCHAR
STARTCHAR U+3204
ENCODING 12804
SWIDTH 1000 0
DWIDTH 16 0
BBX 14 10 1 1
BITMAP
2010
4008
5FE8
8824
8824
8824
8824
4848
4FE8
2010
ENDCHAR
STARTCHAR U+3205
ENCODING 12805
SWIDTH 1000 0
DWIDTH 16 0
BBX 14 10 1 1
BITMAP
2010
4048
5028
8824
8824
8FE4
8824
4828
4FE8
2010
ENDCHAR
STARTCHAR U+3206
ENCODING 12806
SWIDTH 1000 0
DWIDTH 16 0
BBX 14 10 1 1
BITMAP
2010
4308
4108
8104
8304
8484
8864
5028
4008
2010
ENDCHAR
STARTCHAR U+3207
ENCODING 12807
SWIDTH 1000 0
DWIDTH 16 0
BBX 14 10 1 1
BITMAP
2010
4008
4788
8844
9024
9024
9024
4848
4788
2010
ENDCHAR
STARTCHAR U+3208
ENCODING 12808
SWIDTH 1000 0
DWIDTH 16 0
BBX 14 10 1 1
BITMAP
2010
4008
4FC8
8044
8084
8104
8284
4448
4828
2010
ENDCHAR
STARTCHAR U+3209
ENCODING 12809
SWIDTH 1000 0
DWIDTH 16 0
BBX 14 10 1 1
BITMAP
2210
4108
4FE8
8044
8084
8184
8244
4428
4828
2010
ENDCHAR
STARTCHAR U+320A
ENCODING 12810
SWIDTH 1000 0
DWIDTH 16 0
BBX 14 10 1 1
BITMAP
2010
4008
4FE8
8024
8024
8FE4
8044
4088
4308
2410
ENDCHAR
STARTCHAR U+320B
ENCODING 12811
SWIDTH 1000 0
DWIDTH 16 0
BBX 14 10 1 1
BITMAP
2010
4008
5FE8
9004
9004
9FC4
9004
5028
4FC8
2010
ENDCHAR
STARTCHAR U+320C
ENCODING 12812
SWIDTH 1000 0
DWIDTH 16 0
BBX 14 10 1 1
BITMAP
2010
4008
5FE8
8884
8444
8444
8484
4488
5FE8
2010
ENDCHAR
STARTCHAR U+320D
ENCODING 12813
SWIDTH 1000 0
DWIDTH 16 0
BBX 14 10 1 1
BITMAP
2610
4108
5FE8
8004
8784
8844
8844
4848
4788
2010
ENDCHAR
STARTCHAR U+320E
ENCODING 12814
SWIDTH 1000 0
DWIDTH 16 0
BBX 14 10 1 1
BITMAP
2090
4048
5F48
8144
8244
8274
8444
4848
5048
2050
ENDCHAR
STARTCHAR U+320F
ENCODING 12815
SWIDTH 1000 0
DWIDTH 16 0
BBX 14 10 1 1
BITMAP
2090
4048
5048
9044
9044
9074
9144
4E48
4048
2050
ENDCHAR
STARTCHAR U+3210
ENCODING 12816
SWIDTH 1000 0
DWIDTH 16 0
BBX 14 10 1 1
BITMAP
2090
4048
5F48
9044
9044
9074
9144
5E48
4048
2050
ENDCHAR
STARTCHAR U+3211
ENCODING 12817
SWIDTH 1000 0
DWIDTH 16 0
BBX 14 10 1 1
BITMAP
2090
4048
5F48
8144
9F44
9074
9144
4E48
4048
2050
ENDCHAR
STARTCHAR U+3212
ENCODING 12818
SWIDTH 1000 0
DWIDTH 16 0
BBX 14 10 1 1
BITMAP
2090
4048
5F48
9144
9144
9174
9244
5F48
4048
2050
ENDCHAR
STARTCHAR U+3213
ENCODING 12819
SWIDTH 1000 0
DWIDTH 16 0
BBX 14 10 1 1
BITMAP
2090
4048
5148
9144
9F44
9174
9144
5F48
4048
2050
ENDCHAR
STARTCHAR U+3214
ENCODING 12820
SWIDTH 1000 0
DWIDTH 16 0
BBX 14 10 1 1
BITMAP
2090
4048
4448
8244
8644
8974
9144
4048
4048
2050
ENDCHAR
STARTCHAR U+3215
ENCODING 12821
SWIDTH 1000 0
DWIDTH 16 0
BBX 14 10 1 1
BITMAP
2090
4048
4C48
9244
A144
A174
9244
4C48
4048
2050
ENDCHAR
STARTCHAR U+3216
ENCODING 12822
SWIDTH 1000 0
DWIDTH 16 0
BBX 14 10 1 1
BITMAP
2090
4048
5F48
8244
8444
8A74
9144
4048
4048
2050
ENDCHAR
STARTCHAR U+3217
ENCODING 12823
SWIDTH 1000 0
DWIDTH 16 0
BBX 14 10 1 1
BITMAP
2490
4248
5F48
8244
8444
8A74
9144
4048
4048
2050
ENDCHAR
STARTCHAR U+3218
ENCODING 12824
SWIDTH 1000 0
DWIDTH 16 0
BBX 14 10 1 1
BITMAP
2090
4048
5F48
8144
9F44
8274
8444
4848
5048
2050
ENDCHAR
STARTCHAR U+3219
ENCODING 12825
SWIDTH 1000 0
DWIDTH 16 0
BBX 14 10 1 1
BITMAP
2090
4048
5F48
9044
9E44
9074
9144
4E48
4048
2050
ENDCHAR
STARTCHAR U+321A
ENCODING 12826
SWIDTH 1000 0
DWIDTH 16 0
BBX 14 10 1 1
BITMAP
2090
4048
5F48
8A44
8A44
8A74
8A44
5F48
4048
2050
ENDCHAR
STARTCHAR U+321B
ENCODING 12827
SWIDTH 1000 0
DWIDTH 16 0
BBX 14 10 1 1
BITMAP
2890
4C48
7F48
8044
9E44
A174
A144
5E48
4048
2050
ENDCHAR
STARTCHAR U+321C
ENCODING 12828
SWIDTH 1000 0
DWIDTH 16 0
BBX 16 11 0 1
BITMAP
300C
67E6
C183
C363
CC33
C003
DFFB
C183
C183
6186
310C
ENDCHAR
STARTCHAR U+3260
ENCODING 12896
SWIDTH 1000 0
DWIDTH 16 0
BBX 14 12 1 0
BITMAP
0FC0
3030
4008
9FE4
8824
8024
8024
8044
8084
4108
3030
0FC0
ENDCHAR
STARTCHAR U+3261
ENCODING 12897
SWIDTH 1000 0
DWIDTH 16 0
BBX 14 12 1 0
BITMAP
0FC0
3030
4008
5008
8804
8804
8804
8814
48E8
4788
3030
0FC0
ENDCHAR
STARTCHAR U+3262
ENCODING 12898
SWIDTH 1000 0
DWIDTH 16 0
BBX 14 12 1 0
BITMAP
0FC0
3030
4088
5FC8
8804
8804
8804
8844
47E8
4008
3030
0FC0
ENDCHAR
STARTCHAR U+3263
ENCODING 12899
SWIDTH 1000 0
DWIDTH 16 0
BBX 14 12 1 0
BITMAP
0FC0
3030
4008
5FC8
8844
8044
9FC4
8804
4848
47E8
3030
0FC0
ENDCHAR
STARTCHAR U+3264
ENCODING 12900
SWIDTH 1000 0
DWIDTH 16 0
BBX 14 12 1 0
BITMAP
0FC0
3030
4008
5FC8
8844
8844
8844
8844
4FC8
4008
3030
0FC0
ENDCHAR
STARTCHAR U+3265
ENCODING 12901
SWIDTH 1000 0
DWIDTH 16 0
BBX 14 12 1 0
BITMAP
0FC0
3030
4088
9044
8844
8FC4
8844
8844
8FC4
4008
3030
0FC0
ENDCHAR
STARTCHAR U+3266
ENCODING 12902
SWIDTH 1000 0
DWIDTH 16 0
BBX 14 12 1 0
BITMAP
0FC0
3030
4208
8204
8204
8304
8484
8844
9044
4008
3030
0FC0
ENDCHAR
STARTCHAR U+3267
ENCODING 12903
SWIDTH 1000 0
DWIDTH 16 0
BBX 14 12 1 0
BITMAP
0FC0
3030
4008
4788
8844
9024
9024
8844
4788
4008
3030
0FC0
ENDCHAR
STARTCHAR U+3268
ENCODING 12904
SWIDTH 1000 0
DWIDTH 16 0
BBX 14 12 1 0
BITMAP
0FC0
3030
4008
4FC8
8104
8204
8504
88C4
5048
4008
3030
0FC0
ENDCHAR
STARTCHAR U+3269
ENCODING 12905
SWIDTH 1000 0
DWIDTH 16 0
BBX 14 12 1 0
BITMAP
0FC0
3230
4108
5FE8
8084
8104
8384
8464
4828
6008
3030
0FC0
ENDCHAR
STARTCHAR U+326A
ENCODING 12906
SWIDTH 1000 0
DWIDTH 16 0
BBX 14 12 1 0
BITMAP
0FC0
3030
4008
8FC4
8044
8FC4
8044
8084
8084
4108
3030
0FC0
ENDCHAR
STARTCHAR U+326B
ENCODING 12907
SWIDTH 1000 0
DWIDTH 16 0
BBX 14 12 1 0
BITMAP
0FC0
3030
4008
5FC8
8804
8804
8FC4
8804
4848
47E8
3030
0FC0
ENDCHAR
STARTCHAR U+326C
ENCODING 12908
SWIDTH 1000 0
DWIDTH 16 0
BBX 14 12 1 0
BITMAP
0FC0
3030
4008
5FE8
8484
8484
8484
8484
5FE8
4008
3030
0FC0
ENDCHAR
STARTCHAR U+326D
ENCODING 12909
SWIDTH 1000 0
DWIDTH 16 0
BBX 14 12 1 0
BITMAP
0FC0
3030
4608
4108
9FE4
8004
8784
8844
4848
4788
3030
0FC0
ENDCHAR
STARTCHAR U+326E
ENCODING 12910
SWIDTH 1000 0
DWIDTH 16 0
BBX 14 12 1 0
BITMAP
0FC0
3030
4048
5F48
8144
8144
8274
8444
5848
4048
3030
0FC0
ENDCHAR
STARTCHAR U+326F
ENCODING 12911
SWIDTH 1000 0
DWIDTH 16 0
BBX 14 12 1 0
BITMAP
0FC0
3070
4048
5048
9044
9044
9074
9144
4E48
4048
3070
0FC0
ENDCHAR
STARTCHAR U+3270
ENCODING 12912
SWIDTH 1000 0
DWIDTH 16 0
BBX 14 12 1 0
BITMAP
0FC0
3030
4048
5F48
9044
9044
9074
9144
4E48
4048
3070
0FC0
ENDCHAR
STARTCHAR U+3271
ENCODING 12913
SWIDTH 1000 0
DWIDTH 16 0
BBX 14 12 1 0
BITMAP
0FC0
3030
4048
5F48
8144
9F44
9074
9144
5E48
4048
3030
0FC0
ENDCHAR
STARTCHAR U+3272
ENCODING 12914
SWIDTH 1000 0
DWIDTH 16 0
BBX 14 12 1 0
BITMAP
0FC0
3030
4048
4048
9F44
9144
9174
9F44
4048
4048
3030
0FC0
ENDCHAR
STARTCHAR U+3273
ENCODING 12915
SWIDTH 1000 0
DWIDTH 16 0
BBX 14 12 1 0
BITMAP
0FC0
3030
4048
6248
9144
9F44
9174
9144
5F48
4048
3070
0FC0
ENDCHAR
STARTCHAR U+3274
ENCODING 12916
SWIDTH 1000 0
DWIDTH 16 0
BBX 14 12 1 0
BITMAP
0FC0
3030
4048
4448
8444
8C44
9274
A144
4048
4048
3070
0FC0
ENDCHAR
STARTCHAR U+3275
ENCODING 12917
SWIDTH 1000 0
DWIDTH 16 0
BBX 14 12 1 0
BITMAP
0FC0
3030
4048
4E48
9144
9144
9174
8E44
4048
4048
3030
0FC0
ENDCHAR
STARTCHAR U+3276
ENCODING 12918
SWIDTH 1000 0
DWIDTH 16 0
BBX 14 12 1 0
BITMAP
0FC0
3030
4048
5F48
8244
8444
8A74
B144
4048
4048
3030
0FC0
ENDCHAR
STARTCHAR U+3277
ENCODING 12919
SWIDTH 1000 0
DWIDTH 16 0
BBX 14 12 1 0
BITMAP
0FC0
3030
4448
4648
9F44
8244
8674
8944
5148
4048
3030
0FC0
ENDCHAR
STARTCHAR U+3278
ENCODING 12920
SWIDTH 1000 0
DWIDTH 16 0
BBX 14 12 1 0
BITMAP
0FC0
3030
4048
5F48
8144
9F44
8274
8444
5848
4048
3030
0FC0
ENDCHAR
STARTCHAR U+3279
ENCODING 12921
SWIDTH 1000 0
DWIDTH 16 0
BBX 14 12 1 0
BITMAP
0FC0
3030
4048
5F48
9044
9E44
9074
9144
5E48
4048
3030
0FC0
ENDCHAR
STARTCHAR U+327A
ENCODING 12922
SWIDTH 1000 0
DWIDTH 16 0
BBX 14 12 1 0
BITMAP
0FC0
3030
4048
5F48
8A44
8A44
8A74
8A44
5F48
4048
3030
0FC0
ENDCHAR
STARTCHAR U+327B
ENCODING 12923
SWIDTH 1000 0
DWIDTH 16 0
BBX 14 12 1 0
BITMAP
0FC0
3030
4448
5F48
8044
8E44
9174
9144
4E48
4048
3030
0FC0
ENDCHAR
STARTCHAR U+327F
ENCODING 12927
SWIDTH 1000 0
DWIDTH 16 0
BBX 16 12 0 0
BITMAP
0FF0
300C
6636
4662
C6C3
C780
F78F
06C3
C662
6636
300C
0FF0
ENDCHAR
STARTCHAR U+3380
ENCODING 13184
SWIDTH 1000 0
DWIDTH 16 0
BBX 15 11 1 0
BITMAP
0020
0020
FC50
4250
4288
42F8
7D04
4104
4306
4000
4000
ENDCHAR
STARTCHAR U+3381
ENCODING 13185
SWIDTH 1000 0
DWIDTH 16 0
BBX 15 9 1 2
BITMAP
0020
0020
B850
4450
4488
44F8
4504
4504
4706
ENDCHAR
STARTCHAR U+3382
ENCODING 13186
SWIDTH 1000 0
DWIDTH 16 0
BBX 16 11 0 0
BITMAP
0010
0010
0868
10A8
10C4
217C
2182
6282
5D83
8000
8000
ENDCHAR
STARTCHAR U+3383
ENCODING 13187
SWIDTH 1000 0
DWIDTH 16 0
BBX 15 9 1 2
BITMAP
0020
0020
F850
5450
5488
54F8
5504
5504
5706
ENDCHAR
STARTCHAR U+3384
ENCODING 13188
SWIDTH 1000 0
DWIDTH 16 0
BBX 15 9 1 2
BITMAP
C020
4020
4450
4850
5088
60F8
5104
4904
E706
ENDCHAR
STARTCHAR U+3388
ENCODING 13192
SWIDTH 1000 0
DWIDTH 16 0
BBX 14 9 1 2
BITMAP
0018
0008
0008
7388
8848
83C8
8448
8C48
73DC
ENDCHAR
STARTCHAR U+3389
ENCODING 13193
SWIDTH 1000 0
DWIDTH 16 0
BBX 14 9 1 2
BITMAP
800C
8004
8004
8004
9664
A914
C874
A894
977C
ENDCHAR
STARTCHAR U+338A
ENCODING 13194
SWIDTH 1000 0
DWIDTH 16 0
BBX 14 11 0 0
BITMAP
00FC
0080
FC80
4280
42F8
4280
7C80
4080
4080
4000
4000
ENDCHAR
STARTCHAR U+338B
ENCODING 13195
SWIDTH 1000 0
DWIDTH 16 0
BBX 14 9 1 2
BITMAP
00FC
0080
B880
4480
44F8
4480
4480
4480
4680
ENDCHAR
STARTCHAR U+338C
ENCODING 13196
SWIDTH 1000 0
DWIDTH 16 0
BBX 15 11 0 0
BITMAP
007E
0040
0840
1040
10FC
2140
2140
6240
5DC0
8000
8000
ENDCHAR
STARTCHAR U+338D
ENCODING 13197
SWIDTH 1000 0
DWIDTH 16 0
BBX 15 11 0 0
BITMAP
0008
001C
0862
10A2
109C
2120
213C
6342
5D42
80BC
8000
ENDCHAR
STARTCHAR U+338E
ENCODING 13198
SWIDTH 1000 0
DWIDTH 16 0
BBX 14 10 1 1
BITMAP
0010
0038
F8C4
5444
5438
5440
5478
5484
5684
0178
ENDCHAR
STARTCHAR U+338F
ENCODING 13199
SWIDTH 1000 0
DWIDTH 16 0
BBX 14 10 1 1
BITMAP
C010
4038
44C4
4844
5038
6040
5078
4884
E684
0178
ENDCHAR
STARTCHAR U+3390
ENCODING 13200
SWIDTH 1000 0
DWIDTH 16 0
BBX 13 9 1 2
BITMAP
EE00
4400
4400
4400
7CF8
4490
4420
4448
EEF8
ENDCHAR
STARTCHAR U+3391
ENCODING 13201
SWIDTH 1000 0
DWIDTH 16 0
BBX 16 9 0 2
BITMAP
C240
4240
4240
4240
4FDF
5252
6244
5249
CE5F
ENDCHAR
STARTCHAR U+3392
ENCODING 13202
SWIDTH 1000 0
DWIDTH 16 0
BBX 16 9 0 2
BITMAP
8A40
DA40
AA40
AA40
8BDF
8A52
8A44
8A49
8A7F
ENDCHAR
STARTCHAR U+3393
ENCODING 13203
SWIDTH 1000 0
DWIDTH 16 0
BBX 16 9 0 2
BITMAP
7240
8A40
8240
8240
83DF
BA52
8A44
9A49
6A5F
ENDCHAR
STARTCHAR U+3394
ENCODING 13204
SWIDTH 1000 0
DWIDTH 16 0
BBX 16 9 0 2
BITMAP
FA40
AA40
2240
2240
23DF
2252
2244
2249
725F
ENDCHAR
STARTCHAR U+3395
ENCODING 13205
SWIDTH 1000 0
DWIDTH 16 0
BBX 15 10 0 0
BITMAP
000C
0852
1092
1092
2112
2114
6218
5DEC
8000
8000
ENDCHAR
STARTCHAR U+3396
ENCODING 13206
SWIDTH 1000 0
DWIDTH 16 0
BBX 14 8 1 2
BITMAP
0018
0024
F624
4924
4924
4928
4930
C9CC
ENDCHAR
STARTCHAR U+3397
ENCODING 13207
SWIDTH 1000 0
DWIDTH 16 0
BBX 13 9 1 2
BITMAP
0400
0430
0448
0448
7C48
8448
8450
8460
7D98
ENDCHAR
STARTCHAR U+3398
ENCODING 13208
SWIDTH 1000 0
DWIDTH 16 0
BBX 13 9 1 2
BITMAP
C000
4030
4448
4848
5048
6048
5050
4860
E698
ENDCHAR
STARTCHAR U+3399
ENCODING 13209
SWIDTH 1000 0
DWIDTH 16 0
BBX 13 10 2 2
BITMAP
1800
2400
2000
2000
F800
23E0
2150
2150
2150
7158
ENDCHAR
STARTCHAR U+339A
ENCODING 13210
SWIDTH 1000 0
DWIDTH 16 0
BBX 14 5 1 2
BITMAP
B9F0
44A8
44A8
44A8
46AC
ENDCHAR
STARTCHAR U+339B
ENCODING 13211
SWIDTH 1000 0
DWIDTH 16 0
BBX 15 9 0 0
BITMAP
0880
11F8
1154
2254
2254
6454
5BD6
8000
8000
ENDCHAR
STARTCHAR U+339C
ENCODING 13212
SWIDTH 1000 0
DWIDTH 16 0
BBX 14 6 1 2
BITMAP
F9F0
54A8
54A8
54A8
54A8
57AC
ENDCHAR
STARTCHAR U+339D
ENCODING 13213
SWIDTH 1000 0
DWIDTH 16 0
BBX 14 6 1 2
BITMAP
79F0
84A8
80A8
80A8
84A8
78AC
ENDCHAR
STARTCHAR U+339E
ENCODING 13214
SWIDTH 1000 0
DWIDTH 16 0
BBX 14 9 1 2
BITMAP
C000
4000
4400
4800
51F0
60A8
50A8
48A8
E6AC
ENDCHAR
STARTCHAR U+339F
ENCODING 13215
SWIDTH 1000 0
DWIDTH 16 0
BBX 15 11 1 2
BITMAP
000E
0012
0004
001E
0000
F9F0
54A8
54A8
54A8
54A8
57AC
ENDCHAR
STARTCHAR U+33A0
ENCODING 13216
SWIDTH 1000 0
DWIDTH 16 0
BBX 15 11 1 2
BITMAP
000E
0012
0004
001E
0000
79F0
84A8
80A8
80A8
84A8
78AC
ENDCHAR
STARTCHAR U+33A1
ENCODING 13217
SWIDTH 1000 0
DWIDTH 16 0
BBX 12 11 3 2
BITMAP
0070
0090
0020
00F0
FB00
2480
2480
2480
2480
2480
64C0
ENDCHAR
STARTCHAR U+33A2
ENCODING 13218
SWIDTH 1000 0
DWIDTH 16 0
BBX 15 11 1 2
BITMAP
000E
0012
C004
401E
4400
4800
51F0
60A8
50A8
48A8
E6AC
ENDCHAR
STARTCHAR U+33A3
ENCODING 13219
SWIDTH 1000 0
DWIDTH 16 0
BBX 15 12 1 2
BITMAP
000C
0012
0004
0012
000C
0000
F9F0
54A8
54A8
54A8
54A8
57AC
ENDCHAR
STARTCHAR U+33A4
ENCODING 13220
SWIDTH 1000 0
DWIDTH 16 0
BBX 15 12 1 2
BITMAP
000C
0012
0004
0012
000C
0000
79F0
84A8
80A8
80A8
84A8
78AC
ENDCHAR
STARTCHAR U+33A5
ENCODING 13221
SWIDTH 1000 0
DWIDTH 16 0
BBX 13 12 3 2
BITMAP
0030
0048
0010
0048
0030
FB00
2480
2480
2480
2480
2480
64C0
ENDCHAR
STARTCHAR U+33A6
ENCODING 13222
SWIDTH 1000 0
DWIDTH 16 0
BBX 15 12 1 2
BITMAP
000C
0012
0004
C012
400C
4400
4800
51F0
60A8
50A8
48A8
E6AC
ENDCHAR
STARTCHAR U+33A7
ENCODING 13223
SWIDTH 1000 0
DWIDTH 16 0
BBX 13 11 1 0
BITMAP
F810
5420
5440
5480
0100
0230
0440
0830
1008
2048
00B0
ENDCHAR
STARTCHAR U+33A8
ENCODING 13224
SWIDTH 1000 0
DWIDTH 16 0
BBX 15 12 1 0
BITMAP
0010
F82C
5452
5484
551E
0200
0430
0840
1030
2008
4048
00B0
ENDCHAR
STARTCHAR U+33A9
ENCODING 13225
SWIDTH 1000 0
DWIDTH 16 0
BBX 12 9 2 2
BITMAP
F800
8400
8400
85C0
F820
81E0
8220
8220
81F0
ENDCHAR
STARTCHAR U+33AA
ENCODING 13226
SWIDTH 1000 0
DWIDTH 16 0
BBX 15 9 1 2
BITMAP
8780
8440
8440
8478
9784
A43C
C444
A444
943E
ENDCHAR
STARTCHAR U+33AB
ENCODING 13227
SWIDTH 1000 0
DWIDTH 16 0
BBX 16 9 0 2
BITMAP
8BC0
DA20
AA20
AA3C
ABC2
8A1E
8A22
8A22
8A1F
ENDCHAR
STARTCHAR U+33AC
ENCODING 13228
SWIDTH 1000 0
DWIDTH 16 0
BBX 16 9 0 2
BITMAP
73C0
8A20
8A20
823C
83C2
BA1E
8A22
9A22
6A1F
ENDCHAR
STARTCHAR U+33AD
ENCODING 13229
SWIDTH 1000 0
DWIDTH 16 0
BBX 14 9 1 2
BITMAP
0004
0004
0004
0004
B304
449C
43A4
44C4
477C
ENDCHAR
STARTCHAR U+33AE
ENCODING 13230
SWIDTH 1000 0
DWIDTH 16 0
BBX 15 13 0 1
BITMAP
0010
0010
B610
4974
4798
4990
4EF0
0040
008C
0110
020C
0422
085C
ENDCHAR
STARTCHAR U+33AF
ENCODING 13231
SWIDTH 1000 0
DWIDTH 16 0
BBX 16 14 0 0
BITMAP
0020
0020
AC20
52E8
4F36
5329
5DE2
008F
0100
0218
0420
0818
1044
00B8
ENDCHAR
STARTCHAR U+33B0
ENCODING 13232
SWIDTH 1000 0
DWIDTH 16 0
BBX 14 9 1 0
BITMAP
FC78
4284
4280
4278
7C04
4084
4178
4000
4000
ENDCHAR
STARTCHAR U+33B1
ENCODING 13233
SWIDTH 1000 0
DWIDTH 16 0
BBX 14 7 1 2
BITMAP
B878
4484
4480
4478
4404
4484
4778
ENDCHAR
STARTCHAR U+33B2
ENCODING 13234
SWIDTH 1000 0
DWIDTH 16 0
BBX 15 9 0 0
BITMAP
085C
10A2
10A0
211C
2102
6242
5DBC
8000
8000
ENDCHAR
STARTCHAR U+33B3
ENCODING 13235
SWIDTH 1000 0
DWIDTH 16 0
BBX 14 7 1 2
BITMAP
F878
5484
5480
5478
5404
5484
5778
ENDCHAR
STARTCHAR U+33B4
ENCODING 13236
SWIDTH 1000 0
DWIDTH 16 0
BBX 15 11 0 0
BITMAP
0306
0104
FD04
4288
4288
4250
7C50
4020
4020
4000
4000
ENDCHAR
STARTCHAR U+33B5
ENCODING 13237
SWIDTH 1000 0
DWIDTH 16 0
BBX 15 9 0 2
BITMAP
0306
0104
B904
4488
4488
4450
4450
4420
4720
ENDCHAR
STARTCHAR U+33B6
ENCODING 13238
SWIDTH 1000 0
DWIDTH 16 0
BBX 16 11 0 0
BITMAP
0183
0082
0882
1044
10C4
2128
2128
6210
5D90
8000
8000
ENDCHAR
STARTCHAR U+33B7
ENCODING 13239
SWIDTH 1000 0
DWIDTH 16 0
BBX 15 9 1 2
BITMAP
0306
0104
F904
5488
5488
5450
5450
5420
5720
ENDCHAR
STARTCHAR U+33B8
ENCODING 13240
SWIDTH 1000 0
DWIDTH 16 0
BBX 15 9 1 2
BITMAP
C306
4104
4504
4888
5088
6050
5050
4820
E620
ENDCHAR
STARTCHAR U+33B9
ENCODING 13241
SWIDTH 1000 0
DWIDTH 16 0
BBX 15 9 1 2
BITMAP
C706
6D04
6D04
5488
5488
5450
4450
4420
EE20
ENDCHAR
STARTCHAR U+33BA
ENCODING 13242
SWIDTH 1000 0
DWIDTH 16 0
BBX 14 9 1 0
BITMAP
FD24
4324
4324
4324
7D24
4124
40D8
4000
4000
ENDCHAR
STARTCHAR U+33BB
ENCODING 13243
SWIDTH 1000 0
DWIDTH 16 0
BBX 14 7 1 2
BITMAP
B924
4524
4524
4524
4524
4524
46D8
ENDCHAR
STARTCHAR U+33BC
ENCODING 13244
SWIDTH 1000 0
DWIDTH 16 0
BBX 15 9 0 0
BITMAP
0882
1092
1092
2192
2192
6292
5E6C
8300
8000
ENDCHAR
STARTCHAR U+33BD
ENCODING 13245
SWIDTH 1000 0
DWIDTH 16 0
BBX 14 7 1 2
BITMAP
F904
5524
5524
5524
5524
5524
56D8
ENDCHAR
STARTCHAR U+33BE
ENCODING 13246
SWIDTH 1000 0
DWIDTH 16 0
BBX 14 9 1 2
BITMAP
C000
4000
4504
4924
5124
6124
5124
4924
E6D8
ENDCHAR
STARTCHAR U+33BF
ENCODING 13247
SWIDTH 1000 0
DWIDTH 16 0
BBX 14 9 1 2
BITMAP
C600
6C00
6D04
5524
5524
5524
4524
4524
EED8
ENDCHAR
STARTCHAR U+33C0
ENCODING 13248
SWIDTH 1000 0
DWIDTH 16 0
BBX 14 9 1 2
BITMAP
80E0
8110
8208
8A08
9208
A110
C0A0
A4A4
97BC
ENDCHAR
STARTCHAR U+33C1
ENCODING 13249
SWIDTH 1000 0
DWIDTH 16 0
BBX 14 9 1 2
BITMAP
88E0
D910
AA08
AA08
8A08
8910
88A0
8CA4
8FBC
ENDCHAR
STARTCHAR U+33C2
ENCODING 13250
SWIDTH 1000 0
DWIDTH 16 0
BBX 16 7 0 1
BITMAP
73D8
8924
0924
7924
8924
8924
7B25
ENDCHAR
STARTCHAR U+33C3
ENCODING 13251
SWIDTH 1000 0
DWIDTH 16 0
BBX 12 11 3 0
BITMAP
F800
8400
8400
8400
F8F0
8510
8510
8510
F8F0
0010
0010
ENDCHAR
STARTCHAR U+33C4
ENCODING 13252
SWIDTH 1000 0
DWIDTH 16 0
BBX 12 5 2 2
BITMAP
79E0
9A30
8200
8610
79E0
ENDCHAR
STARTCHAR U+33C5
ENCODING 13253
SWIDTH 1000 0
DWIDTH 16 0
BBX 11 9 2 2
BITMAP
0020
0020
0020
0020
70E0
8920
8220
8A20
71E0
ENDCHAR
STARTCHAR U+33C6
ENCODING 13254
SWIDTH 1000 0
DWIDTH 16 0
BBX 14 15 2 -2
BITMAP
7000
8800
8040
8480
7900
0200
0400
0A00
1240
2298
4324
82A4
025C
0004
0038
ENDCHAR
STARTCHAR U+33C7
ENCODING 13255
SWIDTH 1000 0
DWIDTH 16 0
BBX 13 10 2 1
BITMAP
3A00
4600
8200
8000
8000
80C0
8120
8120
4520
38C8
ENDCHAR
STARTCHAR U+33C8
ENCODING 13256
SWIDTH 1000 0
DWIDTH 16 0
BBX 13 8 1 2
BITMAP
0DF0
0508
0508
3DF0
4508
8508
8508
7DF0
ENDCHAR
STARTCHAR U+33C9
ENCODING 13257
SWIDTH 1000 0
DWIDTH 16 0
BBX 14 11 1 0
BITMAP
3C00
4200
8200
8000
8000
8E84
8244
4628
3A10
0020
00C0
ENDCHAR
STARTCHAR U+33CA
ENCODING 13258
SWIDTH 1000 0
DWIDTH 16 0
BBX 13 9 2 2
BITMAP
C000
4000
4000
58E0
6410
44F0
4510
4510
C6F8
ENDCHAR
STARTCHAR U+33CF
ENCODING 13263
SWIDTH 1000 0
DWIDTH 16 0
BBX 13 9 1 2
BITMAP
C040
4040
4440
49F0
5040
6040
5040
4848
E630
ENDCHAR
STARTCHAR U+33D0
ENCODING 13264
SWIDTH 1000 0
DWIDTH 16 0
BBX 10 9 3 2
BITMAP
C000
4000
4000
4F00
4A80
4A80
4A80
4A80
EAC0
ENDCHAR
STARTCHAR U+33D3
ENCODING 13267
SWIDTH 1000 0
DWIDTH 16 0
BBX 10 9 3 2
BITMAP
C000
4000
4000
4CC0
4480
4300
4300
4480
ECC0
ENDCHAR
STARTCHAR U+33D6
ENCODING 13270
SWIDTH 1000 0
DWIDTH 16 0
BBX 15 10 0 2
BITMAP
000C
0004
0004
0004
0004
F8E4
5514
5514
5514
54EE
ENDCHAR
STARTCHAR U+33D8
ENCODING 13272
SWIDTH 1000 0
DWIDTH 16 0
BBX 16 7 0 1
BITMAP
FBD8
8524
8524
F924
8124
8124
8925
ENDCHAR
STARTCHAR U+33DB
ENCODING 13275
SWIDTH 1000 0
DWIDTH 16 0
BBX 14 6 1 2
BITMAP
1C98
2064
1C40
0240
4240
BC40
ENDCHAR
STARTCHAR U+33DC
ENCODING 13276
SWIDTH 1000 0
DWIDTH 16 0
BBX 13 9 1 2
BITMAP
3C00
4200
4000
4000
3C88
0288
0288
4250
BC20
ENDCHAR
STARTCHAR U+33DD
ENCODING 13277
SWIDTH 1000 0
DWIDTH 16 0
BBX 12 9 2 2
BITMAP
C700
4500
4500
4500
5500
55E0
5510
2910
29E0
ENDCHAR
STARTCHAR U+4E00
ENCODING 19968
SWIDTH 1000 0
DWIDTH 16 0
BBX 15 1 1 6
BITMAP
FFFE
ENDCHAR
STARTCHAR U+4E01
ENCODING 19969
SWIDTH 1000 0
DWIDTH 16 0
BBX 15 14 1 -2
BITMAP
FFFE
0100
0100
0100
0100
0100
0100
0100
0100
0100
0100
0100
0100
0700
ENDCHAR
STARTCHAR U+4E03
ENCODING 19971
SWIDTH 1000 0
DWIDTH 16 0
BBX 15 15 1 -1
BITMAP
0800
0800
0800
0800
0800
080E
08F0
1F00
E800
0800
0800
0800
0802
0802
0FFE
ENDCHAR
STARTCHAR U+4E07
ENCODING 19975
SWIDTH 1000 0
DWIDTH 16 0
BBX 15 15 1 -2
BITMAP
FFFE
0400
0400
0400
07FC
0404
0804
0804
0804
0804
1004
1004
2008
4010
80E0
ENDCHAR
STARTCHAR U+4E08
ENCODING 19976
SWIDTH 1000 0
DWIDTH 16 0
BBX 15 16 1 -2
BITMAP
0080
0080
0080
0080
FFFE
0880
0880
1480
2480
0280
0180
0180
0140
0220
0C18
7006
ENDCHAR
STARTCHAR U+4E09
ENCODING 19977
SWIDTH 1000 0
DWIDTH 16 0
BBX 15 13 1 -1
BITMAP
7FFC
0000
0000
0000
0000
0000
3FF8
0000
0000
0000
0000
0000
FFFE
ENDCHAR
STARTCHAR U+4E0A
ENCODING 19978
SWIDTH 1000 0
DWIDTH 16 0
BBX 15 15 1 -1
BITMAP
0200
0200
0200
0200
0200
0200
03FC
0200
0200
0200
0200
0200
0200
0200
FFFE
ENDCHAR
STARTCHAR U+4E0B
ENCODING 19979
SWIDTH 1000 0
DWIDTH 16 0
BBX 15 14 1 -2
BITMAP
FFFE
0100
0100
0180
0140
0120
0110
0100
0100
0100
0100
0100
0100
0100
ENDCHAR
STARTCHAR U+4E0D
ENCODING 19981
SWIDTH 1000 0
DWIDTH 16 0
BBX 15 14 1 -2
BITMAP
FFFE
0100
0300
0300
0520
0910
1108
2104
4102
8100
0100
0100
0100
0100
ENDCHAR
STARTCHAR U+4E11
ENCODING 19985
SWIDTH 1000 0
DWIDTH 16 0
BBX 15 14 1 -1
BITMAP
7FF0
0410
0410
0410
0410
0410
7FFE
0410
0810
0810
0810
0810
0810
FFFE
ENDCHAR
STARTCHAR U+4E14
ENCODING 19988
SWIDTH 1000 0
DWIDTH 16 0
BBX 14 13 1 -1
BITMAP
3FF0
2010
2010
2010
3FF0
2010
2010
2010
3FF0
2010
2010
2010
FFFC
ENDCHAR
STARTCHAR U+4E15
ENCODING 19989
SWIDTH 1000 0
DWIDTH 16 0
BBX 15 13 1 -1
BITMAP
7FFE
0080
0180
0340
0520
0910
3108
C104
0100
0100
0100
0000
FFFE
ENDCHAR
STARTCHAR U+4E16
ENCODING 19990
SWIDTH 1000 0
DWIDTH 16 0
BBX 15 16 1 -2
BITMAP
2210
2210
2210
2210
2210
FFFE
2210
2210
2210
2210
23F0
2210
2000
2000
3FFE
2000
ENDCHAR
STARTCHAR U+4E18
ENCODING 19992
SWIDTH 1000 0
DWIDTH 16 0
BBX 15 15 1 -1
BITMAP
0070
0380
3C00
2000
2000
2000
3FFC
2020
2020
2020
2020
2020
2020
2020
FFFE
ENDCHAR
STARTCHAR U+4E19
ENCODING 19993
SWIDTH 1000 0
DWIDTH 16 0
BBX 15 15 1 -2
BITMAP
FFFE
0100
0100
0100
7FFC
4104
4284
4444
4824
7014
4004
4004
4004
4004
401C
ENDCHAR
STARTCHAR U+4E1E
ENCODING 19998
SWIDTH 1000 0
DWIDTH 16 0
BBX 15 14 1 -1
BITMAP
3FF0
0040
0184
0108
FD90
05A0
0940
0920
1120
2110
4108
8E06
0000
FFFE
ENDCHAR
STARTCHAR U+4E2D
ENCODING 20013
SWIDTH 1000 0
DWIDTH 16 0
BBX 15 16 1 -2
BITMAP
0100
0100
0100
0100
FFFE
8102
8102
8102
8102
8102
FFFE
8102
0100
0100
0100
0100
ENDCHAR
STARTCHAR U+4E32
ENCODING 20018
SWIDTH 1000 0
DWIDTH 16 0
BBX 13 16 2 -2
BITMAP
0200
0200
7FF0
4210
4210
7FF0
0200
0200
FFF8
8208
8208
8208
FFF8
0200
0200
0200
ENDCHAR
STARTCHAR U+4E38
ENCODING 20024
SWIDTH 1000 0
DWIDTH 16 0
BBX 15 16 1 -2
BITMAP
0200
0200
0200
0200
7FF0
0210
0A10
0610
0310
0290
0450
0410
0812
1012
201E
C000
ENDCHAR
STARTCHAR U+4E39
ENCODING 20025
SWIDTH 1000 0
DWIDTH 16 0
BBX 15 15 1 -2
BITMAP
3FF0
2010
2210
2110
2090
2010
FFFE
2010
2010
2010
2010
2010
4010
4010
8070
ENDCHAR
STARTCHAR U+4E3B
ENCODING 20027
SWIDTH 1000 0
DWIDTH 16 0
BBX 15 15 1 -1
BITMAP
0400
0200
0100
0000
7FFC
0100
0100
0100
0100
7FFC
0100
0100
0100
0100
FFFE
ENDCHAR
STARTCHAR U+4E42
ENCODING 20034
SWIDTH 1000 0
DWIDTH 16 0
BBX 15 15 1 -2
BITMAP
2008
6008
9010
1010
0820
0820
0440
0440
0280
0100
0280
0440
0820
3018
C006
ENDCHAR
STARTCHAR U+4E43
ENCODING 20035
SWIDTH 1000 0
DWIDTH 16 0
BBX 15 15 1 -2
BITMAP
7FE0
0420
0420
0440
047E
0442
0802
0802
0802
1002
1002
2002
2004
4004
8038
ENDCHAR
STARTCHAR U+4E45
ENCODING 20037
SWIDTH 1000 0
DWIDTH 16 0
BBX 15 16 1 -2
BITMAP
0400
0400
0800
0FF0
1010
2020
4020
8040
0040
0080
0180
0240
0420
0818
3006
C000
ENDCHAR
STARTCHAR U+4E4B
ENCODING 20043
SWIDTH 1000 0
DWIDTH 16 0
BBX 15 16 1 -2
BITMAP
0100
0100
0100
0100
7FF8
0010
0020
0040
0080
0100
0200
0400
4800
3000
4FFE
8000
ENDCHAR
STARTCHAR U+4E4D
ENCODING 20045
SWIDTH 1000 0
DWIDTH 16 0
BBX 15 16 1 -2
BITMAP
0800
0800
1000
3FFC
4200
8200
0200
03F8
0200
0200
03FE
0200
0200
0200
0200
0200
ENDCHAR
STARTCHAR U+4E4E
ENCODING 20046
SWIDTH 1000 0
DWIDTH 16 0
BBX 15 16 1 -2
BITMAP
003C
03C0
7D00
0100
2108
1110
0920
0100
FFFE
0100
0100
0100
0100
0100
0100
0700
ENDCHAR
STARTCHAR U+4E4F
ENCODING 20047
SWIDTH 1000 0
DWIDTH 16 0
BBX 15 16 1 -2
BITMAP
0038
03C0
3D00
0100
0100
7FFC
0008
0010
0020
0040
0180
0200
4C00
7000
8FFE
8000
ENDCHAR
STARTCHAR U+4E56
ENCODING 20054
SWIDTH 1000 0
DWIDTH 16 0
BBX 15 16 1 -2
BITMAP
00F8
3F80
0100
0100
FFFE
0920
0920
0926
F938
0920
0920
0920
3922
C922
093E
0100
ENDCHAR
STARTCHAR U+4E58
ENCODING 20056
SWIDTH 1000 0
DWIDTH 16 0
BBX 15 16 1 -2
BITMAP
00F8
3F00
0100
0100
FFFE
0920
F92E
0930
3922
C9BE
0B80
0540
0920
1110
2108
C106
ENDCHAR
STARTCHAR U+4E59
ENCODING 20057
SWIDTH 1000 0
DWIDTH 16 0
BBX 15 13 1 -1
BITMAP
7FF8
0010
0020
0040
0080
0100
0600
0800
1000
2000
4002
8002
FFFE
ENDCHAR
STARTCHAR U+4E5D
ENCODING 20061
SWIDTH 1000 0
DWIDTH 16 0
BBX 15 16 1 -2
BITMAP
0400
0400
0400
0400
7FE0
0420
0420
0420
0420
0420
0820
0820
1022
2022
403E
8000
ENDCHAR
STARTCHAR U+4E5E
ENCODING 20062
SWIDTH 1000 0
DWIDTH 16 0
BBX 15 15 1 -1
BITMAP
0800
0800
1000
3FFC
4000
8000
3FF0
0060
0180
0600
1800
2000
4002
4002
7FFE
ENDCHAR
STARTCHAR U+4E5F
ENCODING 20063
SWIDTH 1000 0
DWIDTH 16 0
BBX 15 15 1 -1
BITMAP
0200
0200
0200
2200
2238
23C8
2E08
F208
2208
2208
2208
2270
2202
2202
3FFE
ENDCHAR
STARTCHAR U+4E6B
ENCODING 20075
SWIDTH 1000 0
DWIDTH 16 0
BBX 15 16 1 -2
BITMAP
1000
1000
FE7C
1244
1244
2244
2244
467C
8000
0000
FFF8
01E0
0E00
7000
8002
FFFE
ENDCHAR
STARTCHAR U+4E6D
ENCODING 20077
SWIDTH 1000 0
DWIDTH 16 0
BBX 15 14 1 -1
BITMAP
FFFE
0800
1000
3FF8
D008
1008
1FF8
0000
7FF8
00E0
0700
3802
4002
7FFE
ENDCHAR
STARTCHAR U+4E73
ENCODING 20083
SWIDTH 1000 0
DWIDTH 16 0
BBX 15 16 1 -2
BITMAP
0E40
7240
4940
8440
0040
7E40
0440
0840
0840
0B40
1C40
E840
0842
0842
087E
1800
ENDCHAR
STARTCHAR U+4E76
ENCODING 20086
SWIDTH 1000 0
DWIDTH 16 0
BBX 15 16 1 -2
BITMAP
0100
FFFE
0100
7FFC
4104
7FFC
4104
7FFC
4104
410C
3FF8
0070
0380
1C00
2002
3FFE
ENDCHAR
STARTCHAR U+4E77
ENCODING 20087
SWIDTH 1000 0
DWIDTH 16 0
BBX 15 15 1 -1
BITMAP
4080
2290
0488
8884
4080
0084
2198
4060
8180
0E00
FFF8
03C0
3C02
C002
FFFE
ENDCHAR
STARTCHAR U+4E7E
ENCODING 20094
SWIDTH 1000 0
DWIDTH 16 0
BBX 15 16 1 -2
BITMAP
1040
1040
FE80
10FE
1100
FE00
82FC
FE08
8210
FE20
1040
1080
FF02
1102
11FE
1000
ENDCHAR
STARTCHAR U+4E82
ENCODING 20098
SWIDTH 1000 0
DWIDTH 16 0
BBX 15 16 1 -2
BITMAP
0E40
7240
4940
4440
8040
7E40
2440
1840
FF40
9140
A540
CF40
F342
8142
8142
837E
ENDCHAR
STARTCHAR U+4E86
ENCODING 20102
SWIDTH 1000 0
DWIDTH 16 0
BBX 14 15 2 -2
BITMAP
FFFC
0018
0020
0040
0180
0100
0100
0100
0100
0100
0100
0100
0100
0100
0700
ENDCHAR
STARTCHAR U+4E88
ENCODING 20104
SWIDTH 1000 0
DWIDTH 16 0
BBX 15 15 1 -2
BITMAP
3FF8
0010
0420
0240
0180
FFFE
0104
0108
0100
0100
0100
0100
0100
0100
0700
ENDCHAR
STARTCHAR U+4E8B
ENCODING 20107
SWIDTH 1000 0
DWIDTH 16 0
BBX 15 16 1 -2
BITMAP
0100
0100
FFFE
0100
3FF8
2108
3FF8
0100
3FF8
0108
FFFE
0108
3FF8
0100
0100
0300
ENDCHAR
STARTCHAR U+4E8C
ENCODING 20108
SWIDTH 1000 0
DWIDTH 16 0
BBX 15 11 1 0
BITMAP
7FFC
0000
0000
0000
0000
0000
0000
0000
0000
0000
FFFE
ENDCHAR
STARTCHAR U+4E8E
ENCODING 20110
SWIDTH 1000 0
DWIDTH 16 0
BBX 15 15 1 -2
BITMAP
7FFC
0100
0100
0100
0100
0100
FFFE
0100
0100
0100
0100
0100
0100
0100
0300
ENDCHAR
STARTCHAR U+4E90
ENCODING 20112
SWIDTH 1000 0
DWIDTH 16 0
BBX 15 15 1 -2
BITMAP
3FF8
0400
0400
0800
FFFE
0800
1000
1FF8
2008
0008
0008
0008
0010
0010
00E0
ENDCHAR
STARTCHAR U+4E91
ENCODING 20113
SWIDTH 1000 0
DWIDTH 16 0
BBX 15 13 1 -1
BITMAP
3FF8
0000
0000
0000
FFFE
0400
0400
0800
1010
1008
203C
47C2
F800
ENDCHAR
STARTCHAR U+4E92
ENCODING 20114
SWIDTH 1000 0
DWIDTH 16 0
BBX 15 14 1 -1
BITMAP
7FFC
0400
0400
0400
0FF8
0810
0810
0810
1010
1FF0
1020
0020
0020
FFFE
ENDCHAR
STARTCHAR U+4E94
ENCODING 20116
SWIDTH 1000 0
DWIDTH 16 0
BBX 15 13 1 -1
BITMAP
7FFC
0100
0100
0100
0200
3FF0
0210
0210
0410
0410
0410
0410
FFFE
ENDCHAR
STARTCHAR U+4E95
ENCODING 20117
SWIDTH 1000 0
DWIDTH 16 0
BBX 15 16 1 -2
BITMAP
0820
0820
0820
0820
7FFC
0820
0820
0820
0820
FFFE
0820
0820
1020
1020
2020
C020
ENDCHAR
STARTCHAR U+4E98
ENCODING 20120
SWIDTH 1000 0
DWIDTH 16 0
BBX 14 14 1 -1
BITMAP
7FF8
0000
0000
3FF0
2010
2010
3FF0
2010
2010
3FF0
0000
0000
0000
FFFC
ENDCHAR
STARTCHAR U+4E9B
ENCODING 20123
SWIDTH 1000 0
DWIDTH 16 0
BBX 15 15 1 -1
BITMAP
0840
0840
4846
4F58
4860
4840
4842
4F7E
F000
0000
0000
3FF8
0000
0000
FFFE
ENDCHAR
STARTCHAR U+4E9E
ENCODING 20126
SWIDTH 1000 0
DWIDTH 16 0
BBX 15 14 1 -1
BITMAP
FFFE
0440
0440
0440
7C7C
4004
4004
4004
4004
7C7C
0440
0440
0440
FFFE
ENDCHAR
STARTCHAR U+4EA1
ENCODING 20129
SWIDTH 1000 0
DWIDTH 16 0
BBX 15 15 1 -1
BITMAP
0100
0100
0100
0100
FFFE
2000
2000
2000
2000
2000
2000
2000
2000
2000
3FFC
ENDCHAR
STARTCHAR U+4EA2
ENCODING 20130
SWIDTH 1000 0
DWIDTH 16 0
BBX 15 16 1 -2
BITMAP
0100
0100
0100
FFFE
0000
0000
0FE0
0820
0820
0820
0820
0820
1022
1022
203E
C000
ENDCHAR
STARTCHAR U+4EA4
ENCODING 20132
SWIDTH 1000 0
DWIDTH 16 0
BBX 15 16 1 -2
BITMAP
0100
0100
0100
FFFE
0440
0820
1010
2828
0440
0440
0280
0100
0280
0440
1830
E00E
ENDCHAR
STARTCHAR U+4EA5
ENCODING 20133
SWIDTH 1000 0
DWIDTH 16 0
BBX 15 16 1 -2
BITMAP
0100
0100
0100
FFFE
0100
0120
1220
0C48
0488
0310
0420
1860
6090
0308
0C04
7004
ENDCHAR
STARTCHAR U+4EA6
ENCODING 20134
SWIDTH 1000 0
DWIDTH 16 0
BBX 15 16 1 -2
BITMAP
0100
0100
0100
0100
FFFE
0440
1450
1448
2448
2444
4444
4842
8842
1040
2040
C0C0
ENDCHAR
STARTCHAR U+4EA8
ENCODING 20136
SWIDTH 1000 0
DWIDTH 16 0
BBX 15 16 1 -2
BITMAP
0100
0100
FFFE
0000
3FF8
2008
2008
3FF8
0000
7FFC
0030
01C0
0100
0100
0100
0700
ENDCHAR
STARTCHAR U+4EAB
ENCODING 20139
SWIDTH 1000 0
DWIDTH 16 0
BBX 15 16 1 -2
BITMAP
0100
0100
FFFE
0000
3FF8
2008
3FF8
0000
3FF8
0060
0180
FFFE
0100
0100
0100
0300
ENDCHAR
STARTCHAR U+4EAC
ENCODING 20140
SWIDTH 1000 0
DWIDTH 16 0
BBX 15 16 1 -2
BITMAP
0100
0100
0100
FFFE
0000
3FF8
2008
2008
2008
3FF8
0100
1110
2108
4104
8102
0700
ENDCHAR
STARTCHAR U+4EAD
ENCODING 20141
SWIDTH 1000 0
DWIDTH 16 0
BBX 15 16 1 -2
BITMAP
0100
0100
FFFE
0000
1FF0
1010
1FF0
0000
FFFE
8002
0000
3FF8
0100
0100
0100
0300
ENDCHAR
STARTCHAR U+4EAE
ENCODING 20142
SWIDTH 1000 0
DWIDTH 16 0
BBX 15 16 1 -2
BITMAP
0100
0100
FFFE
0000
1FF0
1010
1010
1FF0
0000
FFFE
8442
0440
0440
0840
3042
C07E
ENDCHAR
STARTCHAR U+4EB6
ENCODING 20150
SWIDTH 1000 0
DWIDTH 16 0
BBX 15 16 1 -2
BITMAP
0100
FFFE
3FF8
2008
2FE8
2828
2FE8
2008
3FF8
0000
3FF8
2008
3FF8
2008
3FF8
FFFE
ENDCHAR
STARTCHAR U+4EBA
ENCODING 20154
SWIDTH 1000 0
DWIDTH 16 0
BBX 15 16 1 -2
BITMAP
0100
0100
0100
0100
0100
0100
0100
0280
0280
0280
0440
0440
0820
1010
2008
C006
ENDCHAR
STARTCHAR U+4EC0
ENCODING 20160
SWIDTH 1000 0
DWIDTH 16 0
BBX 15 16 1 -2
BITMAP
1040
1040
2040
2040
6040
6040
AFFE
A040
2040
2040
2040
2040
2040
2040
2040
2040
ENDCHAR
STARTCHAR U+4EC1
ENCODING 20161
SWIDTH 1000 0
DWIDTH 16 0
BBX 15 16 1 -2
BITMAP
1000
1000
2000
27FC
6000
6000
A000
A000
2000
2000
2000
2000
2000
2000
2FFE
2000
ENDCHAR
STARTCHAR U+4EC4
ENCODING 20164
SWIDTH 1000 0
DWIDTH 16 0
BBX 15 15 1 -2
BITMAP
7FFE
4000
4080
4080
4080
4080
4080
4140
4140
4140
4220
4220
8410
8808
B006
ENDCHAR
STARTCHAR U+4EC7
ENCODING 20167
SWIDTH 1000 0
DWIDTH 16 0
BBX 15 16 1 -2
BITMAP
1100
1100
2100
2100
6FF0
6110
A110
A110
2110
2110
2110
2112
2212
2212
241E
2800
ENDCHAR
STARTCHAR U+4ECA
ENCODING 20170
SWIDTH 1000 0
DWIDTH 16 0
BBX 15 16 1 -2
BITMAP
0100
0180
0280
0440
0820
3018
CFE6
0000
0000
3FF0
0010
0010
0020
0020
0040
0080
ENDCHAR
STARTCHAR U+4ECB
ENCODING 20171
SWIDTH 1000 0
DWIDTH 16 0
BBX 15 16 1 -2
BITMAP
0100
0280
0440
0820
3018
C006
0820
0820
0820
0820
0820
1020
1020
2020
4020
8020
ENDCHAR
STARTCHAR U+4ECD
ENCODING 20173
SWIDTH 1000 0
DWIDTH 16 0
BBX 15 16 1 -2
BITMAP
1000
17F0
2110
2110
6110
613E
A122
A102
2102
2102
2102
2102
2202
2202
2404
2818
ENDCHAR
STARTCHAR U+4ED4
ENCODING 20180
SWIDTH 1000 0
DWIDTH 16 0
BBX 15 16 1 -2
BITMAP
1000
17FC
2008
2010
6060
6040
BFFE
A040
2040
2040
2040
2040
2040
2040
2040
21C0
ENDCHAR
STARTCHAR U+4ED5
ENCODING 20181
SWIDTH 1000 0
DWIDTH 16 0
BBX 15 16 1 -2
BITMAP
1040
1040
2040
2040
6040
7FFE
A040
A040
2040
2040
2040
2040
2040
2040
27FC
2000
ENDCHAR
STARTCHAR U+4ED6
ENCODING 20182
SWIDTH 1000 0
DWIDTH 16 0
BBX 15 16 1 -2
BITMAP
1040
1040
2040
244C
6454
64E4
A744
BC44
2444
2444
245C
2440
2402
2402
27FE
2000
ENDCHAR
STARTCHAR U+4ED7
ENCODING 20183
SWIDTH 1000 0
DWIDTH 16 0
BBX 15 16 1 -2
BITMAP
1040
1040
2040
2040
6FFE
6040
A440
A440
2A40
2240
2140
20C0
2040
20A0
2318
2C06
ENDCHAR
STARTCHAR U+4ED8
ENCODING 20184
SWIDTH 1000 0
DWIDTH 16 0
BBX 15 16 1 -2
BITMAP
1010
1010
2010
2010
6FFE
6010
A010
A010
2210
2110
2090
2010
2010
2010
2010
2030
ENDCHAR
STARTCHAR U+4ED9
ENCODING 20185
SWIDTH 1000 0
DWIDTH 16 0
BBX 14 16 1 -2
BITMAP
1040
1040
2040
2444
6444
6444
A444
A444
2444
2444
2444
2444
2444
27FC
2404
2000
ENDCHAR
STARTCHAR U+4EDD
ENCODING 20189
SWIDTH 1000 0
DWIDTH 16 0
BBX 15 15 1 -1
BITMAP
0100
0180
0240
0420
0818
3006
C000
0000
3FF8
0100
0100
0100
0100
0100
FFFE
ENDCHAR
STARTCHAR U+4EDF
ENCODING 20191
SWIDTH 1000 0
DWIDTH 16 0
BBX 15 16 1 -2
BITMAP
1000
103C
27C0
2040
6040
6040
A040
BFFE
2040
2040
2040
2040
2040
2040
2040
2040
ENDCHAR
STARTCHAR U+4EE3
ENCODING 20195
SWIDTH 1000 0
DWIDTH 16 0
BBX 15 16 1 -2
BITMAP
1100
1120
2110
2100
6100
7FFE
A100
A100
2100
2080
2080
2040
2040
2022
201A
2006
ENDCHAR
STARTCHAR U+4EE4
ENCODING 20196
SWIDTH 1000 0
DWIDTH 16 0
BBX 15 16 1 -2
BITMAP
0100
0280
0440
0820
3018
C006
1FE0
0000
0000
7FF8
0408
0408
0408
0470
0400
0400
ENDCHAR
STARTCHAR U+4EE5
ENCODING 20197
SWIDTH 1000 0
DWIDTH 16 0
BBX 15 16 1 -2
BITMAP
4010
4010
4410
4410
4210
4210
4010
4010
4010
4028
4028
4348
5C88
E104
0204
0C02
ENDCHAR
STARTCHAR U+4EF0
ENCODING 20208
SWIDTH 1000 0
DWIDTH 16 0
BBX 15 16 1 -2
BITMAP
1180
163E
2422
2422
6422
6422
A422
A422
2422
2422
25E2
2E3E
2020
2020
2020
2020
ENDCHAR
STARTCHAR U+4EF2
ENCODING 20210
SWIDTH 1000 0
DWIDTH 16 0
BBX 15 16 1 -2
BITMAP
1040
1040
2040
2040
6FFE
6842
A842
A842
2842
2FFE
2842
2040
2040
2040
2040
2040
ENDCHAR
STARTCHAR U+4EF6
ENCODING 20214
SWIDTH 1000 0
DWIDTH 16 0
BBX 15 16 1 -2
BITMAP
1040
1140
2140
2240
63FC
6440
A840
A040
2040
2FFE
2040
2040
2040
2040
2040
2040
ENDCHAR
STARTCHAR U+4EF7
ENCODING 20215
SWIDTH 1000 0
DWIDTH 16 0
BBX 15 16 1 -2
BITMAP
1040
1040
20A0
2110
6208
6404
A802
A210
2210
2210
2210
2210
2210
2410
2410
2810
ENDCHAR
STARTCHAR U+4EFB
ENCODING 20219
SWIDTH 1000 0
DWIDTH 16 0
BBX 15 16 1 -2
BITMAP
1018
10E0
2740
2040
6040
6040
A040
AFFE
2040
2040
2040
2040
2040
2040
27FC
2000
ENDCHAR
STARTCHAR U+4F01
ENCODING 20225
SWIDTH 1000 0
DWIDTH 16 0
BBX 15 15 1 -1
BITMAP
0100
0100
0280
0440
0820
3018
C106
0100
1100
11F8
1100
1100
1100
1100
FFFE
ENDCHAR
STARTCHAR U+4F09
ENCODING 20233
SWIDTH 1000 0
DWIDTH 16 0
BBX 15 16 1 -2
BITMAP
1040
1040
2040
2FFE
6000
6000
A1F0
A110
2110
2110
2110
2110
2212
2212
241E
2800
ENDCHAR
STARTCHAR U+4F0A
ENCODING 20234
SWIDTH 1000 0
DWIDTH 16 0
BBX 15 16 1 -2
BITMAP
1000
17F8
2088
2088
6088
6FFE
A088
A088
2088
2FF8
2080
2100
2100
2200
2400
2800
ENDCHAR
STARTCHAR U+4F0B
ENCODING 20235
SWIDTH 1000 0
DWIDTH 16 0
BBX 15 16 1 -2
BITMAP
1000
13F0
2210
2210
6210
63FC
A304
A308
2288
2290
2250
2420
2420
2450
2488
2B06
ENDCHAR
STARTCHAR U+4F0D
ENCODING 20237
SWIDTH 1000 0
DWIDTH 16 0
BBX 15 16 1 -2
BITMAP
1000
1000
2FFC
2080
6080
6080
A080
AFF8
2088
2108
2108
2108
2108
2108
3FFE
2000
ENDCHAR
STARTCHAR U+4F0E
ENCODING 20238
SWIDTH 1000 0
DWIDTH 16 0
BBX 15 16 1 -2
BITMAP
1040
1040
2040
2FFE
6040
6040
A7FC
A204
2208
2108
2110
20A0
2040
20A0
2318
2C06
ENDCHAR
STARTCHAR U+4F0F
ENCODING 20239
SWIDTH 1000 0
DWIDTH 16 0
BBX 15 16 1 -2
BITMAP
1080
1090
2088
2080
6080
7FFE
A080
A080
2140
2140
2120
2220
2210
2408
2404
2802
ENDCHAR
STARTCHAR U+4F10
ENCODING 20240
SWIDTH 1000 0
DWIDTH 16 0
BBX 15 16 1 -2
BITMAP
1080
1090
2088
2080
7FFE
6080
A084
A084
2088
2088
2090
2060
2040
20A2
231A
2C06
ENDCHAR
STARTCHAR U+4F11
ENCODING 20241
SWIDTH 1000 0
DWIDTH 16 0
BBX 15 16 1 -2
BITMAP
1040
1040
2040
2040
6FFE
60E0
A0E0
A150
2150
2248
2248
2444
2842
2040
2040
2040
ENDCHAR
STARTCHAR U+4F2F
ENCODING 20271
SWIDTH 1000 0
DWIDTH 16 0
BBX 14 16 1 -2
BITMAP
1040
1040
2080
27FC
6404
6404
A404
A404
27FC
2404
2404
2404
2404
2404
27FC
2404
ENDCHAR
STARTCHAR U+4F34
ENCODING 20276
SWIDTH 1000 0
DWIDTH 16 0
BBX 15 16 1 -2
BITMAP
1040
1248
2444
2842
6040
6040
A7FC
A040
2040
2040
2FFE
2040
2040
2040
2040
2040
ENDCHAR
STARTCHAR U+4F36
ENCODING 20278
SWIDTH 1000 0
DWIDTH 16 0
BBX 15 16 1 -2
BITMAP
1040
10A0
2110
2208
6404
6802
A7F8
A000
2000
2FFC
2104
2104
2104
2118
2100
2100
ENDCHAR
STARTCHAR U+4F38
ENCODING 20280
SWIDTH 1000 0
DWIDTH 16 0
BBX 14 16 1 -2
BITMAP
1040
1040
2040
27FC
6444
6444
A444
A7FC
2444
2444
2444
27FC
2040
2040
2040
2040
ENDCHAR
STARTCHAR U+4F3A
ENCODING 20282
SWIDTH 1000 0
DWIDTH 16 0
BBX 15 16 1 -2
BITMAP
1000
17FE
2002
2002
6002
67FA
A002
A002
23F2
2212
2212
23F2
2212
2002
2002
2006
ENDCHAR
STARTCHAR U+4F3C
ENCODING 20284
SWIDTH 1000 0
DWIDTH 16 0
BBX 15 16 1 -2
BITMAP
1008
1008
2288
2248
6228
6208
A208
A208
2208
2208
2208
23E8
3C08
2014
2062
2182
ENDCHAR
STARTCHAR U+4F3D
ENCODING 20285
SWIDTH 1000 0
DWIDTH 16 0
BBX 15 16 1 -2
BITMAP
1200
1200
2FDE
2252
6252
6252
A252
A252
2252
2252
2252
2252
2452
2452
259E
2812
ENDCHAR
STARTCHAR U+4F43
ENCODING 20291
SWIDTH 1000 0
DWIDTH 16 0
BBX 14 16 1 -2
BITMAP
1000
1000
27FC
2444
6444
6444
A444
A444
27FC
2444
2444
2444
2444
2444
27FC
2404
ENDCHAR
STARTCHAR U+4F46
ENCODING 20294
SWIDTH 1000 0
DWIDTH 16 0
BBX 15 15 1 -1
BITMAP
1000
17FC
2404
2404
6404
67FC
A404
A404
2404
27FC
2404
2000
2000
2FFE
2000
ENDCHAR
STARTCHAR U+4F47
ENCODING 20295
SWIDTH 1000 0
DWIDTH 16 0
BBX 15 16 1 -2
BITMAP
1040
1040
2040
2FFE
6802
6000
A000
A7FC
2040
2040
2040
2040
2040
2040
2040
20C0
ENDCHAR
STARTCHAR U+4F48
ENCODING 20296
SWIDTH 1000 0
DWIDTH 16 0
BBX 15 16 1 -2
BITMAP
1040
1040
2080
3FFE
6240
6440
A840
B7FC
2444
2444
2444
2444
2444
2444
244C
2040
ENDCHAR
STARTCHAR U+4F4D
ENCODING 20301
SWIDTH 1000 0
DWIDTH 16 0
BBX 15 16 1 -2
BITMAP
1040
1040
2040
2040
67FC
6000
A404
A208
2208
2108
2110
2110
2110
2000
2FFE
2000
ENDCHAR
STARTCHAR U+4F4E
ENCODING 20302
SWIDTH 1000 0
DWIDTH 16 0
BBX 15 16 1 -2
BITMAP
1078
17C0
2440
2440
6440
6440
A7FE
A440
2440
2440
2420
27E2
3C12
200A
27F6
2000
ENDCHAR
STARTCHAR U+4F4F
ENCODING 20303
SWIDTH 1000 0
DWIDTH 16 0
BBX 15 16 1 -2
BITMAP
1100
1080
2040
27FC
6040
6040
A040
A040
27FC
2040
2040
2040
2040
2040
2FFE
2000
ENDCHAR
STARTCHAR U+4F50
ENCODING 20304
SWIDTH 1000 0
DWIDTH 16 0
BBX 15 16 1 -2
BITMAP
1080
1080
2080
3FFE
6100
6100
A200
A200
2400
2FFC
3040
2040
2040
2040
2FFE
2000
ENDCHAR
STARTCHAR U+4F51
ENCODING 20305
SWIDTH 1000 0
DWIDTH 16 0
BBX 15 16 1 -2
BITMAP
1080
1080
2080
2100
7FFE
6200
A200
A400
27F8
2A08
3208
2208
2208
2208
23F8
2208
ENDCHAR
STARTCHAR U+4F55
ENCODING 20309
SWIDTH 1000 0
DWIDTH 16 0
BBX 15 16 1 -2
BITMAP
1000
1000
3FFE
2008
6008
6008
A7C8
A448
2448
2448
27C8
2448
2008
2008
2008
2018
ENDCHAR
STARTCHAR U+4F59
ENCODING 20313
SWIDTH 1000 0
DWIDTH 16 0
BBX 15 16 1 -2
BITMAP
0180
0240
0420
0818
3006
DFF0
0100
0100
0100
FFFE
0100
1110
2108
4104
8102
0700
ENDCHAR
STARTCHAR U+4F5A
ENCODING 20314
SWIDTH 1000 0
DWIDTH 16 0
BBX 15 16 1 -2
BITMAP
1040
1240
2240
2440
67FC
6840
B040
A040
3FFE
20A0
20A0
2110
2110
2208
2404
2802
ENDCHAR
STARTCHAR U+4F5B
ENCODING 20315
SWIDTH 1000 0
DWIDTH 16 0
BBX 15 16 1 -2
BITMAP
1120
1120
2120
27FC
6124
6124
A7FC
A520
2920
2FFE
2122
2122
2222
222C
2420
2820
ENDCHAR
STARTCHAR U+4F5C
ENCODING 20316
SWIDTH 1000 0
DWIDTH 16 0
BBX 15 16 1 -2
BITMAP
1100
1100
2200
23FE
6480
6880
A080
A0FC
2080
2080
20FE
2080
2080
2080
2080
2080
ENDCHAR
STARTCHAR U+4F69
ENCODING 20329
SWIDTH 1000 0
DWIDTH 16 0
BBX 15 16 1 -2
BITMAP
1000
1FF8
2808
2808
6FF8
6888
A888
ABE8
2AA8
2AA8
2AA8
2AA8
2AA8
2AEA
2886
2882
ENDCHAR
STARTCHAR U+4F6F
ENCODING 20335
SWIDTH 1000 0
DWIDTH 16 0
BBX 15 16 1 -2
BITMAP
1208
1110
2110
2FFE
6040
6040
A040
A7FC
2040
2040
2040
2FFE
2040
2040
2040
2040
ENDCHAR
STARTCHAR U+4F70
ENCODING 20336
SWIDTH 1000 0
DWIDTH 16 0
BBX 15 16 1 -2
BITMAP
1000
1FFE
2040
2080
67FC
6404
A404
A404
2404
27FC
2404
2404
2404
2404
27FC
2404
ENDCHAR
STARTCHAR U+4F73
ENCODING 20339
SWIDTH 1000 0
DWIDTH 16 0
BBX 15 16 1 -2
BITMAP
1040
1040
2040
27FC
6040
6040
AFFE
2000
2040
2040
2040
27FC
2040
2040
3FFE
2000
ENDCHAR
STARTCHAR U+4F76
ENCODING 20342
SWIDTH 1000 0
DWIDTH 16 0
BBX 15 16 1 -2
BITMAP
1040
1040
2040
27FC
6040
6040
A040
AFFE
2000
2000
27FC
2404
2404
2404
27FC
2404
ENDCHAR
STARTCHAR U+4F7A
ENCODING 20346
SWIDTH 1000 0
DWIDTH 16 0
BBX 15 16 1 -2
BITMAP
13C0
1040
20A0
2110
6208
6C06
A7FC
A040
2040
2040
27FC
2040
2040
2040
2FFE
2000
ENDCHAR
STARTCHAR U+4F7E
ENCODING 20350
SWIDTH 1000 0
DWIDTH 16 0
BBX 15 16 1 -2
BITMAP
1000
10F0
2210
2208
6404
6802
B3F8
A208
23F8
2208
23F8
2208
2208
2208
2408
2818
ENDCHAR
STARTCHAR U+4F7F
ENCODING 20351
SWIDTH 1000 0
DWIDTH 16 0
BBX 15 16 1 -2
BITMAP
1040
1040
2FFE
2040
67FC
6444
A444
A444
27FC
2040
2440
2280
2180
2140
2230
2C0E
ENDCHAR
STARTCHAR U+4F81
ENCODING 20353
SWIDTH 1000 0
DWIDTH 16 0
BBX 15 16 1 -2
BITMAP
1080
1280
2280
27FC
6880
7080
A080
BFFE
2220
2220
2220
2220
2420
2422
283E
3000
ENDCHAR
STARTCHAR U+4F83
ENCODING 20355
SWIDTH 1000 0
DWIDTH 16 0
BBX 15 16 1 -2
BITMAP
1000
17FC
2404
2404
6404
6404
A7FC
A000
2248
2248
2248
2248
2248
2448
244A
284E
ENDCHAR
STARTCHAR U+4F84
ENCODING 20356
SWIDTH 1000 0
DWIDTH 16 0
BBX 15 16 1 -2
BITMAP
1000
17FC
2080
2080
6108
6204
A4FC
AF42
2040
2040
27FC
2040
2040
2040
2FFE
2000
ENDCHAR
STARTCHAR U+4F86
ENCODING 20358
SWIDTH 1000 0
DWIDTH 16 0
BBX 15 16 1 -2
BITMAP
0100
0100
0100
FFFE
0100
1110
1110
2928
4544
0100
0100
0380
0540
0920
3118
C106
ENDCHAR
STARTCHAR U+4F88
ENCODING 20360
SWIDTH 1000 0
DWIDTH 16 0
BBX 15 16 1 -2
BITMAP
1040
1040
20FC
2108
6290
6C60
A040
A0A0
2320
2C7E
2084
2348
2C30
2060
2180
2E00
ENDCHAR
STARTCHAR U+4F8A
ENCODING 20362
SWIDTH 1000 0
DWIDTH 16 0
BBX 15 16 1 -2
BITMAP
1040
1444
2444
2248
6248
6040
A040
2FFE
2110
2110
2110
2110
2210
2212
2412
281E
ENDCHAR
STARTCHAR U+4F8B
ENCODING 20363
SWIDTH 1000 0
DWIDTH 16 0
BBX 15 16 1 -2
BITMAP
1002
1002
27EA
210A
620A
63EA
A42A
A62A
294A
308A
208A
210A
220A
2402
2802
2006
ENDCHAR
STARTCHAR U+4F8D
ENCODING 20365
SWIDTH 1000 0
DWIDTH 16 0
BBX 15 16 1 -2
BITMAP
1040
1040
2040
27FC
6040
6040
AFFE
A010
2010
3FFE
2010
2110
2090
2010
2010
2070
ENDCHAR
STARTCHAR U+4F8F
ENCODING 20367
SWIDTH 1000 0
DWIDTH 16 0
BBX 15 16 1 -2
BITMAP
1040
1040
2240
2240
67FC
6440
A840
A040
2FFE
20E0
20D0
2150
2148
2248
2444
2842
ENDCHAR
STARTCHAR U+4F91
ENCODING 20369
SWIDTH 1000 0
DWIDTH 16 0
BBX 15 16 1 -2
BITMAP
1040
1040
2080
2FFE
6100
6200
A3FC
A504
29FC
3104
21FC
2104
2104
2104
2104
210C
ENDCHAR
STARTCHAR U+4F96
ENCODING 20374
SWIDTH 1000 0
DWIDTH 16 0
BBX 15 16 1 -2
BITMAP
0100
0280
0440
0820
3018
DFE6
0000
0000
3FF8
2448
2448
3FF8
2448
2448
2448
2458
ENDCHAR
STARTCHAR U+4F98
ENCODING 20376
SWIDTH 1000 0
DWIDTH 16 0
BBX 15 16 1 -2
BITMAP
1040
1040
2040
2FFE
681A
60E0
A780
A080
2080
2FFC
2080
2080
2082
2082
20FE
2000
ENDCHAR
STARTCHAR U+4F9B
ENCODING 20379
SWIDTH 1000 0
DWIDTH 16 0
BBX 15 16 1 -2
BITMAP
1210
1210
2210
2210
6FFC
6210
A210
A210
2210
3FFE
2000
2000
2210
2408
2804
2000
ENDCHAR
STARTCHAR U+4F9D
ENCODING 20381
SWIDTH 1000 0
DWIDTH 16 0
BBX 15 16 1 -2
BITMAP
1080
1080
2080
2080
7FFE
6140
A242
A644
2A48
3230
2220
2210
2268
2384
2E02
2000
ENDCHAR
STARTCHAR U+4FAE
ENCODING 20398
SWIDTH 1000 0
DWIDTH 16 0
BBX 15 16 1 -2
BITMAP
1200
1200
27FE
2400
6800
77FC
A444
A444
2444
3FFE
2888
2888
2888
2FFE
2008
2070
ENDCHAR
STARTCHAR U+4FAF
ENCODING 20399
SWIDTH 1000 0
DWIDTH 16 0
BBX 15 16 1 -2
BITMAP
1000
13F8
2008
2008
6FFE
6200
A200
A7FC
2840
2040
3FFE
20A0
20A0
2110
2208
2C06
ENDCHAR
STARTCHAR U+4FB5
ENCODING 20405
SWIDTH 1000 0
DWIDTH 16 0
BBX 15 16 1 -2
BITMAP
1000
13F8
2008
2FFE
6008
63F8
A000
AFFE
2802
27F8
2210
2120
20C0
20A0
2318
2C06
ENDCHAR
STARTCHAR U+4FB6
ENCODING 20406
SWIDTH 1000 0
DWIDTH 16 0
BBX 14 16 1 -2
BITMAP
1000
17F8
2408
2408
6408
67F8
A080
A080
2100
2FFC
2804
2804
2804
2804
2FFC
2804
ENDCHAR
STARTCHAR U+4FBF
ENCODING 20415
SWIDTH 1000 0
DWIDTH 16 0
BBX 15 16 1 -2
BITMAP
1000
1FFE
2080
2080
6FFC
6884
AFFC
A884
2FFC
2884
2080
2480
2300
21C0
223E
2C00
ENDCHAR
STARTCHAR U+4FC2
ENCODING 20418
SWIDTH 1000 0
DWIDTH 16 0
BBX 15 16 1 -2
BITMAP
103C
17C0
2040
2080
6110
6620
A248
A184
20BC
2FC2
2040
2248
2444
2842
2040
2040
ENDCHAR
STARTCHAR U+4FC3
ENCODING 20419
SWIDTH 1000 0
DWIDTH 16 0
BBX 15 16 1 -2
BITMAP
1000
17FC
2404
2404
6404
6404
A7FC
A040
2040
227E
2240
2240
2540
2540
28FE
3000
ENDCHAR
STARTCHAR U+4FC4
ENCODING 20420
SWIDTH 1000 0
DWIDTH 16 0
BBX 15 16 1 -2
BITMAP
1010
10D4
2712
2110
6110
7FFE
A110
A112
2132
21D4
2F14
2118
210A
211A
2126
2342
ENDCHAR
STARTCHAR U+4FC9
ENCODING 20425
SWIDTH 1000 0
DWIDTH 16 0
BBX 15 16 1 -2
BITMAP
1000
1FFE
2080
2080
67F8
6088
A108
A108
3FFE
2000
23F8
2208
2208
2208
23F8
2208
ENDCHAR
STARTCHAR U+4FCA
ENCODING 20426
SWIDTH 1000 0
DWIDTH 16 0
BBX 15 16 1 -2
BITMAP
1100
1210
24F8
3F24
6220
6222
A23E
A500
3900
23F8
2610
2920
30C0
20A0
2318
2C06
ENDCHAR
STARTCHAR U+4FCE
ENCODING 20430
SWIDTH 1000 0
DWIDTH 16 0
BBX 15 15 1 -1
BITMAP
1000
11F8
1108
2908
2508
41F8
8108
0108
1108
1108
11F8
2908
2508
4108
87FE
ENDCHAR
STARTCHAR U+4FD1
ENCODING 20433
SWIDTH 1000 0
DWIDTH 16 0
BBX 15 16 1 -2
BITMAP
1000
17FC
2008
2090
6060
6FFE
A842
A842
2FFE
2842
2842
2FFE
2842
2842
2842
2846
ENDCHAR
STARTCHAR U+4FD3
ENCODING 20435
SWIDTH 1000 0
DWIDTH 16 0
BBX 15 16 1 -2
BITMAP
1000
17FC
2248
2248
6490
6490
A248
A124
2000
27FC
2040
2040
2040
2040
2FFE
2000
ENDCHAR
STARTCHAR U+4FD4
ENCODING 20436
SWIDTH 1000 0
DWIDTH 16 0
BBX 15 16 1 -2
BITMAP
1000
13FC
2204
2204
63FC
6204
A204
A3FC
2204
2204
23FC
2090
2092
2112
221E
2C00
ENDCHAR
STARTCHAR U+4FD7
ENCODING 20439
SWIDTH 1000 0
DWIDTH 16 0
BBX 15 16 1 -2
BITMAP
1110
1208
2404
2040
6040
60A0
A110
A208
2C06
23F8
2208
2208
2208
2208
23F8
2208
ENDCHAR
STARTCHAR U+4FDA
ENCODING 20442
SWIDTH 1000 0
DWIDTH 16 0
BBX 15 16 1 -2
BITMAP
1000
17FC
2444
2444
67FC
6444
A444
A7FC
2040
2040
27FC
2040
2040
2040
2FFE
2000
ENDCHAR
STARTCHAR U+4FDD
ENCODING 20445
SWIDTH 1000 0
DWIDTH 16 0
BBX 15 16 1 -2
BITMAP
1000
17FC
2404
2404
6404
67FC
A040
A040
2FFE
20E0
20E0
2150
2250
2248
2444
2842
ENDCHAR
STARTCHAR U+4FDF
ENCODING 20447
SWIDTH 1000 0
DWIDTH 16 0
BBX 15 16 1 -2
BITMAP
1100
1110
2208
24FC
6F02
6200
A200
A7FC
2440
2840
3FFE
2040
20A0
2110
2208
2C06
ENDCHAR
STARTCHAR U+4FE0
ENCODING 20448
SWIDTH 1000 0
DWIDTH 16 0
BBX 15 16 1 -2
BITMAP
1040
1040
2040
2FFE
6040
6248
A248
A554
28E2
2040
20A0
20A0
2110
2208
2404
2802
ENDCHAR
STARTCHAR U+4FE1
ENCODING 20449
SWIDTH 1000 0
DWIDTH 16 0
BBX 15 16 1 -2
BITMAP
1000
11F8
2000
2FFE
6000
6000
A3FC
A000
23FC
2000
2000
23FC
2204
2204
23FC
2204
ENDCHAR
STARTCHAR U+4FEE
ENCODING 20462
SWIDTH 1000 0
DWIDTH 16 0
BBX 15 16 1 -2
BITMAP
1040
1040
20FC
2488
6550
6620
A458
A486
2720
2448
2492
2724
2448
2590
2460
2180
ENDCHAR
STARTCHAR U+4FEF
ENCODING 20463
SWIDTH 1000 0
DWIDTH 16 0
BBX 15 16 1 -2
BITMAP
1040
1040
27FE
2400
6448
6488
A588
A6FE
2488
24C8
24A8
2488
2488
2488
2888
2898
ENDCHAR
STARTCHAR U+4FF1
ENCODING 20465
SWIDTH 1000 0
DWIDTH 16 0
BBX 15 16 1 -2
BITMAP
1000
17F8
2408
27F8
6408
67F8
A408
A7F8
2000
2000
3FFE
2000
2000
2210
2408
2804
ENDCHAR
STARTCHAR U+4FF3
ENCODING 20467
SWIDTH 1000 0
DWIDTH 16 0
BBX 15 16 1 -2
BITMAP
1120
1120
2120
2120
7F3E
6120
A120
BF3C
2120
2120
3F3E
2120
2220
2220
2420
2820
ENDCHAR
STARTCHAR U+4FF5
ENCODING 20469
SWIDTH 1000 0
DWIDTH 16 0
BBX 15 16 1 -2
BITMAP
1040
1040
2040
2FFE
6040
67FC
A040
AFFE
2120
2322
2524
3918
2110
21E8
2E04
2002
ENDCHAR
STARTCHAR U+4FF8
ENCODING 20472
SWIDTH 1000 0
DWIDTH 16 0
BBX 15 16 1 -2
BITMAP
1040
1040
2FFE
2040
67FC
60A0
AFFE
A208
2444
2842
27FC
2040
2FFE
2040
2040
2040
ENDCHAR
STARTCHAR U+4FFA
ENCODING 20474
SWIDTH 1000 0
DWIDTH 16 0
BBX 15 16 1 -2
BITMAP
1040
1040
2FFE
20A0
6118
6646
B840
A7FC
2444
27FC
2444
27FC
2040
2042
207E
2000
ENDCHAR
STARTCHAR U+5002
ENCODING 20482
SWIDTH 1000 0
DWIDTH 16 0
BBX 15 16 1 -2
BITMAP
1108
1108
2210
2210
7FFE
6210
A210
A210
2390
3EFE
2210
2210
2210
2410
2410
2810
ENDCHAR
STARTCHAR U+5006
ENCODING 20486
SWIDTH 1000 0
DWIDTH 16 0
BBX 15 16 1 -2
BITMAP
1000
1000
2FFE
2040
6040
67FC
A444
A554
2554
26EC
26EC
2444
2444
2444
2444
240C
ENDCHAR
STARTCHAR U+5009
ENCODING 20489
SWIDTH 1000 0
DWIDTH 16 0
BBX 15 16 1 -2
BITMAP
0100
0280
0440
0820
17D8
E006
1FF0
1010
1FF0
1010
1FF0
1000
3FF0
3010
5FF0
9010
ENDCHAR
STARTCHAR U+500B
ENCODING 20491
SWIDTH 1000 0
DWIDTH 16 0
BBX 14 16 1 -2
BITMAP
1000
17FC
2404
2444
6444
67FC
A444
A444
25F4
2514
2514
25F4
2404
2404
27FC
2404
ENDCHAR
STARTCHAR U+500D
ENCODING 20493
SWIDTH 1000 0
DWIDTH 16 0
BBX 15 16 1 -2
BITMAP
1040
1040
2040
27FC
6000
6208
A110
BFFE
2000
2000
27FC
2404
2404
2404
27FC
2404
ENDCHAR
STARTCHAR U+5011
ENCODING 20497
SWIDTH 1000 0
DWIDTH 16 0
BBX 15 16 1 -2
BITMAP
1000
179E
2492
279E
6492
679E
A402
A402
2402
2402
2402
2402
2402
2402
2402
2406
ENDCHAR
STARTCHAR U+5012
ENCODING 20498
SWIDTH 1000 0
DWIDTH 16 0
BBX 15 16 1 -2
BITMAP
1002
1FD2
2212
2452
69D2
7E32
A112
A112
2112
2FD2
2112
2112
21F2
2F12
2002
200E
ENDCHAR
STARTCHAR U+5016
ENCODING 20502
SWIDTH 1000 0
DWIDTH 16 0
BBX 15 16 1 -2
BITMAP
1040
1040
27FC
2040
6040
7FFE
A208
A110
2FFC
2040
2040
3FFE
2040
2040
2040
2040
ENDCHAR
STARTCHAR U+5019
ENCODING 20505
SWIDTH 1000 0
DWIDTH 16 0
BBX 15 16 1 -2
BITMAP
1000
11F8
2008
2008
6BFE
6880
A880
A9FC
2A20
2C20
2FFE
2820
2850
2888
2904
2602
ENDCHAR
STARTCHAR U+501A
ENCODING 20506
SWIDTH 1000 0
DWIDTH 16 0
BBX 15 16 1 -2
BITMAP
1040
1040
2FFE
20A0
6110
6208
AC06
A000
3FFE
2008
23C8
2248
2248
23C8
2008
2018
ENDCHAR
STARTCHAR U+501C
ENCODING 20508
SWIDTH 1000 0
DWIDTH 16 0
BBX 15 16 1 -2
BITMAP
1000
17FE
2442
2442
65FA
6442
A442
A7FE
2402
25FA
250A
25FA
250A
2402
2802
2806
ENDCHAR
STARTCHAR U+501E
ENCODING 20510
SWIDTH 1000 0
DWIDTH 16 0
BBX 15 16 1 -2
BITMAP
1040
1040
2040
2FFE
6000
67FC
A404
A404
2404
27FC
2040
2040
2248
2444
2842
21C0
ENDCHAR
STARTCHAR U+501F
ENCODING 20511
SWIDTH 1000 0
DWIDTH 16 0
BBX 15 16 1 -2
BITMAP
1210
1210
2210
2FFC
6210
6210
A210
BFFE
2000
27F8
2408
2408
27F8
2408
2408
27F8
ENDCHAR
STARTCHAR U+5021
ENCODING 20513
SWIDTH 1000 0
DWIDTH 16 0
BBX 15 16 1 -2
BITMAP
1000
13FC
2204
23FC
6204
63FC
A204
A000
27FE
2402
2402
27FE
2402
2402
27FE
2402
ENDCHAR
STARTCHAR U+5023
ENCODING 20515
SWIDTH 1000 0
DWIDTH 16 0
BBX 15 16 1 -2
BITMAP
1210
1210
2210
3FBE
6424
6424
A7E4
A494
2494
2494
2488
2488
2894
2894
28A4
3342
ENDCHAR
STARTCHAR U+5024
ENCODING 20516
SWIDTH 1000 0
DWIDTH 16 0
BBX 15 16 1 -2
BITMAP
1040
1040
2FFE
2080
6080
6BF8
AA08
ABF8
2A08
2BF8
2A08
2BF8
2A08
2800
2FFE
2800
ENDCHAR
STARTCHAR U+5026
ENCODING 20518
SWIDTH 1000 0
DWIDTH 16 0
BBX 15 16 1 -2
BITMAP
1040
1248
2444
2FFE
60A0
6110
BFFE
A408
2804
33F2
2210
2210
2274
2204
23FC
2000
ENDCHAR
STARTCHAR U+5027
ENCODING 20519
SWIDTH 1000 0
DWIDTH 16 0
BBX 15 16 1 -2
BITMAP
1040
1040
2040
2FFE
6802
6000
A7FC
A000
2000
2FFE
2040
2040
2248
2444
2842
20C0
ENDCHAR
STARTCHAR U+5028
ENCODING 20520
SWIDTH 1000 0
DWIDTH 16 0
BBX 15 16 1 -2
BITMAP
1000
17FC
2404
2404
67FC
6420
A420
A7FE
2420
2420
25FC
2504
2504
2504
29FC
2800
ENDCHAR
STARTCHAR U+502A
ENCODING 20522
SWIDTH 1000 0
DWIDTH 16 0
BBX 15 16 1 -2
BITMAP
1180
161C
2404
2404
671C
6404
A404
A7FC
2514
2110
2110
2110
2210
2212
241E
2800
ENDCHAR
STARTCHAR U+502B
ENCODING 20523
SWIDTH 1000 0
DWIDTH 16 0
BBX 15 16 1 -2
BITMAP
10C0
1120
2210
2408
6804
73F2
A000
AFFC
2924
2924
2924
2FFC
2924
2924
2924
292C
ENDCHAR
STARTCHAR U+502C
ENCODING 20524
SWIDTH 1000 0
DWIDTH 16 0
BBX 15 16 1 -2
BITMAP
1040
1040
207E
2040
6040
67FC
A404
A7FC
2404
27FC
2040
2040
3FFE
2040
2040
2040
ENDCHAR
STARTCHAR U+502D
ENCODING 20525
SWIDTH 1000 0
DWIDTH 16 0
BBX 15 16 1 -2
BITMAP
107C
17C0
2040
2FFE
60E0
6150
A248
AC46
2080
2100
3FFE
2210
2720
28E0
2318
0C04
ENDCHAR
STARTCHAR U+503B
ENCODING 20539
SWIDTH 1000 0
DWIDTH 16 0
BBX 15 16 1 -2
BITMAP
1000
1FFE
2492
2492
6794
6492
A492
A792
2492
2492
27F2
3C92
2092
209C
2090
2090
ENDCHAR
STARTCHAR U+5043
ENCODING 20547
SWIDTH 1000 0
DWIDTH 16 0
BBX 15 16 1 -2
BITMAP
1000
1FFC
29F8
2908
69F8
6908
A9F8
A840
2FFE
2888
2990
2A60
2890
2B08
2FFE
2800
ENDCHAR
STARTCHAR U+5047
ENCODING 20551
SWIDTH 1000 0
DWIDTH 16 0
BBX 15 16 1 -2
BITMAP
17BE
1482
2482
2482
67BE
6400
A400
A47E
27A2
2414
2414
2788
2408
2414
2424
2442
ENDCHAR
STARTCHAR U+5048
ENCODING 20552
SWIDTH 1000 0
DWIDTH 16 0
BBX 15 16 1 -2
BITMAP
1000
13FC
2204
23FC
2204
63FC
6080
A100
A3FE
2622
2A52
228A
2202
23FE
2202
200C
ENDCHAR
STARTCHAR U+5049
ENCODING 20553
SWIDTH 1000 0
DWIDTH 16 0
BBX 15 16 1 -2
BITMAP
1080
1080
27F8
2108
6108
6FFE
A000
A7FC
2404
27FC
2020
27FC
2420
3FFE
2020
2020
ENDCHAR
STARTCHAR U+504F
ENCODING 20559
SWIDTH 1000 0
DWIDTH 16 0
BBX 15 16 1 -2
BITMAP
103C
17C0
2400
27FC
6404
6404
A7FC
A400
2400
27FE
2652
2652
27FE
2A52
2A52
2A56
ENDCHAR
STARTCHAR U+5055
ENCODING 20565
SWIDTH 1000 0
DWIDTH 16 0
BBX 15 16 1 -2
BITMAP
1420
1420
2426
27B8
6420
6420
A5E2
BE3E
2040
2080
27FC
2404
27FC
2404
27FC
2404
ENDCHAR
STARTCHAR U+505A
ENCODING 20570
SWIDTH 1000 0
DWIDTH 16 0
BBX 15 16 1 -2
BITMAP
1210
1210
2220
223E
7FC4
A244
A244
22A8
2FA8
28A8
2890
2890
28A8
2FA8
28C4
2082
ENDCHAR
STARTCHAR U+505C
ENCODING 20572
SWIDTH 1000 0
DWIDTH 16 0
BBX 15 16 1 -2
BITMAP
1040
1040
2FFE
2000
67FC
6404
A7FC
A000
27FC
2010
2020
2FFE
2040
2040
2040
21C0
ENDCHAR
STARTCHAR U+5065
ENCODING 20581
SWIDTH 1000 0
DWIDTH 16 0
BBX 15 16 1 -2
BITMAP
1020
1020
3DFC
2424
67FE
6424
A9FC
AE20
23FC
2220
3220
2FFE
2420
2A20
31FE
2000
ENDCHAR
STARTCHAR U+5074
ENCODING 20596
SWIDTH 1000 0
DWIDTH 16 0
BBX 15 16 1 -2
BITMAP
1002
17C2
2452
2452
6452
67D2
A452
A452
27D2
2452
2452
2452
27D2
2002
2482
2846
ENDCHAR
STARTCHAR U+5075
ENCODING 20597
SWIDTH 1000 0
DWIDTH 16 0
BBX 15 16 1 -2
BITMAP
1040
1040
207E
2040
67FC
6404
A404
A7FC
2404
2404
27FC
2404
2404
27FC
2404
2802
ENDCHAR
STARTCHAR U+5076
ENCODING 20598
SWIDTH 1000 0
DWIDTH 16 0
BBX 15 16 1 -2
BITMAP
1000
17FC
2444
2444
67FC
6444
A444
A7FC
2040
2FFE
2852
284A
2876
2F82
2802
2806
ENDCHAR
STARTCHAR U+5078
ENCODING 20600
SWIDTH 1000 0
DWIDTH 16 0
BBX 15 16 1 -2
BITMAP
1000
13E0
24A0
2310
6608
7BF6
A000
AF94
2894
2FA8
28D0
2FA8
28A8
2894
2894
2994
ENDCHAR
STARTCHAR U+5080
ENCODING 20608
SWIDTH 1000 0
DWIDTH 16 0
BBX 15 16 1 -2
BITMAP
1020
1040
27FC
2444
6444
67FC
A444
A444
27FC
2128
2134
212C
2232
2222
243E
2800
ENDCHAR
STARTCHAR U+5085
ENCODING 20613
SWIDTH 1000 0
DWIDTH 16 0
BBX 15 16 1 -2
BITMAP
1050
1048
2FFE
2040
67FC
6444
A7FC
A444
27FC
2444
244C
2008
2FFE
2088
2048
2018
ENDCHAR
STARTCHAR U+508D
ENCODING 20621
SWIDTH 1000 0
DWIDTH 16 0
BBX 15 16 1 -2
BITMAP
1020
1020
27FE
2104
6088
6088
AFFE
A842
2040
27FE
2040
20FC
2084
2104
2208
2C30
ENDCHAR
STARTCHAR U+5091
ENCODING 20625
SWIDTH 1000 0
DWIDTH 16 0
BBX 15 16 1 -2
BITMAP
1410
1410
27FC
2950
6950
7650
A5FE
A810
3090
2080
3FFE
21C0
22A0
2490
2888
3086
ENDCHAR
STARTCHAR U+5098
ENCODING 20632
SWIDTH 1000 0
DWIDTH 16 0
BBX 15 16 1 -2
BITMAP
0100
0280
0440
0820
3118
C926
1950
2588
4304
1110
1110
2928
4544
FFFE
0100
0100
ENDCHAR
STARTCHAR U+5099
ENCODING 20633
SWIDTH 1000 0
DWIDTH 16 0
BBX 15 16 1 -2
BITMAP
1110
1110
27FC
2110
6110
6FFE
A800
A800
2BFC
2A44
2BFC
2A44
2BFC
2A44
2A44
324C
ENDCHAR
STARTCHAR U+50AC
ENCODING 20652
SWIDTH 1000 0
DWIDTH 16 0
BBX 15 16 1 -2
BITMAP
1040
1444
2444
27FC
6404
6000
A220
A440
27FC
2C40
37FC
2440
27FC
2440
27FE
2400
ENDCHAR
STARTCHAR U+50AD
ENCODING 20653
SWIDTH 1000 0
DWIDTH 16 0
BBX 15 16 1 -2
BITMAP
1020
17FE
2420
25FC
6424
67FE
A424
A5FC
2420
25FC
2524
25FC
2524
25FC
2924
292C
ENDCHAR
STARTCHAR U+50B2
ENCODING 20658
SWIDTH 1000 0
DWIDTH 16 0
BBX 15 16 1 -2
BITMAP
1208
1208
2208
2F9E
6214
7FF4
A254
A214
2FD4
2214
23E8
2248
2248
2454
2494
2B22
ENDCHAR
STARTCHAR U+50B3
ENCODING 20659
SWIDTH 1000 0
DWIDTH 16 0
BBX 15 16 1 -2
BITMAP
1040
1FFE
2040
27FC
6444
67FC
A444
A7FC
2044
20FE
3F12
2010
2FFE
2110
2090
2030
ENDCHAR
STARTCHAR U+50B5
ENCODING 20661
SWIDTH 1000 0
DWIDTH 16 0
BBX 15 16 1 -2
BITMAP
1040
1FFE
2040
27FC
6040
6FFE
A000
A7FC
2404
27FC
2404
27FC
2404
27FC
2404
2802
ENDCHAR
STARTCHAR U+50B7
ENCODING 20663
SWIDTH 1000 0
DWIDTH 16 0
BBX 15 16 1 -2
BITMAP
1200
13FE
2400
6BFC
6204
A3FC
A204
23FC
2000
3FFE
2100
23FE
2C92
2122
2244
2D98
ENDCHAR
STARTCHAR U+50BE
ENCODING 20670
SWIDTH 1000 0
DWIDTH 16 0
BBX 15 16 1 -2
BITMAP
1000
14FE
2410
247C
6444
65C4
A67C
A444
2444
2444
247C
2444
2544
257C
2744
2082
ENDCHAR
STARTCHAR U+50C5
ENCODING 20677
SWIDTH 1000 0
DWIDTH 16 0
BBX 15 16 1 -2
BITMAP
2110
2110
2FFE
2910
29F0
A840
A7FC
A444
27FC
2040
2FFE
2040
27FC
2040
2FFE
2000
ENDCHAR
STARTCHAR U+50C9
ENCODING 20681
SWIDTH 1000 0
DWIDTH 16 0
BBX 15 16 1 -2
BITMAP
0100
0280
0440
0820
3018
CFE6
0000
3EF8
2288
3EF8
2288
0820
0820
1450
2288
4104
ENDCHAR
STARTCHAR U+50CA
ENCODING 20682
SWIDTH 1000 0
DWIDTH 16 0
BBX 15 16 1 -2
BITMAP
1000
1FFE
2090
27FE
6492
67FE
A040
A040
2FFE
2110
27F8
3916
2130
2102
21FE
2000
ENDCHAR
STARTCHAR U+50CF
ENCODING 20687
SWIDTH 1000 0
DWIDTH 16 0
BBX 15 16 1 -2
BITMAP
1080
1100
23F8
2410
6FFC
7444
A444
A7FC
21C4
2248
24B0
3920
2270
2CA8
2324
2CC2
ENDCHAR
STARTCHAR U+50D1
ENCODING 20689
SWIDTH 1000 0
DWIDTH 16 0
BBX 15 16 1 -2
BITMAP
103C
17C0
2040
3FFE
6110
67F8
B916
A1F0
2000
2FFE
2802
29F2
2912
29F2
2802
280E
ENDCHAR
STARTCHAR U+50D5
ENCODING 20693
SWIDTH 1000 0
DWIDTH 16 0
BBX 15 16 1 -2
BITMAP
10A0
14A4
22A8
22A8
6FFE
6110
A0A0
AFFE
2040
27FC
2040
2FFE
20A0
2110
2208
2C06
ENDCHAR
STARTCHAR U+50D6
ENCODING 20694
SWIDTH 1000 0
DWIDTH 16 0
BBX 15 16 1 -2
BITMAP
1040
1040
2FFE
2040
67FC
6000
A7FC
A404
27FC
2110
2FFE
2000
27FC
2404
27FC
2404
ENDCHAR
STARTCHAR U+50DA
ENCODING 20698
SWIDTH 1000 0
DWIDTH 16 0
BBX 15 16 1 -2
BITMAP
1040
1040
2FFE
24A4
6318
6208
AC06
A3F8
2208
23F8
2208
23F8
2040
2248
2444
28C2
ENDCHAR
STARTCHAR U+50DE
ENCODING 20702
SWIDTH 1000 0
DWIDTH 16 0
BBX 15 16 1 -2
BITMAP
103C
13C4
2222
2410
6000
67FE
A402
A7FE
2400
27FE
240A
2416
2452
2552
2944
2A18
ENDCHAR
STARTCHAR U+50E5
ENCODING 20709
SWIDTH 1000 0
DWIDTH 16 0
BBX 15 16 1 -2
BITMAP
1040
1040
27FC
2040
6FFE
6210
A210
BFFE
2210
2390
3CFE
2000
3FFE
2120
2222
2C3E
ENDCHAR
STARTCHAR U+50E7
ENCODING 20711
SWIDTH 1000 0
DWIDTH 16 0
BBX 15 16 1 -2
BITMAP
10E0
1010
2208
2404
6FFE
764C
A554
A554
27FC
2000
23F8
2208
23F8
2208
23F8
2208
ENDCHAR
STARTCHAR U+50ED
ENCODING 20717
SWIDTH 1000 0
DWIDTH 16 0
BBX 15 16 1 -2
BITMAP
1000
1FFC
2550
2550
7FFC
6550
A550
A552
299E
3600
27F8
2408
27F8
2408
27F8
2408
ENDCHAR
STARTCHAR U+50F9
ENCODING 20729
SWIDTH 1000 0
DWIDTH 16 0
BBX 15 16 1 -2
BITMAP
1000
1FFE
2120
2FFC
6924
6FFC
A000
27F8
2408
27F8
2408
27F8
2408
27F8
2208
2404
ENDCHAR
STARTCHAR U+50FB
ENCODING 20731
SWIDTH 1000 0
DWIDTH 16 0
BBX 15 16 1 -2
BITMAP
1010
1790
24FC
2480
64A4
67A8
A428
A47C
2810
2F90
2C90
34FE
2490
2490
2790
2490
ENDCHAR
STARTCHAR U+50FF
ENCODING 20735
SWIDTH 1000 0
DWIDTH 16 0
BBX 15 16 1 -2
BITMAP
1040
1040
2FFE
2912
6110
67FC
A110
A7FC
2110
2FFE
2248
2444
2BFA
2040
2FFE
2000
ENDCHAR
STARTCHAR U+5100
ENCODING 20736
SWIDTH 1000 0
DWIDTH 16 0
BBX 15 16 1 -2
BITMAP
1208
1110
2FFE
2040
67FC
6040
AFFE
A1C8
2F44
2240
3FFE
2224
23E8
3E12
222A
26C6
ENDCHAR
STARTCHAR U+5101
ENCODING 20737
SWIDTH 1000 0
DWIDTH 16 0
BBX 15 16 1 -2
BITMAP
1220
1240
27FC
2C40
77FC
6440
A7FC
A440
27FE
2400
2F1E
2912
29F2
2802
2802
2806
ENDCHAR
STARTCHAR U+5104
ENCODING 20740
SWIDTH 1000 0
DWIDTH 16 0
BBX 15 16 1 -2
BITMAP
1040
1040
27FC
2110
60A0
6FFE
A000
A7FC
2404
27FC
2404
27FC
2044
2522
250A
29F8
ENDCHAR
STARTCHAR U+5106
ENCODING 20742
SWIDTH 1000 0
DWIDTH 16 0
BBX 15 16 1 -2
BITMAP
1488
1488
3FF0
249E
64A4
6234
A454
A7D4
2854
3754
2548
2548
2758
2054
20A4
2342
ENDCHAR
STARTCHAR U+5109
ENCODING 20745
SWIDTH 1000 0
DWIDTH 16 0
BBX 15 16 1 -2
BITMAP
1040
10A0
2110
220C
6C02
63F8
A000
A7BC
24A4
24A4
24A4
27BC
2208
2208
2514
28A2
ENDCHAR
STARTCHAR U+5112
ENCODING 20754
SWIDTH 1000 0
DWIDTH 16 0
BBX 15 16 1 -2
BITMAP
1000
1FFE
2040
2FFE
6842
675C
A040
A75C
2000
2FFE
2040
27FC
24A4
24A4
24A4
24AC
ENDCHAR
STARTCHAR U+511F
ENCODING 20767
SWIDTH 1000 0
DWIDTH 16 0
BBX 15 16 1 -2
BITMAP
1248
1150
2FFE
2802
6BFA
6208
A3F8
A7FC
2404
27FC
2404
27FC
2404
27FC
2404
2802
ENDCHAR
STARTCHAR U+5121
ENCODING 20769
SWIDTH 1000 0
DWIDTH 16 0
BBX 15 16 1 -2
BITMAP
1000
17FC
2444
27FC
6444
67FC
A000
A000
2FBE
2AAA
2AAA
2FBE
2AAA
2AAA
2FBE
2000
ENDCHAR
STARTCHAR U+512A
ENCODING 20778
SWIDTH 1000 0
DWIDTH 16 0
BBX 15 16 1 -2
BITMAP
1000
1FFE
2040
23FC
6204
63FC
AFFE
A942
252C
29FA
2080
21FC
2318
2CA0
21E0
2E1E
ENDCHAR
STARTCHAR U+5132
ENCODING 20786
SWIDTH 1000 0
DWIDTH 16 0
BBX 15 16 1 -2
BITMAP
1010
1F12
207C
3F94
6018
60FE
AF18
A024
2F40
20BC
2124
2F3C
2924
2924
2F3C
2924
ENDCHAR
STARTCHAR U+5137
ENCODING 20791
SWIDTH 1000 0
DWIDTH 16 0
BBX 15 16 1 -2
BITMAP
1000
1FFE
2000
2FBC
6AAC
6040
AFFE
A920
2FFC
2924
2FFC
2A10
2BDE
2A10
2AD2
377E
ENDCHAR
STARTCHAR U+513A
ENCODING 20794
SWIDTH 1000 0
DWIDTH 16 0
BBX 15 16 1 -2
BITMAP
1514
1514
3FE8
253E
2FE8
6AA8
6ABE
AFA8
2228
2FA8
223E
3FE8
2228
2528
24BE
2820
ENDCHAR
STARTCHAR U+513C
ENCODING 20796
SWIDTH 1000 0
DWIDTH 16 0
BBX 15 16 1 -2
BITMAP
1000
17BC
24A4
27BC
6000
6FFE
ABD0
A910
2FDE
2AA4
2BD4
2A88
2B88
2AD4
3794
30A2
ENDCHAR
STARTCHAR U+5140
ENCODING 20800
SWIDTH 1000 0
DWIDTH 16 0
BBX 15 14 1 -2
BITMAP
FFFE
0420
0420
0420
0420
0420
0420
0420
0820
0820
1022
2022
403E
8000
ENDCHAR
STARTCHAR U+5141
ENCODING 20801
SWIDTH 1000 0
DWIDTH 16 0
BBX 15 16 1 -2
BITMAP
0100
0100
0200
0410
0808
11FC
7E42
0440
0440
0440
0440
0840
0842
1042
207E
C000
ENDCHAR
STARTCHAR U+5143
ENCODING 20803
SWIDTH 1000 0
DWIDTH 16 0
BBX 15 15 1 -2
BITMAP
3FF8
0000
0000
0000
0000
FFFE
0440
0440
0440
0440
0840
0842
1042
207E
C000
ENDCHAR
STARTCHAR U+5144
ENCODING 20804
SWIDTH 1000 0
DWIDTH 16 0
BBX 15 15 1 -2
BITMAP
3FF8
2008
2008
2008
2008
2008
3FF8
0440
0440
0440
0840
0842
1042
207E
C000
ENDCHAR
STARTCHAR U+5145
ENCODING 20805
SWIDTH 1000 0
DWIDTH 16 0
BBX 15 16 1 -2
BITMAP
0100
0100
0100
FFFE
0400
0810
11F8
7E44
0440
0440
0440
0440
0842
0842
107E
E000
ENDCHAR
STARTCHAR U+5146
ENCODING 20806
SWIDTH 1000 0
DWIDTH 16 0
BBX 15 16 1 -2
BITMAP
0440
0440
4446
2458
1460
0440
0440
0460
0C50
3448
C444
0440
0442
0842
307E
C000
ENDCHAR
STARTCHAR U+5147
ENCODING 20807
SWIDTH 1000 0
DWIDTH 16 0
BBX 15 16 1 -2
BITMAP
4C24
4344
4084
4144
4224
4C04
4004
7FFC
4444
0440
0440
0840
0842
1042
207E
C000
ENDCHAR
STARTCHAR U+5148
ENCODING 20808
SWIDTH 1000 0
DWIDTH 16 0
BBX 15 16 1 -2
BITMAP
0900
0900
1100
3FFC
4100
8100
0100
FFFE
0440
0440
0440
0840
0840
1042
207E
C000
ENDCHAR
STARTCHAR U+5149
ENCODING 20809
SWIDTH 1000 0
DWIDTH 16 0
BBX 15 16 1 -2
BITMAP
0100
4104
2108
1110
0920
0100
FFFE
0440
0440
0440
0440
0840
0840
1042
2042
C07E
ENDCHAR
STARTCHAR U+514B
ENCODING 20811
SWIDTH 1000 0
DWIDTH 16 0
BBX 15 16 1 -2
BITMAP
0100
0100
0100
FFFE
0100
0100
3FF8
2008
2008
2008
3FF8
0440
0840
1042
2042
C07E
ENDCHAR
STARTCHAR U+514C
ENCODING 20812
SWIDTH 1000 0
DWIDTH 16 0
BBX 15 16 1 -2
BITMAP
01C0
0820
1010
200E
DFF0
1010
1010
1010
1010
1FF0
0440
0440
0442
0842
307E
C000
ENDCHAR
STARTCHAR U+514D
ENCODING 20813
SWIDTH 1000 0
DWIDTH 16 0
BBX 15 16 1 -2
BITMAP
0400
0400
0FF0
1020
2080
7FFC
A104
2104
2104
3FFC
0480
0480
0880
1082
2082
C0FE
ENDCHAR
STARTCHAR U+514E
ENCODING 20814
SWIDTH 1000 0
DWIDTH 16 0
BBX 15 16 1 -2
BITMAP
0038
03C0
3D00
0100
7FFC
4104
4104
4104
7FFC
4304
0320
0510
0502
0902
31FE
C000
ENDCHAR
STARTCHAR U+5152
ENCODING 20818
SWIDTH 1000 0
DWIDTH 16 0
BBX 15 16 1 -2
BITMAP
0600
787C
4004
4004
7C7C
4004
4004
7FFC
4444
0440
0440
0840
0842
1042
207E
C000
ENDCHAR
STARTCHAR U+515C
ENCODING 20828
SWIDTH 1000 0
DWIDTH 16 0
BBX 15 16 1 -2
BITMAP
0100
1A00
67DC
4444
4444
47C4
4444
4444
77DC
4000
0440
0840
0842
1042
207E
C000
ENDCHAR
STARTCHAR U+5162
ENCODING 20834
SWIDTH 1000 0
DWIDTH 16 0
BBX 15 16 1 -2
BITMAP
1010
1010
FFFE
1010
1010
FEFE
8282
8282
8282
FEFE
2828
2828
2A4A
4C4A
508E
8300
ENDCHAR
STARTCHAR U+5165
ENCODING 20837
SWIDTH 1000 0
DWIDTH 16 0
BBX 15 15 1 -2
BITMAP
1F80
0080
0080
0080
0080
0080
0140
0140
0220
0220
0410
0810
1008
2004
C002
ENDCHAR
STARTCHAR U+5167
ENCODING 20839
SWIDTH 1000 0
DWIDTH 16 0
BBX 13 16 2 -2
BITMAP
0200
0200
0200
FFF8
8208
8208
8208
8508
8888
9048
E038
8008
8008
8008
8008
8038
ENDCHAR
STARTCHAR U+5168
ENCODING 20840
SWIDTH 1000 0
DWIDTH 16 0
BBX 15 15 1 -1
BITMAP
0F80
0180
0240
0420
1818
E006
3FF8
0100
0100
0100
3FF8
0100
0100
0100
FFFE
ENDCHAR
STARTCHAR U+5169
ENCODING 20841
SWIDTH 1000 0
DWIDTH 16 0
BBX 15 15 1 -2
BITMAP
FFFE
0100
0100
0100
7FFC
4104
79E4
4924
4924
4924
5554
638C
4104
4104
411C
ENDCHAR
STARTCHAR U+516A
ENCODING 20842
SWIDTH 1000 0
DWIDTH 16 0
BBX 15 15 1 -2
BITMAP
1F80
0180
0240
0420
1818
EFE6
0000
3C48
2448
3C90
2520
3C90
2490
2448
2C48
ENDCHAR
STARTCHAR U+516B
ENCODING 20843
SWIDTH 1000 0
DWIDTH 16 0
BBX 15 14 1 -1
BITMAP
01E0
0020
0420
0420
0420
0820
0820
0810
1010
1010
2008
2008
4004
8002
ENDCHAR
STARTCHAR U+516C
ENCODING 20844
SWIDTH 1000 0
DWIDTH 16 0
BBX 15 14 1 -1
BITMAP
03C0
0040
0820
0820
1010
2008
4204
8202
0400
0820
0810
1078
2784
F802
ENDCHAR
STARTCHAR U+516D
ENCODING 20845
SWIDTH 1000 0
DWIDTH 16 0
BBX 15 15 1 -1
BITMAP
0100
0100
0100
FFFE
0000
0000
0000
0000
1020
1010
2010
2008
4004
4004
8002
ENDCHAR
STARTCHAR U+516E
ENCODING 20846
SWIDTH 1000 0
DWIDTH 16 0
BBX 15 16 1 -2
BITMAP
03C0
0020
0820
1010
2008
7FFC
8802
0800
1FF0
1010
0010
0010
0010
0010
0020
01C0
ENDCHAR
STARTCHAR U+5171
ENCODING 20849
SWIDTH 1000 0
DWIDTH 16 0
BBX 15 15 1 -1
BITMAP
0820
0820
0820
0820
7FFC
0820
0820
0820
0820
FFFE
0000
0820
1010
2008
4004
ENDCHAR
STARTCHAR U+5175
ENCODING 20853
SWIDTH 1000 0
DWIDTH 16 0
BBX 15 16 1 -2
BITMAP
00F8
1F00
1000
1000
1000
1FFC
1010
1010
1010
1010
FFFE
0000
0810
1008
2004
4002
ENDCHAR
STARTCHAR U+5176
ENCODING 20854
SWIDTH 1000 0
DWIDTH 16 0
BBX 15 16 1 -2
BITMAP
1010
1010
7FFC
1010
1010
1FF0
1010
1010
1FF0
1010
1010
FFFE
0000
1010
2008
4004
ENDCHAR
STARTCHAR U+5177
ENCODING 20855
SWIDTH 1000 0
DWIDTH 16 0
BBX 14 15 1 -2
BITMAP
3FF0
2010
3FF0
2010
3FF0
2010
3FF0
0000
0000
FFFC
0000
0000
1020
2010
4008
ENDCHAR
STARTCHAR U+5178
ENCODING 20856
SWIDTH 1000 0
DWIDTH 16 0
BBX 15 16 1 -2
BITMAP
0440
0440
0440
3FF8
2448
2448
2448
3FF8
2448
2448
2448
FFFE
0000
1010
2008
4004
ENDCHAR
STARTCHAR U+517C
ENCODING 20860
SWIDTH 1000 0
DWIDTH 16 0
BBX 15 16 1 -2
BITMAP
03E0
0820
1010
3FF8
C446
0440
3FF8
0448
FFFE
0448
3FF8
0440
0C60
1450
2448
C446
ENDCHAR
STARTCHAR U+5180
ENCODING 20864
SWIDTH 1000 0
DWIDTH 16 0
BBX 15 16 1 -2
BITMAP
0440
FC7E
0440
1C42
E47E
3FF8
2108
3FF8
2108
3FF8
0820
7FFC
0820
FFFE
1010
2008
ENDCHAR
STARTCHAR U+5186
ENCODING 20870
SWIDTH 1000 0
DWIDTH 16 0
BBX 13 15 2 -2
BITMAP
FFF8
8208
8208
8208
8208
8208
FFF8
8008
8008
8008
8008
8008
8008
8008
8018
ENDCHAR
STARTCHAR U+518A
ENCODING 20874
SWIDTH 1000 0
DWIDTH 16 0
BBX 15 15 1 -2
BITMAP
3FF8
2448
2448
2448
2448
2448
FFFE
2448
2448
2448
2448
2448
4448
4448
8018
ENDCHAR
STARTCHAR U+518D
ENCODING 20877
SWIDTH 1000 0
DWIDTH 16 0
BBX 15 15 1 -2
BITMAP
FFFE
0100
0100
3FF8
2108
2108
3FF8
2108
2108
FFFE
2008
2008
2008
2008
2018
ENDCHAR
STARTCHAR U+5192
ENCODING 20882
SWIDTH 1000 0
DWIDTH 16 0
BBX 13 14 2 -1
BITMAP
FFF8
8008
FFF8
8008
FFF8
0000
0000
3FE0
2020
3FE0
2020
3FE0
2020
3FE0
ENDCHAR
STARTCHAR U+5195
ENCODING 20885
SWIDTH 1000 0
DWIDTH 16 0
BBX 15 16 1 -2
BITMAP
3FF8
2008
3FF8
2008
3FF8
0400
0FE0
3040
DFF8
1108
1108
1FF8
0280
0482
1882
E0FE
ENDCHAR
STARTCHAR U+5197
ENCODING 20887
SWIDTH 1000 0
DWIDTH 16 0
BBX 15 15 1 -2
BITMAP
FFFE
8002
8002
0000
0FE0
0820
0820
0820
0820
0820
0820
1022
1022
203E
C000
ENDCHAR
STARTCHAR U+51A0
ENCODING 20896
SWIDTH 1000 0
DWIDTH 16 0
BBX 15 15 1 -2
BITMAP
FFFE
8002
800A
000C
3C0A
01FE
0008
FF48
2428
2408
2408
2438
4402
4402
87FE
ENDCHAR
STARTCHAR U+51A5
ENCODING 20901
SWIDTH 1000 0
DWIDTH 16 0
BBX 15 15 1 -2
BITMAP
FFFE
8002
1FF0
1010
1FF0
1010
1FF0
0100
0100
FFFE
0280
0440
0820
3018
C006
ENDCHAR
STARTCHAR U+51AA
ENCODING 20906
SWIDTH 1000 0
DWIDTH 16 0
BBX 15 16 1 -2
BITMAP
FFFE
8822
7FFC
0820
1FF0
1010
1FF0
1FF0
0100
FFFE
0D20
3118
DFF6
1110
1110
1130
ENDCHAR
STARTCHAR U+51AC
ENCODING 20908
SWIDTH 1000 0
DWIDTH 16 0
BBX 15 16 1 -2
BITMAP
0400
0400
0800
1FFC
2810
4420
8240
0180
02C0
0C30
310E
C080
0018
0060
0380
3C00
ENDCHAR
STARTCHAR U+51B6
ENCODING 20918
SWIDTH 1000 0
DWIDTH 16 0
BBX 15 16 1 -2
BITMAP
4080
2080
0100
0108
0204
047E
0F82
2000
2000
27FC
4404
4404
4404
4404
87FC
8404
ENDCHAR
STARTCHAR U+51B7
ENCODING 20919
SWIDTH 1000 0
DWIDTH 16 0
BBX 15 16 1 -2
BITMAP
8040
40A0
2110
0208
0C06
0000
07F8
2000
2000
27F8
4108
4108
4108
4138
8100
8100
ENDCHAR
STARTCHAR U+51BD
ENCODING 20925
SWIDTH 1000 0
DWIDTH 16 0
BBX 15 16 1 -2
BITMAP
8002
4002
0FD2
0212
0212
07D2
2452
2A52
2992
3092
4112
4112
4212
4412
8802
9006
ENDCHAR
STARTCHAR U+51C4
ENCODING 20932
SWIDTH 1000 0
DWIDTH 16 0
BBX 15 16 1 -2
BITMAP
8080
4080
1FFE
0080
07F8
0088
3FFE
0088
27F8
2080
3FFE
4210
4720
48E0
8398
9C06
ENDCHAR
STARTCHAR U+51C6
ENCODING 20934
SWIDTH 1000 0
DWIDTH 16 0
BBX 15 16 1 -2
BITMAP
8110
4110
0220
03FC
0620
0620
0A20
0BFC
2220
2220
23FC
4220
4220
4220
83FE
8200
ENDCHAR
STARTCHAR U+51C9
ENCODING 20937
SWIDTH 1000 0
DWIDTH 16 0
BBX 15 16 1 -2
BITMAP
8040
4040
2040
0FFE
0000
07FC
0404
2404
2404
27FC
4040
4040
4248
4444
8842
80C0
ENDCHAR
STARTCHAR U+51CB
ENCODING 20939
SWIDTH 1000 0
DWIDTH 16 0
BBX 15 16 1 -2
BITMAP
8000
4FFE
2842
0842
0BFA
0842
0842
2FFE
2842
29F2
4912
4912
4912
49F2
9112
9006
ENDCHAR
STARTCHAR U+51CC
ENCODING 20940
SWIDTH 1000 0
DWIDTH 16 0
BBX 15 16 1 -2
BITMAP
8040
4040
27FC
0040
0FFE
0120
0222
253E
2900
23F8
4610
5920
40C0
41A0
8618
9806
ENDCHAR
STARTCHAR U+51CD
ENCODING 20941
SWIDTH 1000 0
DWIDTH 16 0
BBX 15 16 1 -2
BITMAP
8040
4040
0FFE
0040
0040
07FC
0444
27FC
2444
27FC
40E0
4150
4150
4248
8444
8842
ENDCHAR
STARTCHAR U+51DC
ENCODING 20956
SWIDTH 1000 0
DWIDTH 16 0
BBX 15 16 1 -2
BITMAP
8040
4FFE
0000
07FC
0404
04E4
2404
27FC
2078
27C0
4040
5FFE
40E0
4150
8648
9846
ENDCHAR
STARTCHAR U+51DD
ENCODING 20957
SWIDTH 1000 0
DWIDTH 16 0
BBX 15 16 1 -2
BITMAP
8800
49BC
0E04
08A8
0F90
047E
2414
2F90
3210
225E
5FD0
4250
4550
44D0
88BE
B100
ENDCHAR
STARTCHAR U+51DE
ENCODING 20958
SWIDTH 1000 0
DWIDTH 16 0
BBX 15 16 1 -2
BITMAP
8000
4FBC
0924
0BA4
2AA4
2ABC
2AA0
4BA0
4920
8922
8FBE
0800
0000
4844
4422
8422
ENDCHAR
STARTCHAR U+51E1
ENCODING 20961
SWIDTH 1000 0
DWIDTH 16 0
BBX 15 15 1 -2
BITMAP
1FF0
1010
1010
1010
1210
1110
1090
1090
1010
1010
1010
2012
2012
401E
8000
ENDCHAR
STARTCHAR U+51F0
ENCODING 20976
SWIDTH 1000 0
DWIDTH 16 0
BBX 15 15 1 -2
BITMAP
7FF0
4010
4F90
4890
4F90
4890
4F90
4010
5FD0
4210
5FD0
4208
BFEA
8006
8002
ENDCHAR
STARTCHAR U+51F1
ENCODING 20977
SWIDTH 1000 0
DWIDTH 16 0
BBX 15 16 1 -2
BITMAP
1000
9278
9248
FE48
0048
FE48
0048
FE48
8248
8248
FE48
0448
4488
2F8A
F90A
020E
ENDCHAR
STARTCHAR U+51F6
ENCODING 20982
SWIDTH 1000 0
DWIDTH 16 0
BBX 13 16 2 -2
BITMAP
8008
8008
8008
9048
8848
8488
8308
8108
8288
8488
8848
B048
8008
FFF8
8008
8000
ENDCHAR
STARTCHAR U+51F8
ENCODING 20984
SWIDTH 1000 0
DWIDTH 16 0
BBX 14 15 1 -2
BITMAP
0FC0
0840
0840
0840
0840
0840
F87C
8004
8004
8004
8004
8004
8004
FFFC
8004
ENDCHAR
STARTCHAR U+51F9
ENCODING 20985
SWIDTH 1000 0
DWIDTH 16 0
BBX 13 15 2 -2
BITMAP
F8F8
8888
8888
8888
8888
8888
8888
8F88
8888
8008
8008
8008
8008
FFF8
8008
ENDCHAR
STARTCHAR U+51FA
ENCODING 20986
SWIDTH 1000 0
DWIDTH 16 0
BBX 13 16 2 -2
BITMAP
0200
0200
4210
4210
4210
4210
7FF0
4210
0200
8208
8208
8208
8208
8208
FFF8
8008
ENDCHAR
STARTCHAR U+51FD
ENCODING 20989
SWIDTH 1000 0
DWIDTH 16 0
BBX 15 14 1 -2
BITMAP
FFFE
0200
0200
4784
4494
50A4
4884
41C4
42A4
449C
5984
4004
7FFC
4004
ENDCHAR
STARTCHAR U+5200
ENCODING 20992
SWIDTH 1000 0
DWIDTH 16 0
BBX 14 15 1 -2
BITMAP
FFFC
0204
0204
0204
0204
0204
0404
0404
0804
0804
1004
1004
2008
4008
8070
ENDCHAR
STARTCHAR U+5203
ENCODING 20995
SWIDTH 1000 0
DWIDTH 16 0
BBX 14 15 1 -2
BITMAP
7FFC
0104
0104
2104
1104
0904
0204
0204
0404
0404
0804
1004
2008
4070
8000
ENDCHAR
STARTCHAR U+5206
ENCODING 20998
SWIDTH 1000 0
DWIDTH 16 0
BBX 15 15 1 -2
BITMAP
07C0
0040
0820
1010
2008
4006
8000
3FF0
0410
0410
0810
0820
1020
2040
C180
ENDCHAR
STARTCHAR U+5207
ENCODING 20999
SWIDTH 1000 0
DWIDTH 16 0
BBX 15 16 1 -2
BITMAP
1000
13FE
1042
1042
1042
1342
1C42
F042
1042
1042
1242
1242
1E82
0082
0304
1C18
ENDCHAR
STARTCHAR U+5208
ENCODING 21000
SWIDTH 1000 0
DWIDTH 16 0
BBX 14 16 1 -2
BITMAP
0404
0444
0444
0444
C844
2844
1844
0844
1444
1444
1244
2244
2044
4044
8004
001C
ENDCHAR
STARTCHAR U+520A
ENCODING 21002
SWIDTH 1000 0
DWIDTH 16 0
BBX 14 16 1 -2
BITMAP
0004
0004
FE44
1044
1044
1044
1044
1044
FE44
1044
1044
1044
1044
1044
1004
101C
ENDCHAR
STARTCHAR U+520E
ENCODING 21006
SWIDTH 1000 0
DWIDTH 16 0
BBX 15 16 1 -2
BITMAP
1002
1002
2012
3FD2
4952
8952
1252
1252
2452
4452
8852
1052
2092
4092
8112
0E06
ENDCHAR
STARTCHAR U+5211
ENCODING 21009
SWIDTH 1000 0
DWIDTH 16 0
BBX 14 16 1 -2
BITMAP
0004
0004
7FA4
1224
1224
1224
1224
FFE4
1224
1224
1224
1224
2224
2204
4204
821C
ENDCHAR
STARTCHAR U+5217
ENCODING 21015
SWIDTH 1000 0
DWIDTH 16 0
BBX 14 16 1 -2
BITMAP
0004
FF84
1024
1024
1024
3FA4
2124
6124
5224
8A24
0424
0424
0824
1024
2004
400C
ENDCHAR
STARTCHAR U+521D
ENCODING 21021
SWIDTH 1000 0
DWIDTH 16 0
BBX 15 16 1 -2
BITMAP
1000
1000
10FE
7C22
0422
0822
1222
3422
5822
9422
1022
1042
1042
1082
1104
1618
ENDCHAR
STARTCHAR U+5224
ENCODING 21028
SWIDTH 1000 0
DWIDTH 16 0
BBX 14 16 1 -2
BITMAP
0804
4A24
4A24
8924
8924
0824
7F24
0824
0824
0FA4
F824
0824
1024
1024
2004
400C
ENDCHAR
STARTCHAR U+5225
ENCODING 21029
SWIDTH 1000 0
DWIDTH 16 0
BBX 15 16 1 -2
BITMAP
0002
7F02
4112
4112
4112
4112
7F12
1012
1012
1F92
1092
1092
2092
2092
4102
8606
ENDCHAR
STARTCHAR U+5229
ENCODING 21033
SWIDTH 1000 0
DWIDTH 16 0
BBX 14 16 1 -2
BITMAP
0E04
7824
0824
0824
FF24
0824
1824
1C24
2A24
2924
4824
8824
0824
0804
0804
081C
ENDCHAR
STARTCHAR U+522A
ENCODING 21034
SWIDTH 1000 0
DWIDTH 16 0
BBX 15 16 1 -2
BITMAP
0002
3F92
2A92
2A92
2A92
2A92
FFF2
2A92
2A92
2A92
2A92
2A92
2A92
2A92
2A92
2186
ENDCHAR
STARTCHAR U+522E
ENCODING 21038
SWIDTH 1000 0
DWIDTH 16 0
BBX 14 16 1 -2
BITMAP
0704
7804
0824
0824
0824
FFA4
0824
0824
0824
7F24
4124
4124
4124
4124
7F04
401C
ENDCHAR
STARTCHAR U+5230
ENCODING 21040
SWIDTH 1000 0
DWIDTH 16 0
BBX 14 16 1 -2
BITMAP
0004
0004
FF24
1024
2224
4F24
F0A4
1024
1024
FF24
1024
1024
1F24
F024
0004
001C
ENDCHAR
STARTCHAR U+5236
ENCODING 21046
SWIDTH 1000 0
DWIDTH 16 0
BBX 15 16 1 -2
BITMAP
0802
2802
2822
7F22
8822
0822
FFA2
0822
0822
7F22
4922
4922
4922
4922
4902
4B06
ENDCHAR
STARTCHAR U+5237
ENCODING 21047
SWIDTH 1000 0
DWIDTH 16 0
BBX 15 16 1 -2
BITMAP
0002
7FC2
4052
4052
7FD2
4212
4212
5FD2
5252
5252
5252
5252
5252
52D2
8202
8206
ENDCHAR
STARTCHAR U+5238
ENCODING 21048
SWIDTH 1000 0
DWIDTH 16 0
BBX 15 16 1 -2
BITMAP
0920
1110
2108
7FFC
0280
0440
FFFE
0810
3008
DFF6
0210
0210
0410
0810
1020
61C0
ENDCHAR
STARTCHAR U+5239
ENCODING 21049
SWIDTH 1000 0
DWIDTH 16 0
BBX 14 16 1 -2
BITMAP
C604
2844
1044
2844
4444
9044
1044
FE44
1044
3044
3844
5444
5044
9044
1004
100C
ENDCHAR
STARTCHAR U+523A
ENCODING 21050
SWIDTH 1000 0
DWIDTH 16 0
BBX 15 16 1 -2
BITMAP
0802
0802
0822
FFA2
0822
7F22
4922
4922
4922
5B22
1822
2C22
2A22
4922
8802
0806
ENDCHAR
STARTCHAR U+523B
ENCODING 21051
SWIDTH 1000 0
DWIDTH 16 0
BBX 14 16 1 -2
BITMAP
0804
0824
0824
FFA4
1024
A424
4424
2924
0924
1224
2224
C424
0C24
1224
2104
C00C
ENDCHAR
STARTCHAR U+5243
ENCODING 21059
SWIDTH 1000 0
DWIDTH 16 0
BBX 14 16 1 -2
BITMAP
2204
1404
7F24
0924
0924
7F24
4924
4824
FFA4
88A4
18A4
18A4
28A4
2B24
4804
880C
ENDCHAR
STARTCHAR U+5247
ENCODING 21063
SWIDTH 1000 0
DWIDTH 16 0
BBX 14 16 1 -2
BITMAP
0004
7E04
4244
4244
4244
7E44
4244
4244
4244
7E44
4244
4244
4244
7E44
4204
810C
ENDCHAR
STARTCHAR U+524A
ENCODING 21066
SWIDTH 1000 0
DWIDTH 16 0
BBX 15 16 1 -2
BITMAP
0802
2A02
4922
88A2
0822
7F22
4122
4122
7F22
4122
4122
7F22
4122
4122
4102
4306
ENDCHAR
STARTCHAR U+524B
ENCODING 21067
SWIDTH 1000 0
DWIDTH 16 0
BBX 15 16 1 -2
BITMAP
0804
0804
0824
FFA4
0824
7F24
4124
4124
4124
7F24
1424
140C
2402
2402
47FE
8000
ENDCHAR
STARTCHAR U+524C
ENCODING 21068
SWIDTH 1000 0
DWIDTH 16 0
BBX 14 16 1 -2
BITMAP
0804
0804
0824
FFA4
0824
7F24
4924
4924
4924
7F24
0824
1C24
1A24
2924
4804
881C
ENDCHAR
STARTCHAR U+524D
ENCODING 21069
SWIDTH 1000 0
DWIDTH 16 0
BBX 15 16 1 -2
BITMAP
0820
0440
FFFE
0000
0000
7C04
4444
4444
7C44
4444
4444
7C44
4444
4444
8404
8C0C
ENDCHAR
STARTCHAR U+5254
ENCODING 21076
SWIDTH 1000 0
DWIDTH 16 0
BBX 15 16 1 -2
BITMAP
0002
3F92
2092
3F92
2092
3F92
1012
2012
7FD2
8952
1252
2452
C892
1082
6102
0606
ENDCHAR
STARTCHAR U+5256
ENCODING 21078
SWIDTH 1000 0
DWIDTH 16 0
BBX 15 16 1 -2
BITMAP
0402
0412
0412
7FD2
2092
1112
1112
FFF2
0012
0012
3F92
2092
2092
2092
3F82
2086
ENDCHAR
STARTCHAR U+525B
ENCODING 21083
SWIDTH 1000 0
DWIDTH 16 0
BBX 14 16 1 -2
BITMAP
0004
FF84
80A4
A2A4
94A4
FFA4
88A4
AAA4
AAA4
AAA4
AAA4
BEA4
A2A4
80A4
8084
838C
ENDCHAR
STARTCHAR U+525D
ENCODING 21085
SWIDTH 1000 0
DWIDTH 16 0
BBX 15 16 1 -2
BITMAP
1002
1082
1F92
2092
2112
5F12
0412
FFF2
0412
2492
1512
0612
0D12
3482
C442
0C06
ENDCHAR
STARTCHAR U+5261
ENCODING 21089
SWIDTH 1000 0
DWIDTH 16 0
BBX 15 16 1 -2
BITMAP
0802
0902
4A22
4C22
5422
1222
2122
40A2
8822
0822
4922
4A22
5422
1202
2102
C0C6
ENDCHAR
STARTCHAR U+5269
ENCODING 21097
SWIDTH 1000 0
DWIDTH 16 0
BBX 14 16 1 -2
BITMAP
0F04
7804
0824
FFA4
4924
4924
FFA4
4924
4924
FFA4
1824
2C24
2A24
4904
8804
080C
ENDCHAR
STARTCHAR U+526A
ENCODING 21098
SWIDTH 1000 0
DWIDTH 16 0
BBX 15 16 1 -2
BITMAP
0820
0440
FFFE
0000
3E08
2248
3E48
2248
3E48
2208
4618
0000
7FFC
0204
0C04
F018
ENDCHAR
STARTCHAR U+526F
ENCODING 21103
SWIDTH 1000 0
DWIDTH 16 0
BBX 15 16 1 -2
BITMAP
0002
FF82
0012
7F12
4112
4112
7F12
0012
FF92
8892
8892
FF92
8892
8892
FF82
8086
ENDCHAR
STARTCHAR U+5272
ENCODING 21106
SWIDTH 1000 0
DWIDTH 16 0
BBX 14 16 1 -2
BITMAP
0804
0804
FFA4
88A4
0F24
7824
0824
FF24
0824
FFA4
0024
7F24
4124
4124
7F04
410C
ENDCHAR
STARTCHAR U+5275
ENCODING 21109
SWIDTH 1000 0
DWIDTH 16 0
BBX 15 16 1 -2
BITMAP
0002
0C02
1212
2192
FF12
0012
3F12
2112
3F12
2112
3F12
2012
3F12
6112
7F02
A106
ENDCHAR
STARTCHAR U+527D
ENCODING 21117
SWIDTH 1000 0
DWIDTH 16 0
BBX 15 16 1 -2
BITMAP
0002
FFC2
1212
7F92
5292
5292
7F92
0012
7F92
0012
FFD2
0812
4912
4892
8842
1806
ENDCHAR
STARTCHAR U+527F
ENCODING 21119
SWIDTH 1000 0
DWIDTH 16 0
BBX 15 16 1 -2
BITMAP
2242
4482
8912
4492
2252
7FD2
4452
7FD2
4452
7FD2
0412
FFF2
0E12
1502
2482
C466
ENDCHAR
STARTCHAR U+5283
ENCODING 21123
SWIDTH 1000 0
DWIDTH 16 0
BBX 15 16 1 -2
BITMAP
0802
7F02
0912
FFD2
0912
7F12
0812
7F12
FF92
0012
FF92
FF92
8892
FF92
07C2
F806
ENDCHAR
STARTCHAR U+5287
ENCODING 21127
SWIDTH 1000 0
DWIDTH 16 0
BBX 15 16 1 -2
BITMAP
0802
0FC2
0812
7FF2
4B12
7C52
4FD2
4012
7FD2
4C12
5692
6B12
5712
AA92
9242
AC26
ENDCHAR
STARTCHAR U+5288
ENCODING 21128
SWIDTH 1000 0
DWIDTH 16 0
BBX 15 16 1 -2
BITMAP
0010
7E10
42FE
7E44
4028
7EFE
E210
BEFC
A210
0210
FFFC
0204
0204
0404
1808
E070
ENDCHAR
STARTCHAR U+5289
ENCODING 21129
SWIDTH 1000 0
DWIDTH 16 0
BBX 15 16 1 -2
BITMAP
1802
67D2
4252
4A52
4452
7CD2
C612
0912
30D2
DF12
0412
7F92
0512
2512
17C2
7C06
ENDCHAR
STARTCHAR U+528D
ENCODING 21133
SWIDTH 1000 0
DWIDTH 16 0
BBX 15 16 1 -2
BITMAP
0802
1402
2212
4112
8092
FF12
0012
F792
9492
9492
9492
F792
2112
2112
5282
8C4E
ENDCHAR
STARTCHAR U+5291
ENCODING 21137
SWIDTH 1000 0
DWIDTH 16 0
BBX 15 16 1 -2
BITMAP
0402
0402
FFE2
0AD2
F512
5592
5552
57B2
A412
4052
4052
7FD2
4052
7FD2
4042
8046
ENDCHAR
STARTCHAR U+5292
ENCODING 21138
SWIDTH 1000 0
DWIDTH 16 0
BBX 15 16 1 -2
BITMAP
08FE
1412
2212
4112
8092
7F12
0032
F7D2
9492
9492
9492
F792
2122
2122
52A2
8C4E
ENDCHAR
STARTCHAR U+529B
ENCODING 21147
SWIDTH 1000 0
DWIDTH 16 0
BBX 14 16 1 -2
BITMAP
0200
0200
0200
0200
7FFC
0204
0204
0204
0204
0404
0404
0804
0808
1008
2010
C0E0
ENDCHAR
STARTCHAR U+529F
ENCODING 21151
SWIDTH 1000 0
DWIDTH 16 0
BBX 14 16 1 -2
BITMAP
0040
0040
0040
F840
27FC
2044
2044
2044
2044
2044
3C84
E084
0104
0208
0C08
3070
ENDCHAR
STARTCHAR U+52A0
ENCODING 21152
SWIDTH 1000 0
DWIDTH 16 0
BBX 15 16 1 -2
BITMAP
0800
0800
083E
7FA2
08A2
08A2
08A2
08A2
08A2
10A2
10A2
10A2
2122
2122
463E
8022
ENDCHAR
STARTCHAR U+52A3
ENCODING 21155
SWIDTH 1000 0
DWIDTH 16 0
BBX 15 16 1 -2
BITMAP
0910
1108
2104
4102
0108
0730
00C0
0700
F900
0100
7FFC
0104
0204
0404
1808
E070
ENDCHAR
STARTCHAR U+52A4
ENCODING 21156
SWIDTH 1000 0
DWIDTH 16 0
BBX 15 16 1 -2
BITMAP
0610
7810
4010
4010
40FE
7F12
4412
4412
4412
4422
4422
4422
4442
8444
8484
8518
ENDCHAR
STARTCHAR U+52A9
ENCODING 21161
SWIDTH 1000 0
DWIDTH 16 0
BBX 14 16 1 -2
BITMAP
0020
7C20
4420
45FC
4424
7C24
4424
4424
4444
7C44
4444
4484
5E84
E104
0238
0C00
ENDCHAR
STARTCHAR U+52AA
ENCODING 21162
SWIDTH 1000 0
DWIDTH 16 0
BBX 15 16 1 -2
BITMAP
2000
21FC
FC84
4848
4830
B030
90C8
2B06
4400
8200
7FF8
0208
0208
0408
1810
E060
ENDCHAR
STARTCHAR U+52AB
ENCODING 21163
SWIDTH 1000 0
DWIDTH 16 0
BBX 15 16 1 -2
BITMAP
0810
0810
0810
0810
7F7E
0812
0812
0812
FF92
1012
1012
2222
2122
4FC2
F042
008C
ENDCHAR
STARTCHAR U+52BE
ENCODING 21182
SWIDTH 1000 0
DWIDTH 16 0
BBX 15 16 1 -2
BITMAP
0410
0410
0410
FFD0
087E
5212
2212
1412
0912
1112
2222
C422
0A42
1142
2184
C318
ENDCHAR
ENDFONT
